<svg xmlns="http://www.w3.org/2000/svg" version="1.1" xmlns:xlink="http://www.w3.org/1999/xlink" width="2000" height="659" viewBox="0 0 2000 2000"><svg xml:space="preserve" width="2000" height="2000" data-version="2" data-id="lg_eVH0OM3vtJFhqf2kmW" viewBox="0 0 666 659" x="0" y="0"><rect width="100%" height="100%" fill="transparent"></rect><g transform="matrix(1.8142 0 0 2.109 191.199 217.54)"><filter id="a" width="149%" height="149%" x="-24.5%" y="-24.5%"><feGaussianBlur in="SourceAlpha" stdDeviation="3"></feGaussianBlur><feOffset dx="3" dy="3" result="oBlur"></feOffset><feFlood flood-color="#39CCCC" flood-opacity="1"></feFlood><feComposite in2="oBlur" operator="in"></feComposite><feMerge><feMergeNode></feMergeNode><feMergeNode in="SourceGraphic"></feMergeNode></feMerge></filter><path d="m100 0 13.53 50.24a51.4 51.4 0 0 0 36.24 36.24l50.24 13.53-50.24 13.53a51.4 51.4 0 0 0-36.24 36.24L100 200.02l-13.53-50.24a51.4 51.4 0 0 0-36.24-36.24L0 100l50.24-13.53a51.4 51.4 0 0 0 36.24-36.24z" filter="url(#a)" transform="translate(-100.005 -100.01)"></path></g><path d="m191.193 291.094 15.918 59.107a60.472 60.472 0 0 0 42.636 42.637l59.108 15.918-59.108 15.918a60.472 60.472 0 0 0-42.636 42.636l-15.918 59.108-15.918-59.108a60.472 60.472 0 0 0-42.636-42.636l-59.096-15.93 59.107-15.918a60.472 60.472 0 0 0 42.637-42.636zm223.82-191.216 15.918 59.107a60.472 60.472 0 0 0 42.636 42.637l59.108 15.918-59.108 15.918a60.472 60.472 0 0 0-42.636 42.636l-15.918 59.108-15.918-59.108a60.472 60.472 0 0 0-42.636-42.636l-59.096-15.93 59.107-15.918a60.472 60.472 0 0 0 42.637-42.636z"></path><path d="m407.618 148.756 34.067 126.5a129.42 129.42 0 0 0 91.249 91.248l126.5 34.067-126.5 34.067a129.42 129.42 0 0 0-91.249 91.25l-34.067 126.498-34.067-126.499a129.42 129.42 0 0 0-91.249-91.249l-126.474-34.092 126.5-34.067a129.42 129.42 0 0 0 91.248-91.249z"></path><g transform="translate(294.058 311.51)scale(2.8747)"><filter id="b" width="140%" height="140%" x="-20%" y="-20%"><feGaussianBlur in="SourceAlpha"></feGaussianBlur><feOffset result="oBlur"></feOffset><feFlood flood-color="#FFF" flood-opacity="1"></feFlood><feComposite in2="oBlur" operator="in"></feComposite><feMerge><feMergeNode></feMergeNode><feMergeNode in="SourceGraphic"></feMergeNode></feMerge></filter><path d="m100 0 13.53 50.24a51.4 51.4 0 0 0 36.24 36.24l50.24 13.53-50.24 13.53a51.4 51.4 0 0 0-36.24 36.24L100 200.02l-13.53-50.24a51.4 51.4 0 0 0-36.24-36.24L0 100l50.24-13.53a51.4 51.4 0 0 0 36.24-36.24z" filter="url(#b)" transform="translate(-100.005 -100.01)"></path></g><g transform="translate(187.754 489.207)scale(.6074)"><filter id="c" width="149%" height="149%" x="-24.5%" y="-24.5%"><feGaussianBlur in="SourceAlpha" stdDeviation="3"></feGaussianBlur><feOffset dx="3" dy="3" result="oBlur"></feOffset><feFlood flood-color="#FFDC00" flood-opacity="1"></feFlood><feComposite in2="oBlur" operator="in"></feComposite><feMerge><feMergeNode></feMergeNode><feMergeNode in="SourceGraphic"></feMergeNode></feMerge></filter><path d="m100 0 13.53 50.24a51.4 51.4 0 0 0 36.24 36.24l50.24 13.53-50.24 13.53a51.4 51.4 0 0 0-36.24 36.24L100 200.02l-13.53-50.24a51.4 51.4 0 0 0-36.24-36.24L0 100l50.24-13.53a51.4 51.4 0 0 0 36.24-36.24z" filter="url(#c)" transform="translate(-100.005 -100.01)"></path></g><path fill="#b10dc9" d="m99.915 348.01 8.218 30.516a31.22 31.22 0 0 0 22.012 22.012l30.516 8.218-30.516 8.218a31.22 31.22 0 0 0-22.012 22.012l-8.218 30.516-8.218-30.516a31.22 31.22 0 0 0-22.012-22.012l-30.51-8.224 30.516-8.218a31.22 31.22 0 0 0 22.012-22.012z"></path><path fill="#ffdc00" d="m415.016 51.06 8.218 30.516a31.22 31.22 0 0 0 22.012 22.012l30.516 8.218-30.516 8.218a31.22 31.22 0 0 0-22.012 22.012l-8.218 30.516-8.218-30.516a31.22 31.22 0 0 0-22.012-22.012l-30.51-8.224 30.516-8.218a31.22 31.22 0 0 0 22.012-22.012z"></path><g transform="translate(520.797 205.203)scale(.6074)"><filter id="d" width="149%" height="149%" x="-24.5%" y="-24.5%"><feGaussianBlur in="SourceAlpha" stdDeviation="3"></feGaussianBlur><feOffset dx="3" dy="3" result="oBlur"></feOffset><feFlood flood-color="#B10DC9" flood-opacity="1"></feFlood><feComposite in2="oBlur" operator="in"></feComposite><feMerge><feMergeNode></feMergeNode><feMergeNode in="SourceGraphic"></feMergeNode></feMerge></filter><path d="m100 0 13.53 50.24a51.4 51.4 0 0 0 36.24 36.24l50.24 13.53-50.24 13.53a51.4 51.4 0 0 0-36.24 36.24L100 200.02l-13.53-50.24a51.4 51.4 0 0 0-36.24-36.24L0 100l50.24-13.53a51.4 51.4 0 0 0 36.24-36.24z" filter="url(#d)" transform="translate(-100.005 -100.01)"></path></g></svg></svg>