<?xml version="1.0" encoding="UTF-8" standalone="no"?>
<!-- Generator: Adobe Illustrator 16.0.0, SVG Export Plug-In . SVG Version: 6.00 Build 0)  -->

<svg
   xmlns:dc="http://purl.org/dc/elements/1.1/"
   xmlns:cc="http://creativecommons.org/ns#"
   xmlns:rdf="http://www.w3.org/1999/02/22-rdf-syntax-ns#"
   xmlns:svg="http://www.w3.org/2000/svg"
   xmlns="http://www.w3.org/2000/svg"
   xmlns:sodipodi="http://sodipodi.sourceforge.net/DTD/sodipodi-0.dtd"
   xmlns:inkscape="http://www.inkscape.org/namespaces/inkscape"
   enable-background="new 0 0 1125 750"
   sodipodi:docname="Republic_of_China_Air_Forces_Flag.svg"
   xml:space="preserve"
   height="750px"
   viewBox="0 0 1125 750"
   width="1125px"
   version="1.1"
   y="0px"
   x="0px"
   inkscape:version="0.48.4 r9939"
   id="svg2"
   inkscape:export-filename="D:\網頁\kongjunx.png"
   inkscape:export-xdpi="30.24"
   inkscape:export-ydpi="30.24"><metadata
   id="metadata4"><rdf:RDF><cc:Work
       rdf:about=""><dc:format>image/svg+xml</dc:format><dc:type
         rdf:resource="http://purl.org/dc/dcmitype/StillImage" /><dc:title /></cc:Work></rdf:RDF></metadata><defs
   id="defs6">

		
		
			
			
</defs><sodipodi:namedview
   bordercolor="#666666"
   inkscape:pageshadow="2"
   guidetolerance="10"
   pagecolor="#ffffff"
   gridtolerance="10"
   inkscape:window-maximized="1"
   inkscape:zoom="1"
   objecttolerance="10"
   borderopacity="1"
   inkscape:current-layer="svg2"
   inkscape:cx="432.54022"
   inkscape:cy="389.51336"
   inkscape:window-y="-8"
   inkscape:window-x="-8"
   inkscape:window-width="1920"
   showgrid="false"
   inkscape:pageopacity="0"
   inkscape:window-height="1028"
   id="namedview8" />
<rect
   fill-opacity="0.9735"
   height="750"
   width="1125"
   y="0"
   x="0.001"
   enable-background="new    "
   fill="#3caff1"
   id="rect10"
   style="fill:#0093dd;fill-opacity:0.97350001" />
<g
   transform="matrix(-0.98625992,0.07545265,0.08501937,0.97950155,1737.8643,94.987777)"
   stroke-miterlimit="10"
   stroke-dasharray="none"
   stroke-width="2.5351553"
   id="g12">
	</g>
<path
   style="fill:#cccccc;fill-rule:nonzero;stroke:#000000;stroke-width:3;stroke-miterlimit:4;stroke-dasharray:none"
   id="path16"
   stroke-miterlimit="4"
   inkscape:connector-curvature="0"
   d="m 562.48277,83.610514 c -13.505,0 -25.263,10.991 -25.178,25.390996 -14.059,-4.5158 -27.734,3.2377 -31.866,15.933 -4.1324,12.653 1.9171,27.095 16.274,31.994 -8.563,11.886 -5.453,27.393 5.4104,35.274 10.821,7.8387 26.626,6.5181 35.359,-5.6234 8.776,12.142 24.581,13.462 35.402,5.6234 10.863,-7.8813 13.931,-23.388 5.3678,-35.274 14.357,-4.8992 20.449,-19.341 16.316,-31.994 -4.1324,-12.695 -17.85,-20.449 -31.909,-15.933 0.0853,-14.398996 -11.63,-25.390996 -25.178,-25.390996 z" /><g
   style="fill:#000000;fill-rule:nonzero;stroke-width:2.49518538;stroke-miterlimit:4;stroke-dasharray:none"
   id="g18"
   transform="matrix(1.2023155,0,0,1.2023155,-262.8989,46.461471)"><path
     style="stroke-width:2.49518538;stroke-miterlimit:4;stroke-dasharray:none"
     id="path20"
     inkscape:connector-curvature="0"
     d="m 675.76,58.252 1.1693,-0.5315 10.169,22.854 -1.1693,0.5315 z" /><path
     style="stroke-width:2.49518538;stroke-miterlimit:4;stroke-dasharray:none"
     id="path22"
     inkscape:connector-curvature="0"
     d="m 679.65,59.28 c 0.5315,1.2402 -0.0354,2.7283 -1.2756,3.2953 -1.2756,0.56693 -2.7284,0 -3.2953,-1.2756 -0.56693,-1.2756 0,-2.7283 1.2402,-3.2953 1.2756,-0.56693 2.7638,0 3.3307,1.2756 z" /><path
     style="stroke-width:2.49518538;stroke-miterlimit:4;stroke-dasharray:none"
     id="path24"
     inkscape:connector-curvature="0"
     d="m 661.72,84.083 -0.14174,-1.2756 24.839,-2.622 0.14173,1.2756 z" /><path
     style="stroke-width:2.49518538;stroke-miterlimit:4;stroke-dasharray:none"
     id="path26"
     inkscape:connector-curvature="0"
     d="m 663.89,80.682 c 1.3465,-0.14173 2.5866,0.85039 2.7284,2.2323 0.14173,1.3819 -0.85039,2.622 -2.2323,2.7638 -1.3465,0.14173 -2.5866,-0.85039 -2.7284,-2.2323 -0.14173,-1.3819 0.85039,-2.622 2.2323,-2.7638 z" /><path
     style="stroke-width:2.49518538;stroke-miterlimit:4;stroke-dasharray:none"
     id="path28"
     inkscape:connector-curvature="0"
     d="m 681.96,105.41 -1.2756,-0.28347 5.1732,-24.449 1.2756,0.28346 z" /><path
     style="stroke-width:2.49518538;stroke-miterlimit:4;stroke-dasharray:none"
     id="path30"
     inkscape:connector-curvature="0"
     d="m 679.37,102.33 c 0.28347,-1.3819 1.6299,-2.2323 2.9764,-1.9488 1.3465,0.28347 2.1968,1.6299 1.9134,2.9764 -0.28347,1.3465 -1.5945,2.1968 -2.941,1.9134 -1.3464,-0.28347 -2.2323,-1.5945 -1.9488,-2.941 z" /><path
     style="stroke-width:2.49518538;stroke-miterlimit:4;stroke-dasharray:none"
     id="path32"
     inkscape:connector-curvature="0"
     d="m 708.46,92.764 -0.6378,1.1339 -21.65,-12.508 0.67322,-1.1339 z" /><path
     style="stroke-width:2.49518538;stroke-miterlimit:4;stroke-dasharray:none"
     id="path34"
     inkscape:connector-curvature="0"
     d="m 704.74,94.252 c -1.2047,-0.70866 -1.5945,-2.2323 -0.92126,-3.437 0.70867,-1.1693 2.2323,-1.5945 3.4016,-0.88583 1.2047,0.67323 1.6299,2.1968 0.92126,3.4016 -0.67323,1.2047 -2.1968,1.5945 -3.4016,0.92126 z" /><path
     style="stroke-width:2.49518538;stroke-miterlimit:4;stroke-dasharray:none"
     id="path36"
     inkscape:connector-curvature="0"
     d="m 704.63,63.638 0.88583,0.95669 -18.567,16.724 -0.88582,-0.95669 z" /><path
     style="stroke-width:2.49518538;stroke-miterlimit:4;stroke-dasharray:none"
     id="path38"
     inkscape:connector-curvature="0"
     d="m 704.88,67.642 c -1.0276,0.92126 -2.5866,0.85039 -3.5079,-0.17716 -0.92126,-1.0276 -0.85039,-2.622 0.17717,-3.5433 1.0276,-0.92126 2.622,-0.85039 3.5433,0.17716 0.92126,1.0276 0.81497,2.622 -0.21259,3.5433 z" /><path
     style="stroke-width:2.49518538;stroke-miterlimit:4;stroke-dasharray:none"
     id="path40"
     inkscape:connector-curvature="0"
     d="m 696.09,57.721 1.1693,0.5315 -10.169,22.854 -1.1693,-0.5315 z" /><path
     style="stroke-width:2.49518538;stroke-miterlimit:4;stroke-dasharray:none"
     id="path42"
     inkscape:connector-curvature="0"
     d="m 697.94,61.3 c -0.56693,1.2756 -2.0551,1.8425 -3.2953,1.2756 -1.2756,-0.56693 -1.8425,-2.0551 -1.2756,-3.2953 0.56693,-1.2756 2.0551,-1.8425 3.2953,-1.2756 1.2756,0.56693 1.8425,2.0197 1.2756,3.2953 z" /><path
     style="stroke-width:2.49518538;stroke-miterlimit:4;stroke-dasharray:none"
     id="path44"
     inkscape:connector-curvature="0"
     d="m 667.5,64.595 0.85039,-0.95669 18.602,16.724 -0.88582,0.95669 z" /><path
     style="stroke-width:2.49518538;stroke-miterlimit:4;stroke-dasharray:none"
     id="path46"
     inkscape:connector-curvature="0"
     d="m 671.47,63.922 c 1.0276,0.92126 1.0984,2.5157 0.17717,3.5433 -0.92126,1.0276 -2.5158,1.0984 -3.5433,0.17716 -1.0276,-0.92126 -1.0984,-2.5157 -0.17717,-3.5433 0.92126,-1.0276 2.5158,-1.0984 3.5433,-0.17716 z" /><path
     style="stroke-width:2.49518538;stroke-miterlimit:4;stroke-dasharray:none"
     id="path48"
     inkscape:connector-curvature="0"
     d="m 665.2,93.898 -0.67323,-1.1339 21.65,-12.508 0.67322,1.1339 z" /><path
     style="stroke-width:2.49518538;stroke-miterlimit:4;stroke-dasharray:none"
     id="path50"
     inkscape:connector-curvature="0"
     d="m 665.76,89.93 c 1.2047,-0.70866 2.7283,-0.28346 3.437,0.88583 0.67323,1.2047 0.28347,2.7283 -0.92126,3.437 -1.2047,0.67323 -2.7283,0.28346 -3.4016,-0.92126 -0.70866,-1.2047 -0.28347,-2.7283 0.88583,-3.4016 z" /><path
     style="stroke-width:2.49518538;stroke-miterlimit:4;stroke-dasharray:none"
     id="path52"
     inkscape:connector-curvature="0"
     d="m 692.34,105.13 -1.2756,0.28347 -5.2087,-24.449 1.2756,-0.28346 z" /><path
     style="stroke-width:2.49518538;stroke-miterlimit:4;stroke-dasharray:none"
     id="path54"
     inkscape:connector-curvature="0"
     d="m 688.72,103.36 c -0.28347,-1.3465 0.60236,-2.6929 1.9488,-2.9764 1.3464,-0.28346 2.6575,0.56693 2.9409,1.9488 0.28346,1.3465 -0.56693,2.6575 -1.9134,2.941 -1.3464,0.28346 -2.6929,-0.56693 -2.9764,-1.9134 z" /><path
     style="stroke-width:2.49518538;stroke-miterlimit:4;stroke-dasharray:none"
     id="path56"
     inkscape:connector-curvature="0"
     d="m 711.44,82.808 -0.14173,1.2756 -24.874,-2.622 0.14173,-1.2756 z" /><path
     style="stroke-width:2.49518538;stroke-miterlimit:4;stroke-dasharray:none"
     id="path58"
     inkscape:connector-curvature="0"
     d="m 708.6,85.678 c -1.3465,-0.14173 -2.3386,-1.3819 -2.1968,-2.7638 0.14173,-1.3819 1.3464,-2.374 2.7283,-2.2323 1.3819,0.14173 2.374,1.3819 2.2323,2.7638 -0.14174,1.3819 -1.3819,2.374 -2.7638,2.2323 z" /><path
     style="stroke-width:2.49518538;stroke-miterlimit:4;stroke-dasharray:none"
     id="path60"
     inkscape:connector-curvature="0"
     d="m 685.61,45.815 1.8071,0 0,35.008 -1.8071,0 z" /><path
     style="stroke-width:2.49518538;stroke-miterlimit:4;stroke-dasharray:none"
     id="path62"
     inkscape:connector-curvature="0"
     d="m 690,49.323 c 0,1.9488 -1.5591,3.5079 -3.5079,3.5079 -1.9134,0 -3.4724,-1.5591 -3.4724,-3.5079 0,-1.9134 1.5591,-3.5079 3.4724,-3.5079 1.9488,0 3.5079,1.5945 3.5079,3.5079 z" /><path
     style="stroke-width:2.49518538;stroke-miterlimit:4;stroke-dasharray:none"
     id="path64"
     inkscape:connector-curvature="0"
     d="m 652.94,70.867 0.56692,-1.7008 33.272,10.807 -0.56693,1.7362 z" /><path
     style="stroke-width:2.49518538;stroke-miterlimit:4;stroke-dasharray:none"
     id="path66"
     inkscape:connector-curvature="0"
     d="m 657.61,67.784 c 1.8425,0.56693 2.8701,2.5512 2.2677,4.3937 -0.60237,1.8425 -2.5866,2.8346 -4.4291,2.2323 -1.8425,-0.56693 -2.8346,-2.5512 -2.2323,-4.3937 0.60236,-1.8425 2.5866,-2.8346 4.3937,-2.2323 z" /><path
     style="stroke-width:2.49518538;stroke-miterlimit:4;stroke-dasharray:none"
     id="path68"
     inkscape:connector-curvature="0"
     d="m 666.68,109.67 -1.4882,-1.063 20.587,-28.311 1.4528,1.063 z" /><path
     style="stroke-width:2.49518538;stroke-miterlimit:4;stroke-dasharray:none"
     id="path70"
     inkscape:connector-curvature="0"
     d="m 665.16,104.24 c 1.1339,-1.5591 3.3307,-1.9134 4.8898,-0.7441 1.559,1.1339 1.9134,3.2953 0.77953,4.8543 -1.1339,1.5945 -3.3307,1.9134 -4.8898,0.77953 -1.559,-1.1339 -1.9134,-3.3307 -0.77953,-4.8898 z" /><path
     style="stroke-width:2.49518538;stroke-miterlimit:4;stroke-dasharray:none"
     id="path72"
     inkscape:connector-curvature="0"
     d="m 707.82,108.6 -1.4882,1.063 -20.551,-28.311 1.4528,-1.063 z" /><path
     style="stroke-width:2.49518538;stroke-miterlimit:4;stroke-dasharray:none"
     id="path74"
     inkscape:connector-curvature="0"
     d="m 702.19,108.35 c -1.1339,-1.559 -0.77952,-3.7205 0.77953,-4.8543 1.5591,-1.1693 3.7559,-0.81496 4.8898,0.7441 1.1339,1.559 0.77953,3.7559 -0.77952,4.8898 -1.5591,1.1339 -3.7559,0.81496 -4.8898,-0.77953 z" /><path
     style="stroke-width:2.49518538;stroke-miterlimit:4;stroke-dasharray:none"
     id="path76"
     inkscape:connector-curvature="0"
     d="m 719.52,69.166 0.56693,1.7008 -33.307,10.843 -0.56693,-1.7362 z" /><path
     style="stroke-width:2.49518538;stroke-miterlimit:4;stroke-dasharray:none"
     id="path78"
     inkscape:connector-curvature="0"
     d="m 717.53,74.41 c -1.8071,0.60236 -3.7913,-0.38976 -4.3937,-2.2323 -0.60236,-1.8425 0.38977,-3.8268 2.2323,-4.3937 1.8425,-0.60236 3.8268,0.38976 4.4291,2.2323 0.60236,1.8425 -0.4252,3.8268 -2.2677,4.3937 z" /><path
     style="stroke-width:2.49518538;stroke-miterlimit:4;stroke-dasharray:none"
     id="path80"
     inkscape:connector-curvature="0"
     d="m 695,80.823 c 0,4.7126 -3.7913,8.5039 -8.5039,8.5039 -4.6772,0 -8.5039,-3.7913 -8.5039,-8.5039 0,-4.6772 3.8268,-8.5039 8.5039,-8.5039 4.7126,0 8.5039,3.8268 8.5039,8.5039 z" /></g><path
   style="fill:#cccccc;stroke:#000000;stroke-width:3;stroke-miterlimit:4;stroke-dasharray:none"
   id="path84"
   stroke-miterlimit="7"
   inkscape:connector-curvature="0"
   sodipodi:nodetypes="sssssssss"
   d="m 555.05175,631.51597 c 0,1.2206 2.8377,2.2111 6.3408,2.2111 h 2.5066 c 3.503,0 6.3422,-0.98983 6.3422,-2.2111 v -17.686 c 0,-1.2206 -2.8392,-2.2111 -6.3422,-2.2111 h -2.5066 c -3.503,0 -6.3408,0.98982 -6.3408,2.2111 z" /><path
   d="m 570.06175,632.02597 c -0.66509,0.96821 -3.1611,1.6875 -6.1562,1.6875 h -0.34375 l -0.9375,0.375 c 7.4513,11.377 17.823,17.159 29.406,21.875 10.608,4.3188 22.028,8.5357 34.375,10.656 l 7.3438,-12.406 c -12.269,-3.7192 -23.647,-6.1071 -37.188,-11.25 -0.03,-0.0138 -0.0639,-0.0173 -0.0937,-0.0312 -9.3522,-1.8837 -19.516,-5.7036 -26.406,-10.906 z"
   inkscape:connector-curvature="0"
   stroke-miterlimit="7"
   id="path88"
   style="fill:#cccccc;stroke:#000000;stroke-width:3;stroke-miterlimit:4;stroke-dasharray:none" /><path
   d="m 617.03175,612.08597 c -3.5072,-0.0186 -6.9562,0.22529 -10.219,0.78125 -11.241,1.9156 -27.6,5.7939 -36.562,10.906 v 7.75 c 0,0.17213 -0.0808,0.33919 -0.1875,0.5 11.766,8.8844 33.075,13.747 43.562,11.781 15.649,-2.9336 47.425,-15.047 59.844,-11.188 -3.4282,-7.4941 -31.887,-20.401 -56.438,-20.531 z"
   inkscape:connector-curvature="0"
   stroke-miterlimit="10"
   id="path90"
   style="fill:#cccccc;stroke:#000000;stroke-width:3;stroke-miterlimit:4;stroke-dasharray:none" /><path
   d="m 683.09175,556.27597 c -10.233,13.99 -42.51,35.545 -53.656,36.469 -11.351,0.9405 -47.498,13.855 -59.188,22.844 v 6.875 c 0.32265,0.25879 0.64909,0.52924 1,0.78125 9.1355,-4.8478 24.718,-8.5271 35.562,-10.375 13.264,-2.2603 29.253,0.66882 42.281,5.2188 21.764,-21.056 35.926,-54.235 34,-61.812 z"
   inkscape:connector-curvature="0"
   stroke-miterlimit="10"
   id="path92"
   style="fill:#cccccc;stroke:#000000;stroke-width:3;stroke-miterlimit:4;stroke-dasharray:none" /><path
   d="m 734.56175,500.71597 c -10.234,13.954 -38.288,52.264 -51.656,60.594 -3.7e-4,0.002 -0.0309,-0.002 -0.0312,0 -1.5367,8.1484 -7.7898,22.652 -17.25,36.719 12.98,-2.8024 27.011,-4.598 40.281,-5.6562 12.478,-21.986 29.087,-63.665 28.656,-91.656 z"
   sodipodi:nodetypes="cccccc"
   inkscape:connector-curvature="0"
   stroke-miterlimit="10"
   id="path94"
   style="fill:#cccccc;stroke:#000000;stroke-width:3;stroke-miterlimit:4;stroke-dasharray:none" /><path
   d="m 799.94175,491.83597 c -6.7805,16.898 -51.246,59.375 -75.312,58.219 -5.5932,16.207 -12.637,31.597 -18.719,42.312 7.8265,-0.62413 15.39,-0.99452 22.312,-1.1562 15.01,-3.3701 38.162,-19.378 47.875,-33.125 14.325,-18.205 27.55,-49.33 23.844,-66.25 z"
   sodipodi:nodetypes="cccccc"
   inkscape:connector-curvature="0"
   stroke-miterlimit="10"
   id="path96"
   style="fill:#cccccc;stroke:#000000;stroke-width:3;stroke-miterlimit:4;stroke-dasharray:none" /><path
   d="m 728.15175,607.80597 c -0.38605,0.86328 -0.81398,1.4636 -1.25,1.6875 -11.965,2.0937 -25.315,4.5477 -38.688,7.9062 -7.7153,13.993 -18.491,28.27 -30.219,36.781 11.752,2.0764 25.509,-3.8633 41.094,-14.062 7.9706,-6.2426 24.301,-20.487 29.062,-32.312 z"
   inkscape:connector-curvature="0"
   stroke-miterlimit="10"
   id="path98"
   style="fill:#cccccc;stroke:#000000;stroke-width:3;stroke-miterlimit:4;stroke-dasharray:none" /><path
   d="m 728.22175,591.21597 c -18.661,0.43596 -41.959,2.3573 -62.594,6.8125 -4.7667,7.086 -10.338,14.071 -16.531,20.062 5.7028,1.9919 10.844,4.2787 14.938,6.5938 20.761,-7.5203 43.612,-11.817 62.875,-15.188 2.3255,-1.1941 4.4009,-13.123 1.3125,-18.281 z"
   inkscape:connector-curvature="0"
   stroke-miterlimit="7"
   id="path100"
   style="fill:#cccccc;stroke:#000000;stroke-width:3;stroke-miterlimit:4;stroke-dasharray:none" /><path
   d="m 750.09175,238.24597 c 11.504,14.068 36.527,58.053 31.969,101.03 -4.23,39.885 -7.0595,48.984 -18.562,94.469 -3.0583,12.093 -18.787,59.703 -31.312,89.156 -1.7806,8.8626 -4.441,18.137 -7.5625,27.156 9.7351,0.46781 22.809,-6.2072 35.375,-15.438 5.9682,-14.513 16.797,-45.347 21.372,-62.719 9.2256,-35.029 15.637,-58.192 19.313,-80.409 3.4089,-20.602 7.1659,-89.397 0.47088,-104.84 -8.106,-21.701 -28.265,-43.205 -51.062,-48.406 z"
   sodipodi:nodetypes="csscccsscc"
   inkscape:connector-curvature="0"
   stroke-miterlimit="10"
   id="path102"
   style="fill:#cccccc;stroke:#000000;stroke-width:3;stroke-miterlimit:4;stroke-dasharray:none" /><path
   d="m 843.82175,222.17597 c -20.231,1.3512 -39.925,13.018 -48.031,34.719 -1.1774,2.716 -2.1692,7.4529 -3,13.5 0.0546,0.0824 0.10195,0.16743 0.15625,0.25 0.37613,0.5717 0.73255,1.1408 1.0938,1.7188 0.0514,0.0822 0.10518,0.16766 0.15625,0.25 0.77021,1.2416 1.5209,2.5165 2.2188,3.7812 0.029,0.0527 0.0649,0.10355 0.0937,0.15625 0.70948,1.2947 1.3712,2.5951 2,3.9062 0.0161,0.0336 0.0464,0.0601 0.0625,0.0937 0.31141,0.65062 0.61563,1.3155 0.90625,1.9688 0.009,0.0211 0.0219,0.0414 0.0312,0.0625 0.29535,0.66554 0.57061,1.3327 0.84375,2 0.2805,0.68613 0.55586,1.3755 0.8125,2.0625 0.20922,0.48261 0.40461,1.01 0.59375,1.5938 5.8632,18.095 2.2399,83.291 -1.0625,103.25 -3.6761,22.217 -10.087,45.377 -19.312,80.406 -4.5717,17.358 -15.373,48.16 -21.344,62.688 9.4262,-6.9279 18.552,-15.287 25.781,-23.156 3.2848,-6.6622 6.7231,-15.14 9.6562,-26.406 3.6056,-12.128 8.3259,-28.484 13.594,-57.5 6.4629,-41.635 7.9057,-64.415 4.5312,-112 1.5561,-45.796 16.153,-75.179 30.219,-93.344 z"
   inkscape:connector-curvature="0"
   stroke-miterlimit="10"
   id="path104"
   style="fill:#cccccc;stroke:#000000;stroke-width:3;stroke-miterlimit:4;stroke-dasharray:none" /><path
   d="m 809.42175,254.59597 c -5.1353,7.857 -8.8182,16.82 -10.299,27.127"
   inkscape:transform-center-x="8.82996"
   inkscape:transform-center-y="92.695405"
   inkscape:connector-curvature="0"
   stroke-miterlimit="10"
   sodipodi:nodetypes="cc"
   id="path106"
   style="fill:none;stroke:#000000;stroke-width:3;stroke-linecap:round;stroke-linejoin:round;stroke-miterlimit:4;stroke-dasharray:none" /><path
   d="m 770.14175,544.14597 c -9.1365,12.131 -41.043,31.167 -54.986,30.46"
   inkscape:transform-center-x="13.197525"
   inkscape:transform-center-y="92.17501"
   inkscape:connector-curvature="0"
   stroke-miterlimit="10"
   sodipodi:nodetypes="cc"
   id="path108"
   style="fill:none;stroke:#000000;stroke-width:3;stroke-linecap:round;stroke-linejoin:round;stroke-miterlimit:4;stroke-dasharray:none" /><path
   d="m 716.01175,543.37597 c -7.2116,16.409 -27.141,41.647 -36.806,51.634"
   inkscape:transform-center-x="13.197525"
   inkscape:transform-center-y="92.17501"
   inkscape:connector-curvature="0"
   stroke-miterlimit="10"
   sodipodi:nodetypes="cc"
   id="path110"
   style="fill:none;stroke:#000000;stroke-width:3;stroke-linecap:round;stroke-linejoin:round;stroke-miterlimit:4;stroke-dasharray:none" /><path
   d="m 705.43175,614.28597 c -5.2867,9.9921 -16.875,20.901 -23.973,26.183"
   inkscape:transform-center-x="13.197525"
   inkscape:transform-center-y="92.17501"
   inkscape:connector-curvature="0"
   stroke-miterlimit="10"
   sodipodi:nodetypes="cc"
   id="path112"
   style="fill:none;stroke:#000000;stroke-width:3;stroke-linecap:round;stroke-linejoin:round;stroke-miterlimit:4;stroke-dasharray:none" /><path
   d="m 659.23175,593.42597 c -6.9977,7.6395 -21.58,17.051 -28.893,19.766"
   inkscape:transform-center-x="13.197525"
   inkscape:transform-center-y="92.17501"
   inkscape:connector-curvature="0"
   stroke-miterlimit="10"
   sodipodi:nodetypes="cc"
   id="path114"
   style="fill:none;stroke:#000000;stroke-width:3;stroke-linecap:round;stroke-linejoin:round;stroke-miterlimit:4;stroke-dasharray:none" /><path
   d="m 728.89175,599.64597 c -22.815,0.57509 -58.948,8.8026 -73.38,12.067"
   inkscape:transform-center-x="13.197525"
   inkscape:transform-center-y="92.17501"
   inkscape:connector-curvature="0"
   stroke-miterlimit="10"
   sodipodi:nodetypes="cc"
   id="path116"
   style="fill:none;stroke:#000000;stroke-width:3;stroke-linecap:round;stroke-linejoin:round;stroke-miterlimit:4;stroke-dasharray:none" /><path
   d="m 619.13175,627.22597 c -14.154,-2.4064 -32.163,-0.67214 -48.356,-0.55235"
   inkscape:transform-center-x="13.197525"
   inkscape:transform-center-y="92.17501"
   inkscape:connector-curvature="0"
   stroke-miterlimit="10"
   sodipodi:nodetypes="cc"
   id="path118"
   style="fill:none;stroke:#000000;stroke-width:3;stroke-linecap:round;stroke-linejoin:round;stroke-miterlimit:4;stroke-dasharray:none" /><path
   d="m 780.07175,272.50597 c 37.877,38.282 -18.144,228.25 -41.291,274.44"
   inkscape:transform-center-x="13.197525"
   inkscape:transform-center-y="92.17501"
   inkscape:connector-curvature="0"
   stroke-miterlimit="10"
   sodipodi:nodetypes="cc"
   id="path120"
   style="fill:none;stroke:#000000;stroke-width:3;stroke-linecap:round;stroke-linejoin:round;stroke-miterlimit:4;stroke-dasharray:none" /><g
   stroke-miterlimit="10"
   id="g122"
   style="fill:#cccccc;stroke:#000000;stroke-width:3;stroke-miterlimit:4;stroke-dasharray:none"
   transform="translate(-2.29825,-2.014027)"><path
     d="m 738.25,196.94 -0.625,1.0312 c 0.13117,1.6184 0.16586,3.3102 0.15625,5.0625 0.31456,1.3729 0.34816,2.6262 -0.0312,3.6875 -0.66144,1.8496 -2.9742,2.5113 -5.9062,2.3438 -0.24868,0.14258 -0.50245,0.26941 -0.75,0.40625 13.423,3.4928 30.044,21.614 44.531,42.031 7.6412,5.7799 14.359,13.154 19.625,21.156 -0.0543,-0.0826 -0.10165,-0.1676 -0.15625,-0.25 0.45931,-3.3431 0.96938,-6.2654 1.5312,-8.6875 -14.57,-27.85 -40.45,-56.42 -58.36,-66.78 z"
     sodipodi:nodetypes="ccccccccccc"
     inkscape:connector-curvature="0"
     id="path124"
     style="stroke-width:3;stroke-miterlimit:4;stroke-dasharray:none;fill:#cccccc" /><path
     d="m 630.76,130.74 c 8.6267,-2.4505 28.79,8.0313 27.681,33.189 -16.613,-2.828 -28.923,-25.759 -27.681,-33.189 z"
     sodipodi:nodetypes="ccc"
     inkscape:connector-curvature="0"
     id="path126"
     style="stroke-width:3;stroke-miterlimit:4;stroke-dasharray:none;fill:#cccccc" /><path
     d="m 616.19,169.83 c 4.806,7.5715 26.83,13.173 42.75,-6.3387 -14.279,-8.9492 -38.731,-0.0328 -42.75,6.3387 z"
     sodipodi:nodetypes="ccc"
     inkscape:connector-curvature="0"
     id="path128"
     style="stroke-width:3;stroke-miterlimit:4;stroke-dasharray:none;fill:#cccccc" /><path
     d="m 634.65,142.67 c -5.9388,0.22979 -11.25,2.8438 -11.25,2.8438 0,0 0.28772,13.459 11.406,17.688 3.4074,1.2971 6.9633,2.1558 10,2.1562 -5.2034,-5.8564 -5.6562,-13.969 -5.6562,-13.969 0,0 4.2464,-2.1351 9.4062,-2.5625 -1.5826,-1.7366 -3.5832,-3.2992 -5.875,-4.5312 -2.5126,-1.351 -5.3318,-1.7294 -8.0312,-1.625 z"
     inkscape:connector-curvature="0"
     id="path130"
     style="stroke-width:3;stroke-miterlimit:4;stroke-dasharray:none;fill:#cccccc" /><path
     d="m 654.54,137.58 c 7.7024,-1.8618 26.109,8.7195 24.284,32.715 -17.895,-1.3152 -24.663,-25.636 -24.284,-32.715 z"
     sodipodi:nodetypes="ccc"
     inkscape:connector-curvature="0"
     id="path132"
     style="stroke-width:3;stroke-miterlimit:4;stroke-dasharray:none;fill:#cccccc" /><path
     d="m 637.53,179.43 c 4.2229,6.7052 24.795,11.954 40.218,-6.5183 -13.744,-11.535 -35.554,1.1793 -40.218,6.5183 z"
     sodipodi:nodetypes="ccc"
     inkscape:connector-curvature="0"
     id="path134"
     style="stroke-width:3;stroke-miterlimit:4;stroke-dasharray:none;fill:#cccccc" /><path
     d="m 650.06,148.76 c -5.8096,0.0753 -10.906,2.625 -10.906,2.625 0,0 0.76471,13.754 11.812,18.375 4.5661,1.9101 9.3761,3.0135 12.75,2.2188 -3.3283,-5.14 -4.0625,-10.562 -4.0625,-10.562 0,0 2.8697,-1.5624 6.8125,-2.375 -1.7772,-3.1964 -4.7327,-6.2216 -8.4688,-8.375 -2.511,-1.4478 -5.2968,-1.9405 -7.9375,-1.9062 z"
     inkscape:connector-curvature="0"
     id="path136"
     style="stroke-width:3;stroke-miterlimit:4;stroke-dasharray:none;fill:#cccccc" /><path
     d="m 677.39,148.22 c 7.5907,-1.8198 23.628,8.0994 21.875,34.373 -15.628,-3.3453 -22.532,-26.67 -21.875,-34.373 z"
     sodipodi:nodetypes="ccc"
     inkscape:connector-curvature="0"
     id="path138"
     style="stroke-width:3;stroke-miterlimit:4;stroke-dasharray:none;fill:#cccccc" /><path
     d="m 658.32,188.25 c 3.4212,7.0162 21.273,13.089 40.439,-4.9682 -12.518,-9.9361 -34.911,-0.43604 -40.439,4.9682 z"
     sodipodi:nodetypes="ccc"
     inkscape:connector-curvature="0"
     id="path140"
     style="stroke-width:3;stroke-miterlimit:4;stroke-dasharray:none;fill:#cccccc" /><path
     d="m 698.23,157.53 c 7.5654,-0.20314 22.27,13.587 20.456,35.236 -16.733,-6.2456 -21.671,-29.241 -20.456,-35.236 z"
     sodipodi:nodetypes="ccc"
     inkscape:connector-curvature="0"
     id="path142"
     style="stroke-width:3;stroke-miterlimit:4;stroke-dasharray:none;fill:#cccccc" /><path
     d="m 670.24,158.57 c -5.7483,0.19957 -10.594,2.8438 -10.594,2.8438 0,0 1.9145,13.861 13.25,18.281 4.9879,1.9447 10.211,2.9413 13.469,1.75 -2.3509,-4.415 -3,-8.4062 -3,-8.4062 0,0 2.1904,-1.1501 5.3438,-1.9375 -1.7534,-4.0821 -5.5352,-8.1737 -10.438,-10.812 -2.6108,-1.4053 -5.4184,-1.8095 -8.0312,-1.7188 z"
     inkscape:connector-curvature="0"
     id="path144"
     style="stroke-width:3;stroke-miterlimit:4;stroke-dasharray:none;fill:#cccccc" /><path
     d="m 677.21,197.94 c 3.9301,6.4677 23.489,11.35 40.698,-1.9092 -13.514,-13.091 -36.022,-3.2544 -40.698,1.9092 z"
     sodipodi:nodetypes="ccc"
     inkscape:connector-curvature="0"
     id="path146"
     style="stroke-width:3;stroke-miterlimit:4;stroke-dasharray:none;fill:#cccccc" /><path
     d="m 693.9,170.39 c -5.7438,0.0847 -10.531,2.6562 -10.531,2.6562 0,0 2.2215,13.882 13.656,18.531 3.9708,1.6145 8.0814,2.6576 11.219,2.4688 -3.017,-4.7195 -4.0938,-8.6562 -4.0938,-8.6562 0,0 3.6676,-1.8256 8.4375,-2.2188 -1.8661,-4.0796 -5.7133,-8.1635 -10.625,-10.875 -2.6421,-1.4581 -5.4517,-1.9448 -8.0625,-1.9062 z"
     inkscape:connector-curvature="0"
     id="path148"
     style="stroke-width:3;stroke-miterlimit:4;stroke-dasharray:none;fill:#cccccc" /><path
     d="m 737.73,206.74 c -1.6062,4.4914 -12.79,1.9873 -19.509,-2.4325 -10.965,-7.2124 -14.059,-18.924 -14.059,-18.924 0,0 10.09,-5.0716 18.662,-0.14979 8.3318,4.7862 16.912,15.894 14.906,21.506 z"
     inkscape:connector-curvature="0"
     id="path150"
     style="stroke-width:3;stroke-miterlimit:4;stroke-dasharray:none;fill:#cccccc" /><path
     d="m 717.33,168.94 c 7.1621,-1.1441 21.035,10.705 20.456,35.236 -15.756,-5.5338 -21.581,-28.818 -20.456,-35.236 z"
     sodipodi:nodetypes="ccc"
     inkscape:connector-curvature="0"
     id="path152"
     style="stroke-width:3;stroke-miterlimit:4;stroke-dasharray:none;fill:#cccccc" /><path
     d="m 737.73,206.74 c -1.6062,4.4914 -12.79,1.9873 -19.509,-2.4325 -10.965,-7.2124 -14.059,-18.924 -14.059,-18.924 0,0 10.09,-5.0716 18.662,-0.14979 8.3318,4.7862 16.912,15.894 14.906,21.506 z"
     inkscape:connector-curvature="0"
     id="path154"
     style="stroke-width:3;stroke-miterlimit:4;stroke-dasharray:none;fill:#cccccc" /><path
     d="m 696.4,208.77 c 3.108,6.5533 20.726,11.291 40.628,-3.0629 -13.476,-9.8625 -35.972,-1.4954 -40.628,3.0629 z"
     sodipodi:nodetypes="ccc"
     inkscape:connector-curvature="0"
     id="path156"
     style="stroke-width:3;stroke-miterlimit:4;stroke-dasharray:none;fill:#cccccc" /><path
     d="m 737.73,206.74 c -1.6062,4.4914 -12.79,1.9873 -19.509,-2.4325 -10.965,-7.2124 -14.059,-18.924 -14.059,-18.924 0,0 10.09,-5.0716 18.662,-0.14979 8.3318,4.7862 16.912,15.894 14.906,21.506 z"
     inkscape:connector-curvature="0"
     id="path158"
     style="stroke-width:3;stroke-miterlimit:4;stroke-dasharray:none;fill:#cccccc" /></g><path
   d="m 554.9383,632.32568 c 0.66509,0.96821 3.1611,1.6875 6.1562,1.6875 h 0.34375 l 0.9375,0.375 c -7.4513,11.377 -17.823,17.159 -29.406,21.875 -10.608,4.3188 -22.028,8.5357 -34.375,10.656 l -7.3438,-12.406 c 12.269,-3.7192 23.647,-6.1071 37.188,-11.25 0.03,-0.0138 0.0639,-0.0173 0.0937,-0.0312 9.3522,-1.8837 19.516,-5.7036 26.406,-10.906 z"
   inkscape:connector-curvature="0"
   stroke-miterlimit="7"
   id="path162"
   style="fill:#cccccc;stroke:#000000;stroke-width:3;stroke-miterlimit:4;stroke-dasharray:none" /><path
   d="m 507.9683,612.38568 c 3.5072,-0.0186 6.9562,0.22529 10.219,0.78125 11.241,1.9156 27.6,5.7939 36.562,10.906 v 7.75 c 0,0.17213 0.0808,0.33919 0.1875,0.5 -11.766,8.8844 -33.075,13.747 -43.562,11.781 -15.649,-2.9336 -47.425,-15.047 -59.844,-11.188 3.4282,-7.4941 31.887,-20.401 56.438,-20.531 z"
   inkscape:connector-curvature="0"
   stroke-miterlimit="10"
   id="path164"
   style="fill:#cccccc;stroke:#000000;stroke-width:3;stroke-miterlimit:4;stroke-dasharray:none" /><path
   d="m 441.9083,556.57568 c 10.233,13.99 42.51,35.545 53.656,36.469 11.351,0.9405 47.498,13.855 59.188,22.844 v 6.875 c -0.32265,0.25879 -0.64909,0.52924 -1,0.78125 -9.1355,-4.8478 -24.718,-8.5271 -35.562,-10.375 -13.264,-2.2603 -29.253,0.66882 -42.281,5.2188 -21.764,-21.056 -35.926,-54.235 -34,-61.812 z"
   inkscape:connector-curvature="0"
   stroke-miterlimit="10"
   id="path166"
   style="fill:#cccccc;stroke:#000000;stroke-width:3;stroke-miterlimit:4;stroke-dasharray:none" /><path
   d="m 390.4383,501.01568 c 10.234,13.954 38.288,52.264 51.656,60.594 3.7e-4,0.002 0.0309,-0.002 0.0312,0 1.5367,8.1484 7.7898,22.652 17.25,36.719 -12.98,-2.8024 -27.011,-4.598 -40.281,-5.6562 -12.478,-21.986 -29.087,-63.665 -28.656,-91.656 z"
   sodipodi:nodetypes="cccccc"
   inkscape:connector-curvature="0"
   stroke-miterlimit="10"
   id="path168"
   style="fill:#cccccc;stroke:#000000;stroke-width:3;stroke-miterlimit:4;stroke-dasharray:none" /><path
   d="m 325.0583,492.13568 c 6.7805,16.898 51.246,59.375 75.312,58.219 5.5932,16.207 12.637,31.597 18.719,42.312 -7.8265,-0.62413 -15.39,-0.99452 -22.312,-1.1562 -15.01,-3.3701 -38.162,-19.378 -47.875,-33.125 -14.325,-18.205 -27.55,-49.33 -23.844,-66.25 z"
   sodipodi:nodetypes="cccccc"
   inkscape:connector-curvature="0"
   stroke-miterlimit="10"
   id="path170"
   style="fill:#cccccc;stroke:#000000;stroke-width:3;stroke-miterlimit:4;stroke-dasharray:none" /><path
   d="m 396.8483,608.10568 c 0.38605,0.86328 0.81398,1.4636 1.25,1.6875 11.965,2.0937 25.315,4.5477 38.688,7.9062 7.7153,13.993 18.491,28.27 30.219,36.781 -11.752,2.0764 -25.509,-3.8633 -41.094,-14.062 -7.9706,-6.2426 -24.301,-20.487 -29.062,-32.312 z"
   inkscape:connector-curvature="0"
   stroke-miterlimit="10"
   id="path172"
   style="fill:#cccccc;stroke:#000000;stroke-width:3;stroke-miterlimit:4;stroke-dasharray:none" /><path
   d="m 396.7783,591.51568 c 18.661,0.43596 41.959,2.3573 62.594,6.8125 4.7667,7.086 10.338,14.071 16.531,20.062 -5.7028,1.9919 -10.844,4.2787 -14.938,6.5938 -20.761,-7.5203 -43.612,-11.817 -62.875,-15.188 -2.3255,-1.1941 -4.4009,-13.123 -1.3125,-18.281 z"
   inkscape:connector-curvature="0"
   stroke-miterlimit="7"
   id="path174"
   style="fill:#cccccc;stroke:#000000;stroke-width:3;stroke-miterlimit:4;stroke-dasharray:none" /><path
   d="m 374.9083,238.54568 c -11.504,14.068 -36.527,58.053 -31.969,101.03 4.23,39.885 7.0595,48.984 18.562,94.469 3.0583,12.093 18.787,59.703 31.312,89.156 1.7806,8.8626 4.441,18.137 7.5625,27.156 -9.7351,0.46781 -22.809,-6.2072 -35.375,-15.438 -5.9682,-14.513 -16.797,-45.347 -21.372,-62.719 -9.2256,-35.029 -15.637,-58.192 -19.313,-80.409 -3.4089,-20.602 -7.1659,-89.397 -0.47088,-104.84 8.106,-21.701 28.265,-43.205 51.062,-48.406 z"
   sodipodi:nodetypes="csscccsscc"
   inkscape:connector-curvature="0"
   stroke-miterlimit="10"
   id="path176"
   style="fill:#cccccc;stroke:#000000;stroke-width:3;stroke-miterlimit:4;stroke-dasharray:none" /><path
   d="m 281.1783,222.47568 c 20.231,1.3512 39.925,13.018 48.031,34.719 1.1774,2.716 2.1692,7.4529 3,13.5 -0.0546,0.0824 -0.10195,0.16743 -0.15625,0.25 -0.37613,0.5717 -0.73255,1.1408 -1.0938,1.7188 -0.0514,0.0822 -0.10518,0.16766 -0.15625,0.25 -0.77021,1.2416 -1.5209,2.5165 -2.2188,3.7812 -0.029,0.0527 -0.0649,0.10355 -0.0937,0.15625 -0.70948,1.2947 -1.3712,2.5951 -2,3.9062 -0.0161,0.0336 -0.0464,0.0601 -0.0625,0.0937 -0.31141,0.65062 -0.61563,1.3155 -0.90625,1.9688 -0.009,0.0211 -0.0219,0.0414 -0.0312,0.0625 -0.29535,0.66554 -0.57061,1.3327 -0.84375,2 -0.2805,0.68613 -0.55586,1.3755 -0.8125,2.0625 -0.20922,0.48261 -0.40461,1.01 -0.59375,1.5938 -5.8632,18.095 -2.2399,83.291 1.0625,103.25 3.6761,22.217 10.087,45.377 19.312,80.406 4.5717,17.358 15.373,48.16 21.344,62.688 -9.4262,-6.9279 -18.552,-15.287 -25.781,-23.156 -3.2848,-6.6622 -6.7231,-15.14 -9.6562,-26.406 -3.6056,-12.128 -8.3259,-28.484 -13.594,-57.5 -6.4629,-41.635 -7.9057,-64.415 -4.5312,-112 -1.5561,-45.796 -16.153,-75.179 -30.219,-93.344 z"
   inkscape:connector-curvature="0"
   stroke-miterlimit="10"
   id="path178"
   style="fill:#cccccc;stroke:#000000;stroke-width:3;stroke-miterlimit:4;stroke-dasharray:none" /><path
   d="m 315.5783,254.89568 c 5.1353,7.857 8.8182,16.82 10.299,27.127"
   inkscape:transform-center-x="8.82996"
   inkscape:transform-center-y="92.695405"
   inkscape:connector-curvature="0"
   stroke-miterlimit="10"
   sodipodi:nodetypes="cc"
   id="path180"
   style="fill:none;stroke:#000000;stroke-width:3;stroke-linecap:round;stroke-linejoin:round;stroke-miterlimit:4;stroke-dasharray:none" /><path
   d="m 354.8583,544.44568 c 9.1365,12.131 41.043,31.167 54.986,30.46"
   inkscape:transform-center-x="13.197525"
   inkscape:transform-center-y="92.17501"
   inkscape:connector-curvature="0"
   stroke-miterlimit="10"
   sodipodi:nodetypes="cc"
   id="path182"
   style="fill:none;stroke:#000000;stroke-width:3;stroke-linecap:round;stroke-linejoin:round;stroke-miterlimit:4;stroke-dasharray:none" /><path
   d="m 408.9883,543.67568 c 7.2116,16.409 27.141,41.647 36.806,51.634"
   inkscape:transform-center-x="13.197525"
   inkscape:transform-center-y="92.17501"
   inkscape:connector-curvature="0"
   stroke-miterlimit="10"
   sodipodi:nodetypes="cc"
   id="path184"
   style="fill:none;stroke:#000000;stroke-width:3;stroke-linecap:round;stroke-linejoin:round;stroke-miterlimit:4;stroke-dasharray:none" /><path
   d="m 419.5683,614.58568 c 5.2867,9.9921 16.875,20.901 23.973,26.183"
   inkscape:transform-center-x="13.197525"
   inkscape:transform-center-y="92.17501"
   inkscape:connector-curvature="0"
   stroke-miterlimit="10"
   sodipodi:nodetypes="cc"
   id="path186"
   style="fill:none;stroke:#000000;stroke-width:3;stroke-linecap:round;stroke-linejoin:round;stroke-miterlimit:4;stroke-dasharray:none" /><path
   d="m 465.7683,593.72568 c 6.9977,7.6395 21.58,17.051 28.893,19.766"
   inkscape:transform-center-x="13.197525"
   inkscape:transform-center-y="92.17501"
   inkscape:connector-curvature="0"
   stroke-miterlimit="10"
   sodipodi:nodetypes="cc"
   id="path188"
   style="fill:none;stroke:#000000;stroke-width:3;stroke-linecap:round;stroke-linejoin:round;stroke-miterlimit:4;stroke-dasharray:none" /><path
   d="m 396.1083,599.94568 c 22.815,0.57509 58.948,8.8026 73.38,12.067"
   inkscape:transform-center-x="13.197525"
   inkscape:transform-center-y="92.17501"
   inkscape:connector-curvature="0"
   stroke-miterlimit="10"
   sodipodi:nodetypes="cc"
   id="path190"
   style="fill:none;stroke:#000000;stroke-width:3;stroke-linecap:round;stroke-linejoin:round;stroke-miterlimit:4;stroke-dasharray:none" /><path
   d="m 505.8683,627.52568 c 14.154,-2.4064 32.163,-0.67214 48.356,-0.55235"
   inkscape:transform-center-x="13.197525"
   inkscape:transform-center-y="92.17501"
   inkscape:connector-curvature="0"
   stroke-miterlimit="10"
   sodipodi:nodetypes="cc"
   id="path192"
   style="fill:none;stroke:#000000;stroke-width:3;stroke-linecap:round;stroke-linejoin:round;stroke-miterlimit:4;stroke-dasharray:none" /><path
   d="m 344.9283,272.80568 c -37.877,38.282 18.144,228.25 41.291,274.44"
   inkscape:transform-center-x="13.197525"
   inkscape:transform-center-y="92.17501"
   inkscape:connector-curvature="0"
   stroke-miterlimit="10"
   sodipodi:nodetypes="cc"
   id="path194"
   style="fill:none;stroke:#000000;stroke-width:3;stroke-linecap:round;stroke-linejoin:round;stroke-miterlimit:4;stroke-dasharray:none" /><g
   stroke-miterlimit="10"
   id="g196"
   style="fill:#cccccc;stroke:#000000;stroke-width:3;stroke-miterlimit:4;stroke-dasharray:none"
   transform="matrix(-1,0,0,1,1127.2983,-1.714318)"><path
     d="m 738.25,196.94 -0.625,1.0312 c 0.13117,1.6184 0.16586,3.3102 0.15625,5.0625 0.31456,1.3729 0.34816,2.6262 -0.0312,3.6875 -0.66144,1.8496 -2.9742,2.5113 -5.9062,2.3438 -0.24868,0.14258 -0.50245,0.26941 -0.75,0.40625 13.423,3.4928 30.044,21.614 44.531,42.031 7.6412,5.7799 14.359,13.154 19.625,21.156 -0.0543,-0.0826 -0.10165,-0.1676 -0.15625,-0.25 0.45931,-3.3431 0.96938,-6.2654 1.5312,-8.6875 -14.57,-27.85 -40.45,-56.42 -58.36,-66.78 z"
     sodipodi:nodetypes="ccccccccccc"
     inkscape:connector-curvature="0"
     id="path198"
     style="stroke-width:3;stroke-miterlimit:4;stroke-dasharray:none;fill:#cccccc" /><path
     d="m 630.76,130.74 c 8.6267,-2.4505 28.79,8.0313 27.681,33.189 -16.613,-2.828 -28.923,-25.759 -27.681,-33.189 z"
     sodipodi:nodetypes="ccc"
     inkscape:connector-curvature="0"
     id="path200"
     style="stroke-width:3;stroke-miterlimit:4;stroke-dasharray:none;fill:#cccccc" /><path
     d="m 616.19,169.83 c 4.806,7.5715 26.83,13.173 42.75,-6.3387 -14.279,-8.9492 -38.731,-0.0328 -42.75,6.3387 z"
     sodipodi:nodetypes="ccc"
     inkscape:connector-curvature="0"
     id="path202"
     style="stroke-width:3;stroke-miterlimit:4;stroke-dasharray:none;fill:#cccccc" /><path
     d="m 634.65,142.67 c -5.9388,0.22979 -11.25,2.8438 -11.25,2.8438 0,0 0.28772,13.459 11.406,17.688 3.4074,1.2971 6.9633,2.1558 10,2.1562 -5.2034,-5.8564 -5.6562,-13.969 -5.6562,-13.969 0,0 4.2464,-2.1351 9.4062,-2.5625 -1.5826,-1.7366 -3.5832,-3.2992 -5.875,-4.5312 -2.5126,-1.351 -5.3318,-1.7294 -8.0312,-1.625 z"
     inkscape:connector-curvature="0"
     id="path204"
     style="stroke-width:3;stroke-miterlimit:4;stroke-dasharray:none;fill:#cccccc" /><path
     d="m 654.54,137.58 c 7.7024,-1.8618 26.109,8.7195 24.284,32.715 -17.895,-1.3152 -24.663,-25.636 -24.284,-32.715 z"
     sodipodi:nodetypes="ccc"
     inkscape:connector-curvature="0"
     id="path206"
     style="stroke-width:3;stroke-miterlimit:4;stroke-dasharray:none;fill:#cccccc" /><path
     d="m 637.53,179.43 c 4.2229,6.7052 24.795,11.954 40.218,-6.5183 -13.744,-11.535 -35.554,1.1793 -40.218,6.5183 z"
     sodipodi:nodetypes="ccc"
     inkscape:connector-curvature="0"
     id="path208"
     style="stroke-width:3;stroke-miterlimit:4;stroke-dasharray:none;fill:#cccccc" /><path
     d="m 650.06,148.76 c -5.8096,0.0753 -10.906,2.625 -10.906,2.625 0,0 0.76471,13.754 11.812,18.375 4.5661,1.9101 9.3761,3.0135 12.75,2.2188 -3.3283,-5.14 -4.0625,-10.562 -4.0625,-10.562 0,0 2.8697,-1.5624 6.8125,-2.375 -1.7772,-3.1964 -4.7327,-6.2216 -8.4688,-8.375 -2.511,-1.4478 -5.2968,-1.9405 -7.9375,-1.9062 z"
     inkscape:connector-curvature="0"
     id="path210"
     style="stroke-width:3;stroke-miterlimit:4;stroke-dasharray:none;fill:#cccccc" /><path
     d="m 677.39,148.22 c 7.5907,-1.8198 23.628,8.0994 21.875,34.373 -15.628,-3.3453 -22.532,-26.67 -21.875,-34.373 z"
     sodipodi:nodetypes="ccc"
     inkscape:connector-curvature="0"
     id="path212"
     style="stroke-width:3;stroke-miterlimit:4;stroke-dasharray:none;fill:#cccccc" /><path
     d="m 658.32,188.25 c 3.4212,7.0162 21.273,13.089 40.439,-4.9682 -12.518,-9.9361 -34.911,-0.43604 -40.439,4.9682 z"
     sodipodi:nodetypes="ccc"
     inkscape:connector-curvature="0"
     id="path214"
     style="stroke-width:3;stroke-miterlimit:4;stroke-dasharray:none;fill:#cccccc" /><path
     d="m 698.23,157.53 c 7.5654,-0.20314 22.27,13.587 20.456,35.236 -16.733,-6.2456 -21.671,-29.241 -20.456,-35.236 z"
     sodipodi:nodetypes="ccc"
     inkscape:connector-curvature="0"
     id="path216"
     style="stroke-width:3;stroke-miterlimit:4;stroke-dasharray:none;fill:#cccccc" /><path
     d="m 670.24,158.57 c -5.7483,0.19957 -10.594,2.8438 -10.594,2.8438 0,0 1.9145,13.861 13.25,18.281 4.9879,1.9447 10.211,2.9413 13.469,1.75 -2.3509,-4.415 -3,-8.4062 -3,-8.4062 0,0 2.1904,-1.1501 5.3438,-1.9375 -1.7534,-4.0821 -5.5352,-8.1737 -10.438,-10.812 -2.6108,-1.4053 -5.4184,-1.8095 -8.0312,-1.7188 z"
     inkscape:connector-curvature="0"
     id="path218"
     style="stroke-width:3;stroke-miterlimit:4;stroke-dasharray:none;fill:#cccccc" /><path
     d="m 677.21,197.94 c 3.9301,6.4677 23.489,11.35 40.698,-1.9092 -13.514,-13.091 -36.022,-3.2544 -40.698,1.9092 z"
     sodipodi:nodetypes="ccc"
     inkscape:connector-curvature="0"
     id="path220"
     style="stroke-width:3;stroke-miterlimit:4;stroke-dasharray:none;fill:#cccccc" /><path
     d="m 693.9,170.39 c -5.7438,0.0847 -10.531,2.6562 -10.531,2.6562 0,0 2.2215,13.882 13.656,18.531 3.9708,1.6145 8.0814,2.6576 11.219,2.4688 -3.017,-4.7195 -4.0938,-8.6562 -4.0938,-8.6562 0,0 3.6676,-1.8256 8.4375,-2.2188 -1.8661,-4.0796 -5.7133,-8.1635 -10.625,-10.875 -2.6421,-1.4581 -5.4517,-1.9448 -8.0625,-1.9062 z"
     inkscape:connector-curvature="0"
     id="path222"
     style="stroke-width:3;stroke-miterlimit:4;stroke-dasharray:none;fill:#cccccc" /><path
     d="m 737.73,206.74 c -1.6062,4.4914 -12.79,1.9873 -19.509,-2.4325 -10.965,-7.2124 -14.059,-18.924 -14.059,-18.924 0,0 10.09,-5.0716 18.662,-0.14979 8.3318,4.7862 16.912,15.894 14.906,21.506 z"
     inkscape:connector-curvature="0"
     id="path224"
     style="stroke-width:3;stroke-miterlimit:4;stroke-dasharray:none;fill:#cccccc" /><path
     d="m 717.33,168.94 c 7.1621,-1.1441 21.035,10.705 20.456,35.236 -15.756,-5.5338 -21.581,-28.818 -20.456,-35.236 z"
     sodipodi:nodetypes="ccc"
     inkscape:connector-curvature="0"
     id="path226"
     style="stroke-width:3;stroke-miterlimit:4;stroke-dasharray:none;fill:#cccccc" /><path
     d="m 737.73,206.74 c -1.6062,4.4914 -12.79,1.9873 -19.509,-2.4325 -10.965,-7.2124 -14.059,-18.924 -14.059,-18.924 0,0 10.09,-5.0716 18.662,-0.14979 8.3318,4.7862 16.912,15.894 14.906,21.506 z"
     inkscape:connector-curvature="0"
     id="path228"
     style="stroke-width:3;stroke-miterlimit:4;stroke-dasharray:none;fill:#cccccc" /><path
     d="m 696.4,208.77 c 3.108,6.5533 20.726,11.291 40.628,-3.0629 -13.476,-9.8625 -35.972,-1.4954 -40.628,3.0629 z"
     sodipodi:nodetypes="ccc"
     inkscape:connector-curvature="0"
     id="path230"
     style="stroke-width:3;stroke-miterlimit:4;stroke-dasharray:none;fill:#cccccc" /><path
     d="m 737.73,206.74 c -1.6062,4.4914 -12.79,1.9873 -19.509,-2.4325 -10.965,-7.2124 -14.059,-18.924 -14.059,-18.924 0,0 10.09,-5.0716 18.662,-0.14979 8.3318,4.7862 16.912,15.894 14.906,21.506 z"
     inkscape:connector-curvature="0"
     id="path232"
     style="stroke-width:3;stroke-miterlimit:4;stroke-dasharray:none;fill:#cccccc" /></g><path
   d="m 641.8018,327.89773 c 3.7597,-20.911 18.467,-49.062 44.507,-51.215 25.735,-5.0237 55.298,10.476 68.375,12.443 22.939,7.1111 54.407,5.9086 71.196,3.1065 11.665,-1.9469 -8.0422,24.688 -12.388,24.747 -22.404,0.30334 -39.255,1.7567 -68.213,-3.1764 -30.924,-4.6522 -41.802,-17.833 -64.786,-7.7163 -12.401,7.6785 -27.492,69.741 -27.279,54.903 0.14891,-10.375 -12.2,-31.068 -11.413,-33.091 z"
   sodipodi:nodetypes="cccssccsc"
   inkscape:connector-curvature="0"
   class="fil1 str0"
   stroke-miterlimit="4"
   id="path238"
   style="fill:#cccccc;stroke:#000000;stroke-width:3;stroke-miterlimit:4;stroke-dasharray:none" /><path
   d="m 674.8918,312.65773 c -5.2054,8.4866 -10.337,22.514 -14.344,33.75 -1.0495,3.252 -2.0663,6.4341 -3.375,9.375 -0.003,0.009 0.003,0.0227 0,0.0312 -2.0042,5.4259 -3.3914,8.5764 -3.8125,7.0938 0.3696,10.156 0.47035,31.082 -3.1875,41.969 0.13457,12.463 37.585,-4.9316 36.594,-37.594 -0.30751,-17.34 -2.9911,-39.607 -11.875,-54.625 z"
   inkscape:connector-curvature="0"
   stroke-miterlimit="4"
   id="path240"
   style="fill:#cccccc;stroke:#000000;stroke-width:3;stroke-miterlimit:4;stroke-dasharray:none" /><path
   d="m 695.9618,302.36773 c -4.5183,0.10902 -9.2697,1.1191 -14.688,3.4062 -1.5436,1.078 -2.9176,2.2167 -4,3.4062 -0.0193,0.0213 -0.0433,0.0412 -0.0625,0.0625 -0.0854,0.10832 -0.16451,0.20036 -0.25,0.3125 -0.56437,0.74034 -1.1208,1.6061 -1.6875,2.5 -0.10945,0.22104 -0.22283,0.46176 -0.3125,0.6875 4.5576,7.7431 7.4503,17.403 9.25,27.312 0.0272,0.12428 0.0357,0.25076 0.0625,0.375 2.0271,9.3828 2.9641,18.641 2.5938,25.688 7.7282,8.8038 11.36,10.831 18.969,10.562 8.1711,-1.5075 13.299,-7.4683 14.906,-16.125 0.27288,-16.267 -0.40569,-40.359 -9.3125,-55.719 -5.285,-1.5424 -10.24,-2.5949 -15.469,-2.4688 z"
   inkscape:connector-curvature="0"
   stroke-miterlimit="4"
   id="path242"
   style="fill:#cccccc;stroke:#000000;stroke-width:3;stroke-miterlimit:4;stroke-dasharray:none" /><path
   d="m 719.9218,336.18773 c 0.35547,3.6548 0.59549,7.3004 0.71875,10.812 0.002,0.0515 -0.002,0.10477 0,0.15625 0.41374,5.0816 0.50073,10.022 0.1875,16.125 9.0306,0.94799 13.994,-1.2023 23.531,-3.7812 5.0138,-1.5276 12.055,-9.3173 5.0938,-17.719 l -1.625,-0.3125 c -0.0107,1.3e-4 -0.0206,-1.1e-4 -0.0312,0 -0.41614,0.004 -0.81607,-0.002 -1.2188,-0.0312 -10.778,-0.90075 -15.318,-1.2431 -24.219,-4.7812 l -2.4375,-0.46875 z"
   inkscape:connector-curvature="0"
   stroke-miterlimit="4"
   id="path244"
   style="fill:#cccccc;stroke:#000000;stroke-width:3;stroke-miterlimit:4;stroke-dasharray:none" /><path
   d="m 650.0218,405.11773 c -5.3613,28.834 -37.864,50.981 -44.875,56.031 -4.6097,3.3207 2.5029,8.5434 16.906,5.875 9.1358,-2.4135 37.26,-36.767 34.906,-58.312 -3.8408,0.67356 -6.5309,-0.40453 -6.75,-3.5 l -0.1875,-0.0937 z"
   inkscape:connector-curvature="0"
   stroke-miterlimit="4"
   id="path246"
   style="fill:#cccccc;stroke:#000000;stroke-width:3;stroke-miterlimit:4;stroke-dasharray:none" /><path
   d="m 673.7418,399.08773 c -0.43064,0.41873 -0.93032,0.7553 -1.4062,1.0625 -0.0329,0.0299 -0.0608,0.064 -0.0937,0.0937 -5.4514,4.9316 -11.356,7.8703 -15.688,8.5 0.13808,-0.02 0.26499,-0.006 0.40625,-0.0312 1.8392,16.832 -14.909,41.495 -26.688,52.625 -0.0176,0.0212 -0.045,0.0414 -0.0625,0.0625 -1.9235,2.3189 -3.5254,4.0711 -4.5625,5.1562 -3.9253,4.1072 7.3433,9.5608 21.031,4.3438 6.5261,-2.4874 32.723,-35.147 27.062,-71.812 z"
   sodipodi:nodetypes="cccccccssc"
   inkscape:connector-curvature="0"
   stroke-miterlimit="4"
   id="path248"
   style="fill:#cccccc;stroke:#000000;stroke-width:3;stroke-miterlimit:4;stroke-dasharray:none" /><path
   d="m 754.9918,315.68773 c 5.0297,3.2518 8.1456,10.163 7.75,14.094 -0.70505,6.9031 -7.2088,10.872 -13.219,11.562 l -0.0312,0.46875 c 1.1612,1.409 1.8924,2.8087 2.3438,4.1562 13.082,5.1708 45.787,11.173 65.281,3.9688 20.439,-3.7383 20.927,-25.583 -3.2812,-32.594 -18.995,0.20433 -38.941,0.39785 -58.844,-1.6562 z"
   inkscape:connector-curvature="0"
   stroke-miterlimit="4"
   id="path250"
   style="fill:#efefef;stroke:#000000;stroke-width:3;stroke-miterlimit:4;stroke-dasharray:none" /><path
   d="m 711.6118,305.15773 c 4.8234,8.4876 7.1771,19.558 8.2812,30.5 10.677,4.5326 14.933,4.7989 26.688,5.7812 6.608,0.48331 15.334,-3.6021 16.156,-11.656 0.39998,-3.9743 -2.7788,-11.014 -7.9062,-14.219 -17.153,-1.9795 -27.111,-5.8456 -43.219,-10.406 z"
   inkscape:connector-curvature="0"
   stroke-miterlimit="4"
   id="path252"
   style="fill:#cccccc;stroke:#000000;stroke-width:3;stroke-miterlimit:4;stroke-dasharray:none" /><path
   d="m 719.9918,363.61773 c -2.1605,6.9961 -6.9845,11.739 -14.156,13.062 -7.136,0.25191 -10.826,-1.5801 -17.625,-9.0625 2.5646,10.514 3.6697,20.657 6.625,28.531 2.6142,6.9649 7.9847,11.675 15.594,11.406 8.1711,-1.5075 12.556,-7.3452 13.219,-16.125 0.60771,-8.0542 0.92338,-18.062 0,-27.969 -1.3872,-0.0557 -2.488,-0.32402 -3.6562,0.15625 z"
   sodipodi:nodetypes="cccscscc"
   inkscape:connector-curvature="0"
   stroke-miterlimit="4"
   id="path254"
   style="fill:#cccccc;stroke:#000000;stroke-width:3;stroke-miterlimit:4;stroke-dasharray:none" /><path
   d="m 751.8618,345.96773 c 2.2259,6.6725 -3.3351,12.262 -7.5,13.531 -4.8664,1.3159 -8.555,2.5119 -12.188,3.25 13.66,7.1185 36.038,14.943 51.875,12.281 14.31,0.25423 20.507,-11.148 14.531,-21.844 -17.55,0.69826 -37.25,-3.4824 -46.719,-7.2188 z"
   inkscape:connector-curvature="0"
   stroke-miterlimit="4"
   id="path256"
   style="fill:#cccccc;stroke:#000000;stroke-width:3;stroke-miterlimit:4;stroke-dasharray:none" /><path
   d="m 865.3018,281.33773 c -0.33981,0.009 -0.68397,0.0645 -1.0625,0.15625 -8.2073,5.294 -24.091,9.7484 -34.781,12.281 1.254,5.5511 -12.438,23.14 -15.969,23.188 -0.0327,0.12937 -0.0621,0.24734 -0.0937,0.375 0.14431,-0.002 0.2933,0.002 0.4375,0 7.8644,2.2776 13.092,6.1271 15.906,10.406 2.4302,-0.47704 4.7989,-0.99886 7.0625,-1.5312 30.904,-6.858 39.034,-45.159 28.5,-44.875 z"
   inkscape:connector-curvature="0"
   stroke-miterlimit="4"
   id="path258"
   style="fill:#cccccc;stroke:#000000;stroke-width:3;stroke-miterlimit:4;stroke-dasharray:none" /><path
   d="m 732.1818,362.74773 c -2.7344,0.5521 -5.4481,0.8443 -8.625,0.71875 0.54882,7.4267 0.70616,14.698 0.46875,20.906 7.7282,8.8038 11.403,11.414 18.969,10.562 8.2569,-0.92933 14.244,-7.3452 14.906,-16.125 0.14388,-1.907 0.22532,-3.9333 0.28125,-6.0312 -9.5874,-2.5116 -18.957,-6.3608 -26,-10.031 z"
   inkscape:connector-curvature="0"
   stroke-miterlimit="4"
   id="path260"
   style="fill:#cccccc;stroke:#000000;stroke-width:3;stroke-miterlimit:4;stroke-dasharray:none" /><path
   d="m 688.1118,368.61773 c 0.21675,0.79457 -0.4523,1.6957 -1.4062,2.75 -0.79767,11.668 -6.504,21.116 -13.156,27.625 -0.0615,0.19881 -0.0387,0.28018 0.1875,0.0937 4.4612,28.895 -10.857,55.302 -20.75,66.406 -0.44492,0.63869 -0.89213,1.275 -1.2188,1.7188 -3.3677,4.5755 9.88,10.634 21.406,1.5938 13.947,-10.939 27.2,-58.805 21.656,-72.656 -0.6315,-0.90151 -0.91449,-1.825 -0.96875,-2.8125 -2.3635,-8.7329 -3.768,-17.483 -5.75,-24.719 z"
   inkscape:connector-curvature="0"
   stroke-miterlimit="4"
   id="path262"
   style="fill:#cccccc;stroke:#000000;stroke-width:3;stroke-miterlimit:4;stroke-dasharray:none" /><path
   d="m 694.8318,396.15773 c 4.871,12.17 -4.7848,50.586 -16.656,67.156 0.76679,4.4529 14.339,8.6163 24.219,-0.25 10.329,-9.2686 11.119,-32.88 10.094,-56 -0.66009,0.19862 -1.3439,0.36742 -2.0625,0.5 -7.1188,0.2513 -12.255,-3.86 -15.031,-10.094 -0.006,-0.0125 -0.0255,-0.0188 -0.0312,-0.0312 -0.18479,-0.41702 -0.36786,-0.84594 -0.53125,-1.2812 z"
   inkscape:connector-curvature="0"
   stroke-miterlimit="4"
   id="path264"
   style="fill:#cccccc;stroke:#000000;stroke-width:3;stroke-miterlimit:4;stroke-dasharray:none" /><path
   d="m 754.9918,315.68773 c 5.0297,3.2518 8.1456,10.163 7.75,14.094 -0.70505,6.9031 -7.2088,10.872 -13.219,11.562 l -0.0312,0.46875 c 1.1612,1.409 1.8924,2.8087 2.3438,4.1562 13.082,5.1708 45.787,11.173 65.281,3.9688 20.439,-3.7383 20.927,-25.583 -3.2812,-32.594 -18.995,0.20433 -38.941,0.39785 -58.844,-1.6562 z"
   inkscape:connector-curvature="0"
   stroke-miterlimit="4"
   id="path266"
   style="fill:#cccccc;stroke:#000000;stroke-width:3;stroke-miterlimit:4;stroke-dasharray:none" /><path
   d="m 1047.5018,276.99773 c -59.078,15.865 -119.33,23.279 -179.44,20.281 -2.9265,8.8934 -9.8472,19.337 -21.156,25.25 57.214,10.761 121.5,4.2182 179.12,-2.3438 14.349,-1.634 32.003,-43.471 21.469,-43.188 z"
   sodipodi:nodetypes="cccsc"
   inkscape:connector-curvature="0"
   stroke-miterlimit="4"
   id="path268"
   style="fill:#cccccc;stroke:#000000;stroke-width:3;stroke-miterlimit:4;stroke-dasharray:none" /><path
   d="m 1027.3018,319.89773 c -0.4438,0.12269 -0.874,0.23131 -1.3125,0.28125 -50.4,5.7394 -105.91,11.449 -157.31,5.5938 -0.0205,-0.002 -0.042,0.002 -0.0625,0 -3.6524,-0.41672 -7.2673,-0.89965 -10.875,-1.4375 -0.0204,-0.003 -0.0421,0.003 -0.0625,0 -1.7935,-0.26776 -3.5937,-0.54451 -5.375,-0.84375 -0.0203,-0.003 -0.0422,0.003 -0.0625,0 -1.7912,-0.3013 -3.5658,-0.63456 -5.3438,-0.96875 -0.008,0.004 -0.0231,-0.004 -0.0312,0 -3.0414,1.5899 -6.3803,2.8704 -10.062,3.6875 -2.2636,0.53239 -4.6323,1.0542 -7.0625,1.5312 4.2446,6.4536 2.9698,13.905 -3.3438,18.469 53.183,16.604 115.24,13.95 176.03,5.8125 14.314,-1.9161 34.727,-31.653 27.844,-31.625 -0.9711,-0.1706 -1.9565,-0.34101 -2.9376,-0.5 -0.01,-0.002 -0.021,0.002 -0.031,0 z"
   inkscape:connector-curvature="0"
   stroke-miterlimit="4"
   id="path270"
   style="fill:#cccccc;stroke:#000000;stroke-width:3;stroke-miterlimit:4;stroke-dasharray:none" /><path
   d="m 826.8618,345.83773 c -2.4415,1.8992 -5.7094,3.3547 -9.75,4.0938 -5.5391,2.047 -12.171,3.0154 -19.094,3.25 0.18667,-0.006 0.3763,0.007 0.5625,0 2.5512,4.5665 2.883,9.2631 1.3125,13.125 49.026,19.518 116.02,24.363 174.03,19.219 14.385,-1.2756 38.98,-33.284 32.125,-33.906 -0.1957,-0.0539 -1.0486,0.0161 -2.125,0.125 -0.5091,0.13075 -1.0042,0.21488 -1.5,0.28125 -60.789,8.1373 -122.85,10.791 -176.03,-5.8125 0.16619,-0.12013 0.30956,-0.25094 0.46875,-0.375 z"
   inkscape:connector-curvature="0"
   stroke-miterlimit="4"
   id="path272"
   style="fill:#cccccc;stroke:#000000;stroke-width:3;stroke-miterlimit:4;stroke-dasharray:none" /><path
   d="m 799.8918,366.30773 c -2.1125,5.1783 -7.6448,8.8644 -15.844,8.7188 -0.9498,0.15966 -1.9127,0.28837 -2.9062,0.375 41.868,29.146 100.67,39.054 164.16,38.062 13.537,-0.2114 30.814,-23.718 27.375,-27.844 -57.727,4.966 -124.11,0.0659 -172.78,-19.312 z"
   inkscape:connector-curvature="0"
   stroke-miterlimit="4"
   id="path274"
   style="fill:#cccccc;stroke:#000000;stroke-width:3;stroke-miterlimit:4;stroke-dasharray:none" /><path
   d="m 758.1818,372.77773 c -0.0559,2.098 -0.13737,4.1243 -0.28125,6.0312 -0.39179,5.1926 -2.6715,9.5446 -6.1562,12.438 0.14595,0.17255 0.29018,0.34635 0.4375,0.5 25.594,16.784 63.32,29.563 127.96,47.409 36.86,10.18 53.46,-18.31 53.78,-25.63 -59.1,-0.33 -113.42,-10.73 -152.78,-38.13 -7.03,0.62 -15.07,-0.55 -22.96,-2.62 z"
   sodipodi:nodetypes="csccsccc"
   inkscape:connector-curvature="0"
   stroke-miterlimit="4"
   id="path276"
   style="fill:#cccccc;stroke:#000000;stroke-width:3;stroke-miterlimit:4;stroke-dasharray:none" /><path
   d="m 724.0518,384.39773 c -0.10103,2.4569 -0.23976,4.8248 -0.40625,7.0312 -0.25403,3.3667 -1.0538,6.2955 -2.4062,8.7188 24.826,18.543 73.251,43.572 117,51.812 18.735,3.529 33.244,-5.4039 39.188,-13.281 -1.1925,-0.43952 -2.42,-0.85077 -3.625,-1.2812 -60.739,-16.928 -96.889,-29.436 -121.62,-45.656 -0.14732,-0.15365 -0.29155,-0.32745 -0.4375,-0.5 -2.4053,1.9973 -5.3793,3.3081 -8.75,3.6875 -7.5558,0.85043 -11.231,-1.7561 -18.938,-10.531 z"
   inkscape:connector-curvature="0"
   stroke-miterlimit="4"
   id="path278"
   style="fill:#cccccc;stroke:#000000;stroke-width:3;stroke-miterlimit:4;stroke-dasharray:none" /><path
   d="m 721.2418,400.15773 c -1.8734,3.3568 -4.815,5.7183 -8.8125,6.9062 6.2188,21.13 39.045,39.318 69.25,54.531 29.65,14.934 50.628,-0.58303 56.781,-9.5938 -0.0729,-0.0134 -0.14577,-0.0176 -0.21875,-0.0312 -43.749,-8.2406 -92.174,-33.269 -117,-51.812 z"
   inkscape:connector-curvature="0"
   stroke-miterlimit="4"
   id="path280"
   style="fill:#cccccc;stroke:#000000;stroke-width:3;stroke-miterlimit:4;stroke-dasharray:none" /><path
   d="m 704.8018,406.74773 c 0.34409,0.11934 0.70451,0.21847 1.0625,0.3125 -0.35451,-0.0935 -0.72152,-0.19423 -1.0625,-0.3125 z"
   inkscape:connector-curvature="0"
   stroke-miterlimit="4"
   id="path282"
   style="fill:#efefef;stroke:#000000;stroke-width:3;stroke-miterlimit:4;stroke-dasharray:none" /><path
   d="m 712.4918,407.27773 c 0.57192,13.051 0.55136,26.239 -1.4375,36.906 5.6128,10.376 13.784,18.624 24.469,20.594 14.075,2.5954 23.281,-3.1695 22.219,-15.375 -2.5349,-1.0209 -5.0815,-2.7738 -7.625,-5 -18.324,-11.153 -33.499,-23.519 -37.625,-37.125 z"
   inkscape:connector-curvature="0"
   stroke-miterlimit="4"
   id="path284"
   style="fill:#cccccc;stroke:#000000;stroke-width:3;stroke-miterlimit:4;stroke-dasharray:none" /><path
   d="m 665.3518,406.68773 c -1.322,18.575 -6.1641,34.309 -15.722,46.894"
   inkscape:transform-center-x="8.82996"
   inkscape:transform-center-y="92.695405"
   inkscape:connector-curvature="0"
   stroke-miterlimit="10"
   sodipodi:nodetypes="cc"
   id="path286"
   style="fill:none;stroke:#000000;stroke-width:3;stroke-linecap:round;stroke-linejoin:round;stroke-miterlimit:4;stroke-dasharray:none" /><path
   d="m 682.4018,387.13773 c 4.1154,22.89 -0.32678,51.08 -10.104,63.467"
   inkscape:transform-center-x="8.82996"
   inkscape:transform-center-y="92.695405"
   inkscape:connector-curvature="0"
   stroke-miterlimit="10"
   sodipodi:nodetypes="cc"
   id="path288"
   style="fill:none;stroke:#000000;stroke-width:3;stroke-linecap:round;stroke-linejoin:round;stroke-miterlimit:4;stroke-dasharray:none" /><path
   d="m 702.9018,406.51773 c 0.0825,18.575 -1.6698,23.915 -4.205,35.658"
   inkscape:transform-center-x="8.82996"
   inkscape:transform-center-y="92.695405"
   inkscape:connector-curvature="0"
   stroke-miterlimit="10"
   sodipodi:nodetypes="cc"
   id="path290"
   style="fill:none;stroke:#000000;stroke-width:3;stroke-linecap:round;stroke-linejoin:round;stroke-miterlimit:4;stroke-dasharray:none" /><path
   d="m 713.3518,425.38773 c 11.553,12.955 13.539,16.064 27.488,25.581"
   inkscape:transform-center-x="-8.0083114"
   inkscape:transform-center-y="92.769125"
   inkscape:connector-curvature="0"
   stroke-miterlimit="10"
   sodipodi:nodetypes="cc"
   id="path292"
   style="fill:none;stroke:#000000;stroke-width:3;stroke-linecap:round;stroke-linejoin:round;stroke-miterlimit:4;stroke-dasharray:none" /><path
   d="m 707.3318,377.00773 c 0.54851,4.2012 1.5677,15.141 0.57021,19.366"
   inkscape:transform-center-x="8.82996"
   inkscape:transform-center-y="92.695405"
   inkscape:connector-curvature="0"
   stroke-miterlimit="10"
   sodipodi:nodetypes="cc"
   id="path294"
   style="fill:none;stroke:#000000;stroke-width:3;stroke-linecap:round;stroke-linejoin:round;stroke-miterlimit:4;stroke-dasharray:none" /><path
   d="m 727.9718,364.09773 c 5.3237,5.3248 11.68,11.77 15.458,19.085"
   inkscape:transform-center-x="8.82996"
   inkscape:transform-center-y="92.695405"
   inkscape:connector-curvature="0"
   stroke-miterlimit="10"
   sodipodi:nodetypes="cc"
   id="path296"
   style="fill:none;stroke:#000000;stroke-width:3;stroke-linecap:round;stroke-linejoin:round;stroke-miterlimit:4;stroke-dasharray:none" /><path
   d="m 667.0318,329.40773 c 7.2052,12.216 8.1001,45.743 -0.27248,59.253"
   inkscape:transform-center-x="8.82996"
   inkscape:transform-center-y="92.695405"
   inkscape:connector-curvature="0"
   stroke-miterlimit="10"
   sodipodi:nodetypes="cc"
   id="path298"
   style="fill:none;stroke:#000000;stroke-width:3;stroke-linecap:round;stroke-linejoin:round;stroke-miterlimit:4;stroke-dasharray:none" /><path
   d="m 687.8318,304.54773 c 11.124,12.776 18.015,34.358 17.143,52.793"
   inkscape:transform-center-x="8.82996"
   inkscape:transform-center-y="92.695405"
   inkscape:connector-curvature="0"
   stroke-miterlimit="10"
   sodipodi:nodetypes="cc"
   id="path300"
   style="fill:none;stroke:#000000;stroke-width:3;stroke-linecap:round;stroke-linejoin:round;stroke-miterlimit:4;stroke-dasharray:none" /><path
   d="m 717.3718,317.88773 c 7.8518,6.1674 15.893,9.5231 24.165,11.501"
   inkscape:transform-center-x="8.82996"
   inkscape:transform-center-y="92.695405"
   inkscape:connector-curvature="0"
   stroke-miterlimit="10"
   sodipodi:nodetypes="cc"
   id="path302"
   style="fill:none;stroke:#000000;stroke-width:3;stroke-linecap:round;stroke-linejoin:round;stroke-miterlimit:4;stroke-dasharray:none" /><path
   d="m 720.8818,345.27773 c 5.8855,4.763 13.084,6.995 19.39,7.2875"
   inkscape:transform-center-x="8.82996"
   inkscape:transform-center-y="92.695405"
   inkscape:connector-curvature="0"
   stroke-miterlimit="10"
   sodipodi:nodetypes="cc"
   id="path304"
   style="fill:none;stroke:#000000;stroke-width:3;stroke-linecap:round;stroke-linejoin:round;stroke-miterlimit:4;stroke-dasharray:none" /><path
   d="m 818.6318,314.37773 c 12.346,0.26865 23.478,-5.0835 31.188,-9.8471"
   inkscape:transform-center-x="8.82996"
   inkscape:transform-center-y="92.695405"
   inkscape:connector-curvature="0"
   stroke-miterlimit="10"
   sodipodi:nodetypes="cc"
   id="path306"
   style="fill:none;stroke:#000000;stroke-width:3;stroke-linecap:round;stroke-linejoin:round;stroke-miterlimit:4;stroke-dasharray:none" /><path
   d="m 763.0218,329.26773 c 9.2563,7.8528 31.062,14.017 49.727,11.782"
   inkscape:transform-center-x="8.82996"
   inkscape:transform-center-y="92.695405"
   inkscape:connector-curvature="0"
   stroke-miterlimit="10"
   sodipodi:nodetypes="cc"
   id="path308"
   style="fill:none;stroke:#000000;stroke-width:3;stroke-linecap:round;stroke-linejoin:round;stroke-miterlimit:4;stroke-dasharray:none" /><path
   d="m 749.5318,356.23773 c 9.2563,5.6057 20.949,7.8377 30.626,7.2875"
   inkscape:transform-center-x="8.82996"
   inkscape:transform-center-y="92.695405"
   inkscape:connector-curvature="0"
   stroke-miterlimit="10"
   sodipodi:nodetypes="cc"
   id="path310"
   style="fill:none;stroke:#000000;stroke-width:3;stroke-linecap:round;stroke-linejoin:round;stroke-miterlimit:4;stroke-dasharray:none" /><path
   d="m 716.9718,405.93773 c 11.553,12.955 49.213,34.884 68.218,41.03"
   inkscape:transform-center-x="-8.0083114"
   inkscape:transform-center-y="92.769125"
   inkscape:connector-curvature="0"
   stroke-miterlimit="10"
   sodipodi:nodetypes="cc"
   id="path312"
   style="fill:none;stroke:#000000;stroke-width:3;stroke-linecap:round;stroke-linejoin:round;stroke-miterlimit:4;stroke-dasharray:none" /><path
   d="m 739.5918,395.67773 c 11.553,12.955 73.931,35.727 94.622,38.502"
   inkscape:transform-center-x="-8.0083114"
   inkscape:transform-center-y="92.769125"
   inkscape:connector-curvature="0"
   stroke-miterlimit="10"
   sodipodi:nodetypes="cc"
   id="path314"
   style="fill:none;stroke:#000000;stroke-width:3;stroke-linecap:round;stroke-linejoin:round;stroke-miterlimit:4;stroke-dasharray:none" /><path
   d="m 757.2818,381.21773 c 39.08,18.33 69.718,31.193 133.39,41.873"
   inkscape:transform-center-x="-8.0083114"
   inkscape:transform-center-y="92.769125"
   inkscape:connector-curvature="0"
   stroke-miterlimit="10"
   sodipodi:nodetypes="cc"
   id="path316"
   style="fill:none;stroke:#000000;stroke-width:3;stroke-linecap:round;stroke-linejoin:round;stroke-miterlimit:4;stroke-dasharray:none" /><path
   d="m 818.8018,350.03773 c 33.182,18.854 119.44,18.592 150.8,15.75"
   inkscape:transform-center-x="-8.0083114"
   inkscape:transform-center-y="92.769125"
   inkscape:connector-curvature="0"
   stroke-miterlimit="10"
   sodipodi:nodetypes="cc"
   id="path318"
   style="fill:none;stroke:#000000;stroke-width:3;stroke-linecap:round;stroke-linejoin:round;stroke-miterlimit:4;stroke-dasharray:none" /><path
   d="m 831.7218,331.20773 c 39.08,8.742 124.49,7.3563 159.23,0.30056"
   inkscape:transform-center-x="-8.0083114"
   inkscape:transform-center-y="92.769125"
   inkscape:connector-curvature="0"
   stroke-miterlimit="10"
   sodipodi:nodetypes="cc"
   id="path320"
   style="fill:none;stroke:#000000;stroke-width:3;stroke-linecap:round;stroke-linejoin:round;stroke-miterlimit:4;stroke-dasharray:none" /><path
   d="m 865.1518,305.00773 c 41.608,3.1241 106.52,0.3339 141.25,-6.7218"
   inkscape:transform-center-x="-8.0083114"
   inkscape:transform-center-y="92.769125"
   inkscape:connector-curvature="0"
   stroke-miterlimit="10"
   sodipodi:nodetypes="cc"
   id="path322"
   style="fill:none;stroke:#000000;stroke-width:3;stroke-linecap:round;stroke-linejoin:round;stroke-miterlimit:4;stroke-dasharray:none" /><path
   d="m 483.1982,327.89749 c -3.7597,-20.911 -18.467,-49.062 -44.507,-51.215 -25.735,-5.0237 -55.298,10.476 -68.375,12.443 -22.939,7.1111 -54.407,5.9086 -71.196,3.1065 -11.665,-1.9469 8.0422,24.688 12.388,24.747 22.404,0.30334 39.255,1.7567 68.213,-3.1764 30.924,-4.6522 41.802,-17.833 64.786,-7.7163 12.401,7.6785 27.492,69.741 27.279,54.903 -0.14891,-10.375 12.2,-31.068 11.413,-33.091 z"
   sodipodi:nodetypes="cccssccsc"
   inkscape:connector-curvature="0"
   class="fil1 str0"
   stroke-miterlimit="4"
   id="path326"
   style="fill:#cccccc;stroke:#000000;stroke-width:3;stroke-miterlimit:4;stroke-dasharray:none" /><path
   d="m 450.1082,312.65749 c 5.2054,8.4866 10.337,22.514 14.344,33.75 1.0495,3.252 2.0663,6.4341 3.375,9.375 0.003,0.009 -0.003,0.0227 0,0.0312 2.0042,5.4259 3.3914,8.5764 3.8125,7.0938 -0.3696,10.156 -0.47035,31.082 3.1875,41.969 -0.13457,12.463 -37.585,-4.9316 -36.594,-37.594 0.30751,-17.34 2.9911,-39.607 11.875,-54.625 z"
   inkscape:connector-curvature="0"
   stroke-miterlimit="4"
   id="path328"
   style="fill:#cccccc;stroke:#000000;stroke-width:3;stroke-miterlimit:4;stroke-dasharray:none" /><path
   d="m 429.0382,302.36749 c 4.5183,0.10902 9.2697,1.1191 14.688,3.4062 1.5436,1.078 2.9176,2.2167 4,3.4062 0.0193,0.0213 0.0433,0.0412 0.0625,0.0625 0.0854,0.10832 0.16451,0.20036 0.25,0.3125 0.56437,0.74034 1.1208,1.6061 1.6875,2.5 0.10945,0.22104 0.22283,0.46176 0.3125,0.6875 -4.5576,7.7431 -7.4503,17.403 -9.25,27.312 -0.0272,0.12428 -0.0357,0.25076 -0.0625,0.375 -2.0271,9.3828 -2.9641,18.641 -2.5938,25.688 -7.7282,8.8038 -11.36,10.831 -18.969,10.562 -8.1711,-1.5075 -13.299,-7.4683 -14.906,-16.125 -0.27288,-16.267 0.40569,-40.359 9.3125,-55.719 5.285,-1.5424 10.24,-2.5949 15.469,-2.4688 z"
   inkscape:connector-curvature="0"
   stroke-miterlimit="4"
   id="path330"
   style="fill:#cccccc;stroke:#000000;stroke-width:3;stroke-miterlimit:4;stroke-dasharray:none" /><path
   d="m 405.0782,336.18749 c -0.35547,3.6548 -0.59549,7.3004 -0.71875,10.812 -0.002,0.0515 0.002,0.10477 0,0.15625 -0.41374,5.0816 -0.50073,10.022 -0.1875,16.125 -9.0306,0.94799 -13.994,-1.2023 -23.531,-3.7812 -5.0138,-1.5276 -12.055,-9.3173 -5.0938,-17.719 l 1.625,-0.3125 c 0.0107,1.3e-4 0.0206,-1.1e-4 0.0312,0 0.41614,0.004 0.81607,-0.002 1.2188,-0.0312 10.778,-0.90075 15.318,-1.2431 24.219,-4.7812 l 2.4375,-0.46875 z"
   inkscape:connector-curvature="0"
   stroke-miterlimit="4"
   id="path332"
   style="fill:#cccccc;stroke:#000000;stroke-width:3;stroke-miterlimit:4;stroke-dasharray:none" /><path
   d="m 474.9782,405.11749 c 5.3613,28.834 37.864,50.981 44.875,56.031 4.6097,3.3207 -2.5029,8.5434 -16.906,5.875 -9.1358,-2.4135 -37.26,-36.767 -34.906,-58.312 3.8408,0.67356 6.5309,-0.40453 6.75,-3.5 l 0.1875,-0.0937 z"
   inkscape:connector-curvature="0"
   stroke-miterlimit="4"
   id="path334"
   style="fill:#cccccc;stroke:#000000;stroke-width:3;stroke-miterlimit:4;stroke-dasharray:none" /><path
   d="m 451.2582,399.08749 c 0.43064,0.41873 0.93032,0.7553 1.4062,1.0625 0.0329,0.0299 0.0608,0.064 0.0937,0.0937 5.4514,4.9316 11.356,7.8703 15.688,8.5 -0.13808,-0.02 -0.26499,-0.006 -0.40625,-0.0312 -1.8392,16.832 14.909,41.495 26.688,52.625 0.0176,0.0212 0.045,0.0414 0.0625,0.0625 1.9235,2.3189 3.5254,4.0711 4.5625,5.1562 3.9253,4.1072 -7.3433,9.5608 -21.031,4.3438 -6.5261,-2.4874 -32.723,-35.147 -27.062,-71.812 z"
   sodipodi:nodetypes="cccccccssc"
   inkscape:connector-curvature="0"
   stroke-miterlimit="4"
   id="path336"
   style="fill:#cccccc;stroke:#000000;stroke-width:3;stroke-miterlimit:4;stroke-dasharray:none" /><path
   d="m 370.0082,315.68749 c -5.0297,3.2518 -8.1456,10.163 -7.75,14.094 0.70505,6.9031 7.2088,10.872 13.219,11.562 l 0.0312,0.46875 c -1.1612,1.409 -1.8924,2.8087 -2.3438,4.1562 -13.082,5.1708 -45.787,11.173 -65.281,3.9688 -20.439,-3.7383 -20.927,-25.583 3.2812,-32.594 18.995,0.20433 38.941,0.39785 58.844,-1.6562 z"
   inkscape:connector-curvature="0"
   stroke-miterlimit="4"
   id="path338"
   style="fill:#efefef;stroke:#000000;stroke-width:3;stroke-miterlimit:4;stroke-dasharray:none" /><path
   d="m 413.3882,305.15749 c -4.8234,8.4876 -7.1771,19.558 -8.2812,30.5 -10.677,4.5326 -14.933,4.7989 -26.688,5.7812 -6.608,0.48331 -15.334,-3.6021 -16.156,-11.656 -0.39998,-3.9743 2.7788,-11.014 7.9062,-14.219 17.153,-1.9795 27.111,-5.8456 43.219,-10.406 z"
   inkscape:connector-curvature="0"
   stroke-miterlimit="4"
   id="path340"
   style="fill:#cccccc;stroke:#000000;stroke-width:3;stroke-miterlimit:4;stroke-dasharray:none" /><path
   d="m 405.0082,363.61749 c 2.1605,6.9961 6.9845,11.739 14.156,13.062 7.136,0.25191 10.826,-1.5801 17.625,-9.0625 -2.5646,10.514 -3.6697,20.657 -6.625,28.531 -2.6142,6.9649 -7.9847,11.675 -15.594,11.406 -8.1711,-1.5075 -12.556,-7.3452 -13.219,-16.125 -0.60771,-8.0542 -0.92338,-18.062 0,-27.969 1.3872,-0.0557 2.488,-0.32402 3.6562,0.15625 z"
   sodipodi:nodetypes="cccscscc"
   inkscape:connector-curvature="0"
   stroke-miterlimit="4"
   id="path342"
   style="fill:#cccccc;stroke:#000000;stroke-width:3;stroke-miterlimit:4;stroke-dasharray:none" /><path
   d="m 373.1382,345.96749 c -2.2259,6.6725 3.3351,12.262 7.5,13.531 4.8664,1.3159 8.555,2.5119 12.188,3.25 -13.66,7.1185 -36.038,14.943 -51.875,12.281 -14.31,0.25423 -20.507,-11.148 -14.531,-21.844 17.55,0.69826 37.25,-3.4824 46.719,-7.2188 z"
   inkscape:connector-curvature="0"
   stroke-miterlimit="4"
   id="path344"
   style="fill:#cccccc;stroke:#000000;stroke-width:3;stroke-miterlimit:4;stroke-dasharray:none" /><path
   d="m 259.6982,281.33749 c 0.33981,0.009 0.68397,0.0645 1.0625,0.15625 8.2073,5.294 24.091,9.7484 34.781,12.281 -1.254,5.5511 12.438,23.14 15.969,23.188 0.0327,0.12937 0.0621,0.24734 0.0937,0.375 -0.14431,-0.002 -0.2933,0.002 -0.4375,0 -7.8644,2.2776 -13.092,6.1271 -15.906,10.406 -2.4302,-0.47704 -4.7989,-0.99886 -7.0625,-1.5312 -30.904,-6.858 -39.034,-45.159 -28.5,-44.875 z"
   inkscape:connector-curvature="0"
   stroke-miterlimit="4"
   id="path346"
   style="fill:#cccccc;stroke:#000000;stroke-width:3;stroke-miterlimit:4;stroke-dasharray:none" /><path
   d="m 392.8182,362.74749 c 2.7344,0.5521 5.4481,0.8443 8.625,0.71875 -0.54882,7.4267 -0.70616,14.698 -0.46875,20.906 -7.7282,8.8038 -11.403,11.414 -18.969,10.562 -8.2569,-0.92933 -14.244,-7.3452 -14.906,-16.125 -0.14388,-1.907 -0.22532,-3.9333 -0.28125,-6.0312 9.5874,-2.5116 18.957,-6.3608 26,-10.031 z"
   inkscape:connector-curvature="0"
   stroke-miterlimit="4"
   id="path348"
   style="fill:#cccccc;stroke:#000000;stroke-width:3;stroke-miterlimit:4;stroke-dasharray:none" /><path
   d="m 436.8882,368.61749 c -0.21675,0.79457 0.4523,1.6957 1.4062,2.75 0.79767,11.668 6.504,21.116 13.156,27.625 0.0615,0.19881 0.0387,0.28018 -0.1875,0.0937 -4.4612,28.895 10.857,55.302 20.75,66.406 0.44492,0.63869 0.89213,1.275 1.2188,1.7188 3.3677,4.5755 -9.88,10.634 -21.406,1.5938 -13.947,-10.939 -27.2,-58.805 -21.656,-72.656 0.6315,-0.90151 0.91449,-1.825 0.96875,-2.8125 2.3635,-8.7329 3.768,-17.483 5.75,-24.719 z"
   inkscape:connector-curvature="0"
   stroke-miterlimit="4"
   id="path350"
   style="fill:#cccccc;stroke:#000000;stroke-width:3;stroke-miterlimit:4;stroke-dasharray:none" /><path
   d="m 430.1682,396.15749 c -4.871,12.17 4.7848,50.586 16.656,67.156 -0.76679,4.4529 -14.339,8.6163 -24.219,-0.25 -10.329,-9.2686 -11.119,-32.88 -10.094,-56 0.66009,0.19862 1.3439,0.36742 2.0625,0.5 7.1188,0.2513 12.255,-3.86 15.031,-10.094 0.006,-0.0125 0.0255,-0.0188 0.0312,-0.0312 0.18479,-0.41702 0.36786,-0.84594 0.53125,-1.2812 z"
   inkscape:connector-curvature="0"
   stroke-miterlimit="4"
   id="path352"
   style="fill:#cccccc;stroke:#000000;stroke-width:3;stroke-miterlimit:4;stroke-dasharray:none" /><path
   d="m 370.0082,315.68749 c -5.0297,3.2518 -8.1456,10.163 -7.75,14.094 0.70505,6.9031 7.2088,10.872 13.219,11.562 l 0.0312,0.46875 c -1.1612,1.409 -1.8924,2.8087 -2.3438,4.1562 -13.082,5.1708 -45.787,11.173 -65.281,3.9688 -20.439,-3.7383 -20.927,-25.583 3.2812,-32.594 18.995,0.20433 38.941,0.39785 58.844,-1.6562 z"
   inkscape:connector-curvature="0"
   stroke-miterlimit="4"
   id="path354"
   style="fill:#cccccc;stroke:#000000;stroke-width:3;stroke-miterlimit:4;stroke-dasharray:none" /><path
   d="m 77.4982,276.99749 c 59.078,15.865 119.33,23.279 179.44,20.281 2.9265,8.8934 9.8472,19.337 21.156,25.25 -57.214,10.761 -121.5,4.2182 -179.12,-2.3438 -14.349,-1.634 -32.003,-43.471 -21.469,-43.188 z"
   sodipodi:nodetypes="cccsc"
   inkscape:connector-curvature="0"
   stroke-miterlimit="4"
   id="path356"
   style="fill:#cccccc;stroke:#000000;stroke-width:3;stroke-miterlimit:4;stroke-dasharray:none" /><path
   d="m 97.6982,319.89749 c 0.4438,0.12269 0.874,0.23131 1.3125,0.28125 50.4,5.7394 105.91,11.449 157.31,5.5938 0.0205,-0.002 0.042,0.002 0.0625,0 3.6524,-0.41672 7.2673,-0.89965 10.875,-1.4375 0.0204,-0.003 0.0421,0.003 0.0625,0 1.7935,-0.26776 3.5937,-0.54451 5.375,-0.84375 0.0203,-0.003 0.0422,0.003 0.0625,0 1.7912,-0.3013 3.5658,-0.63456 5.3438,-0.96875 0.008,0.004 0.0231,-0.004 0.0312,0 3.0414,1.5899 6.3803,2.8704 10.062,3.6875 2.2636,0.53239 4.6323,1.0542 7.0625,1.5312 -4.2446,6.4536 -2.9698,13.905 3.3438,18.469 -53.183,16.604 -115.24,13.95 -176.03,5.8125 -14.314,-1.9161 -34.727,-31.653 -27.844,-31.625 0.9711,-0.1706 1.9565,-0.34101 2.9376,-0.5 0.01,-0.002 0.021,0.002 0.031,0 z"
   inkscape:connector-curvature="0"
   stroke-miterlimit="4"
   id="path358"
   style="fill:#cccccc;stroke:#000000;stroke-width:3;stroke-miterlimit:4;stroke-dasharray:none" /><path
   d="m 298.1382,345.83749 c 2.4415,1.8992 5.7094,3.3547 9.75,4.0938 5.5391,2.047 12.171,3.0154 19.094,3.25 -0.18667,-0.006 -0.3763,0.007 -0.5625,0 -2.5512,4.5665 -2.883,9.2631 -1.3125,13.125 -49.026,19.518 -116.02,24.363 -174.03,19.219 -14.385,-1.2756 -38.98,-33.284 -32.125,-33.906 0.1957,-0.0539 1.0486,0.0161 2.125,0.125 0.5091,0.13075 1.0042,0.21488 1.5,0.28125 60.789,8.1373 122.85,10.791 176.03,-5.8125 -0.16619,-0.12013 -0.30956,-0.25094 -0.46875,-0.375 z"
   inkscape:connector-curvature="0"
   stroke-miterlimit="4"
   id="path360"
   style="fill:#cccccc;stroke:#000000;stroke-width:3;stroke-miterlimit:4;stroke-dasharray:none" /><path
   d="m 306.1982,350.03749 c -33.182,18.854 -117.85,18.989 -150.8,15.75"
   inkscape:transform-center-x="-8.0083114"
   inkscape:transform-center-y="92.769125"
   inkscape:connector-curvature="0"
   stroke-miterlimit="10"
   sodipodi:nodetypes="cc"
   id="path362"
   style="fill:none;stroke:#000000;stroke-width:3;stroke-linecap:round;stroke-linejoin:round;stroke-miterlimit:4;stroke-dasharray:none" /><path
   d="m 325.1082,366.30749 c 2.1125,5.1783 7.6448,8.8644 15.844,8.7188 0.9498,0.15966 1.9127,0.28837 2.9062,0.375 -41.868,29.146 -100.67,39.054 -164.16,38.062 -13.537,-0.2114 -30.814,-23.718 -27.375,-27.844 57.727,4.966 124.11,0.0659 172.78,-19.312 z"
   inkscape:connector-curvature="0"
   stroke-miterlimit="4"
   id="path364"
   style="fill:#cccccc;stroke:#000000;stroke-width:3;stroke-miterlimit:4;stroke-dasharray:none" /><path
   d="m 366.8182,372.77749 c 0.0559,2.098 0.13737,4.1243 0.28125,6.0312 0.39179,5.1926 2.6715,9.5446 6.1562,12.438 -0.14595,0.17255 -0.29018,0.34635 -0.4375,0.5 -25.594,16.784 -63.32,29.563 -127.96,47.409 -36.86,10.18 -53.46,-18.31 -53.78,-25.63 59.1,-0.33 113.42,-10.73 152.78,-38.13 7.03,0.62 15.07,-0.55 22.96,-2.62 z"
   sodipodi:nodetypes="csccsccc"
   inkscape:connector-curvature="0"
   stroke-miterlimit="4"
   id="path366"
   style="fill:#cccccc;stroke:#000000;stroke-width:3;stroke-miterlimit:4;stroke-dasharray:none" /><path
   d="m 400.9482,384.39749 c 0.10103,2.4569 0.23976,4.8248 0.40625,7.0312 0.25403,3.3667 1.0538,6.2955 2.4062,8.7188 -24.826,18.543 -73.251,43.572 -117,51.812 -18.735,3.529 -33.244,-5.4039 -39.188,-13.281 1.1925,-0.43952 2.42,-0.85077 3.625,-1.2812 60.739,-16.928 96.889,-29.436 121.62,-45.656 0.14732,-0.15365 0.29155,-0.32745 0.4375,-0.5 2.4053,1.9973 5.3793,3.3081 8.75,3.6875 7.5558,0.85043 11.231,-1.7561 18.938,-10.531 z"
   inkscape:connector-curvature="0"
   stroke-miterlimit="4"
   id="path368"
   style="fill:#cccccc;stroke:#000000;stroke-width:3;stroke-miterlimit:4;stroke-dasharray:none" /><path
   d="m 403.7582,400.15749 c 1.8734,3.3568 4.815,5.7183 8.8125,6.9062 -6.2188,21.13 -39.045,39.318 -69.25,54.531 -29.65,14.934 -50.628,-0.58303 -56.781,-9.5938 0.0729,-0.0134 0.14577,-0.0176 0.21875,-0.0312 43.749,-8.2406 92.174,-33.269 117,-51.812 z"
   inkscape:connector-curvature="0"
   stroke-miterlimit="4"
   id="path370"
   style="fill:#cccccc;stroke:#000000;stroke-width:3;stroke-miterlimit:4;stroke-dasharray:none" /><path
   d="m 420.1982,406.74749 c -0.34409,0.11934 -0.70451,0.21847 -1.0625,0.3125 0.35451,-0.0935 0.72152,-0.19423 1.0625,-0.3125 z"
   inkscape:connector-curvature="0"
   stroke-miterlimit="4"
   id="path372"
   style="fill:#efefef;stroke:#000000;stroke-width:3;stroke-miterlimit:4;stroke-dasharray:none" /><path
   d="m 412.5082,407.27749 c -0.57192,13.051 -0.55136,26.239 1.4375,36.906 -5.6128,10.376 -13.784,18.624 -24.469,20.594 -14.075,2.5954 -23.281,-3.1695 -22.219,-15.375 2.5349,-1.0209 5.0815,-2.7738 7.625,-5 18.324,-11.153 33.499,-23.519 37.625,-37.125 z"
   inkscape:connector-curvature="0"
   stroke-miterlimit="4"
   id="path374"
   style="fill:#cccccc;stroke:#000000;stroke-width:3;stroke-miterlimit:4;stroke-dasharray:none" /><path
   d="m 459.6482,406.68749 c 1.322,18.575 6.1641,34.309 15.722,46.894"
   inkscape:transform-center-x="8.82996"
   inkscape:transform-center-y="92.695405"
   inkscape:connector-curvature="0"
   stroke-miterlimit="10"
   sodipodi:nodetypes="cc"
   id="path376"
   style="fill:none;stroke:#000000;stroke-width:3;stroke-linecap:round;stroke-linejoin:round;stroke-miterlimit:4;stroke-dasharray:none" /><path
   d="m 442.5982,387.13749 c -4.1154,22.89 0.32678,51.08 10.104,63.467"
   inkscape:transform-center-x="8.82996"
   inkscape:transform-center-y="92.695405"
   inkscape:connector-curvature="0"
   stroke-miterlimit="10"
   sodipodi:nodetypes="cc"
   id="path378"
   style="fill:none;stroke:#000000;stroke-width:3;stroke-linecap:round;stroke-linejoin:round;stroke-miterlimit:4;stroke-dasharray:none" /><path
   d="m 422.0982,406.51749 c -0.0825,18.575 1.6698,23.915 4.205,35.658"
   inkscape:transform-center-x="8.82996"
   inkscape:transform-center-y="92.695405"
   inkscape:connector-curvature="0"
   stroke-miterlimit="10"
   sodipodi:nodetypes="cc"
   id="path380"
   style="fill:none;stroke:#000000;stroke-width:3;stroke-linecap:round;stroke-linejoin:round;stroke-miterlimit:4;stroke-dasharray:none" /><path
   d="m 411.6482,425.38749 c -11.553,12.955 -13.539,16.064 -27.488,25.581"
   inkscape:transform-center-x="-8.0083114"
   inkscape:transform-center-y="92.769125"
   inkscape:connector-curvature="0"
   stroke-miterlimit="10"
   sodipodi:nodetypes="cc"
   id="path382"
   style="fill:none;stroke:#000000;stroke-width:3;stroke-linecap:round;stroke-linejoin:round;stroke-miterlimit:4;stroke-dasharray:none" /><path
   d="m 417.6682,377.00749 c -0.54851,4.2012 -1.5677,15.141 -0.57021,19.366"
   inkscape:transform-center-x="8.82996"
   inkscape:transform-center-y="92.695405"
   inkscape:connector-curvature="0"
   stroke-miterlimit="10"
   sodipodi:nodetypes="cc"
   id="path384"
   style="fill:none;stroke:#000000;stroke-width:3;stroke-linecap:round;stroke-linejoin:round;stroke-miterlimit:4;stroke-dasharray:none" /><path
   d="m 397.0282,364.09749 c -5.3237,5.3248 -11.68,11.77 -15.458,19.085"
   inkscape:transform-center-x="8.82996"
   inkscape:transform-center-y="92.695405"
   inkscape:connector-curvature="0"
   stroke-miterlimit="10"
   sodipodi:nodetypes="cc"
   id="path386"
   style="fill:none;stroke:#000000;stroke-width:3;stroke-linecap:round;stroke-linejoin:round;stroke-miterlimit:4;stroke-dasharray:none" /><path
   d="m 457.9682,329.40749 c -7.2052,12.216 -8.1001,45.743 0.27248,59.253"
   inkscape:transform-center-x="8.82996"
   inkscape:transform-center-y="92.695405"
   inkscape:connector-curvature="0"
   stroke-miterlimit="10"
   sodipodi:nodetypes="cc"
   id="path388"
   style="fill:none;stroke:#000000;stroke-width:3;stroke-linecap:round;stroke-linejoin:round;stroke-miterlimit:4;stroke-dasharray:none" /><path
   d="m 437.1682,304.54749 c -11.124,12.776 -18.015,34.358 -17.143,52.793"
   inkscape:transform-center-x="8.82996"
   inkscape:transform-center-y="92.695405"
   inkscape:connector-curvature="0"
   stroke-miterlimit="10"
   sodipodi:nodetypes="cc"
   id="path390"
   style="fill:none;stroke:#000000;stroke-width:3;stroke-linecap:round;stroke-linejoin:round;stroke-miterlimit:4;stroke-dasharray:none" /><path
   d="m 407.6282,317.88749 c -7.8518,6.1674 -15.893,9.5231 -24.165,11.501"
   inkscape:transform-center-x="8.82996"
   inkscape:transform-center-y="92.695405"
   inkscape:connector-curvature="0"
   stroke-miterlimit="10"
   sodipodi:nodetypes="cc"
   id="path392"
   style="fill:none;stroke:#000000;stroke-width:3;stroke-linecap:round;stroke-linejoin:round;stroke-miterlimit:4;stroke-dasharray:none" /><path
   d="m 404.1182,345.27749 c -5.8855,4.763 -13.084,6.995 -19.39,7.2875"
   inkscape:transform-center-x="8.82996"
   inkscape:transform-center-y="92.695405"
   inkscape:connector-curvature="0"
   stroke-miterlimit="10"
   sodipodi:nodetypes="cc"
   id="path394"
   style="fill:none;stroke:#000000;stroke-width:3;stroke-linecap:round;stroke-linejoin:round;stroke-miterlimit:4;stroke-dasharray:none" /><path
   d="m 306.3682,314.37749 c -12.346,0.26865 -23.478,-5.0835 -31.188,-9.8471"
   inkscape:transform-center-x="8.82996"
   inkscape:transform-center-y="92.695405"
   inkscape:connector-curvature="0"
   stroke-miterlimit="10"
   sodipodi:nodetypes="cc"
   id="path396"
   style="fill:none;stroke:#000000;stroke-width:3;stroke-linecap:round;stroke-linejoin:round;stroke-miterlimit:4;stroke-dasharray:none" /><path
   d="m 361.9782,329.26749 c -9.2563,7.8528 -31.062,14.017 -49.727,11.782"
   inkscape:transform-center-x="8.82996"
   inkscape:transform-center-y="92.695405"
   inkscape:connector-curvature="0"
   stroke-miterlimit="10"
   sodipodi:nodetypes="cc"
   id="path398"
   style="fill:none;stroke:#000000;stroke-width:3;stroke-linecap:round;stroke-linejoin:round;stroke-miterlimit:4;stroke-dasharray:none" /><path
   d="m 375.4682,356.23749 c -9.2563,5.6057 -20.949,7.8377 -30.626,7.2875"
   inkscape:transform-center-x="8.82996"
   inkscape:transform-center-y="92.695405"
   inkscape:connector-curvature="0"
   stroke-miterlimit="10"
   sodipodi:nodetypes="cc"
   id="path400"
   style="fill:none;stroke:#000000;stroke-width:3;stroke-linecap:round;stroke-linejoin:round;stroke-miterlimit:4;stroke-dasharray:none" /><path
   d="m 408.0282,405.93749 c -11.553,12.955 -49.213,34.884 -68.218,41.03"
   inkscape:transform-center-x="-8.0083114"
   inkscape:transform-center-y="92.769125"
   inkscape:connector-curvature="0"
   stroke-miterlimit="10"
   sodipodi:nodetypes="cc"
   id="path402"
   style="fill:none;stroke:#000000;stroke-width:3;stroke-linecap:round;stroke-linejoin:round;stroke-miterlimit:4;stroke-dasharray:none" /><path
   d="m 385.4082,395.67749 c -11.553,12.955 -73.931,35.727 -94.622,38.502"
   inkscape:transform-center-x="-8.0083114"
   inkscape:transform-center-y="92.769125"
   inkscape:connector-curvature="0"
   stroke-miterlimit="10"
   sodipodi:nodetypes="cc"
   id="path404"
   style="fill:none;stroke:#000000;stroke-width:3;stroke-linecap:round;stroke-linejoin:round;stroke-miterlimit:4;stroke-dasharray:none" /><path
   d="m 367.7182,381.21749 c -39.08,18.33 -69.718,31.193 -133.39,41.873"
   inkscape:transform-center-x="-8.0083114"
   inkscape:transform-center-y="92.769125"
   inkscape:connector-curvature="0"
   stroke-miterlimit="10"
   sodipodi:nodetypes="cc"
   id="path406"
   style="fill:none;stroke:#000000;stroke-width:3;stroke-linecap:round;stroke-linejoin:round;stroke-miterlimit:4;stroke-dasharray:none" /><path
   d="m 293.2782,331.20749 c -39.08,8.742 -124.49,7.3563 -159.23,0.30056"
   inkscape:transform-center-x="-8.0083114"
   inkscape:transform-center-y="92.769125"
   inkscape:connector-curvature="0"
   stroke-miterlimit="10"
   sodipodi:nodetypes="cc"
   id="path408"
   style="fill:none;stroke:#000000;stroke-width:3;stroke-linecap:round;stroke-linejoin:round;stroke-miterlimit:4;stroke-dasharray:none" /><path
   d="m 259.8482,305.00749 c -41.608,3.1241 -106.52,0.3339 -141.25,-6.7218"
   inkscape:transform-center-x="-8.0083114"
   inkscape:transform-center-y="92.769125"
   inkscape:connector-curvature="0"
   stroke-miterlimit="10"
   sodipodi:nodetypes="cc"
   id="path410"
   style="fill:none;stroke:#000000;stroke-width:3;stroke-linecap:round;stroke-linejoin:round;stroke-miterlimit:4;stroke-dasharray:none" /><ellipse
   style="fill:#000096;fill-opacity:1"
   id="ellipse414"
   sodipodi:cx="1095.7"
   cx="1095.7"
   cy="701.65002"
   transform="matrix(-1.3798563,-0.21608132,0.2154978,-1.3835926,1923.1772,1583.2764)"
   ry="69.610001"
   rx="69.807999"
   d="m 1165.5079,701.65002 c 0,38.44455 -31.2541,69.61001 -69.8079,69.61001 -38.5539,0 -69.808,-31.16546 -69.808,-69.61001 0,-38.44454 31.2541,-69.61 69.808,-69.61 38.5538,0 69.8079,31.16546 69.8079,69.61 z"
   sodipodi:cy="701.65002"
   sodipodi:ry="69.610001"
   sodipodi:rx="69.807999">
	</ellipse><path
   style="fill:#ffffff"
   id="path416"
   inkscape:connector-curvature="0"
   d="m 562.49616,310.61901 8.7065,32.4178 23.74526,-23.68772 -8.62689,32.45981 32.41126,-8.65026 -23.66426,23.80816 32.33166,8.73148 -32.33166,8.73147 23.66426,23.80956 -32.41126,-8.65025 8.62689,32.49902 -23.74526,-23.72833 -8.7065,32.41919 -8.7079,-32.41919 -23.74526,23.72833 8.6269,-32.49902 -32.41126,8.65025 23.66425,-23.76894 -32.33165,-8.77069 32.33165,-8.73148 -23.66425,-23.80816 32.41126,8.65026 -8.6269,-32.45981 23.74526,23.68772 8.7079,-32.4192 0,0 z" /><ellipse
   style="fill:#000096;fill-opacity:1"
   id="ellipse418"
   sodipodi:cx="1095.7"
   cx="1095.7"
   cy="701.65002"
   transform="matrix(-1.3798563,-0.21608132,0.2154978,-1.3835926,1923.1772,1583.2772)"
   ry="26.288"
   rx="26.362"
   d="m 1122.062,701.65002 c 0,14.51847 -11.8027,26.288 -26.362,26.288 -14.5594,0 -26.362,-11.76953 -26.362,-26.288 0,-14.51846 11.8026,-26.288 26.362,-26.288 14.5593,0 26.362,11.76954 26.362,26.288 z"
   sodipodi:cy="701.65002"
   sodipodi:ry="26.288"
   sodipodi:rx="26.362">
		</ellipse><ellipse
   style="fill:#ffffff"
   id="ellipse420"
   sodipodi:cx="1095.7"
   cx="1095.7"
   cy="701.65002"
   transform="matrix(-1.3798563,-0.21608132,0.2154978,-1.3835926,1923.1772,1583.2772)"
   ry="23.204"
   rx="23.268999"
   d="m 1118.969,701.65002 c 0,12.81522 -10.4179,23.204 -23.269,23.204 -12.8512,0 -23.269,-10.38878 -23.269,-23.204 0,-12.81521 10.4178,-23.204 23.269,-23.204 12.8511,0 23.269,10.38879 23.269,23.204 z"
   sodipodi:cy="701.65002"
   sodipodi:ry="23.204"
   sodipodi:rx="23.268999">
		</ellipse></svg>