<svg id="svg" version="1.1" xmlns="http://www.w3.org/2000/svg" xmlns:xlink="http://www.w3.org/1999/xlink" width="400" height="314.3859649122807" viewBox="0, 0, 400,314.3859649122807"><g id="svgg"><path id="path0" d="M189.465 63.213 C 173.651 64.773,159.202 68.389,147.239 73.780 C 146.326 74.192,145.514 74.528,145.435 74.528 C 145.079 74.528,137.660 78.246,135.587 79.464 C 134.319 80.208,133.245 80.818,133.200 80.818 C 132.856 80.818,125.227 85.659,123.270 87.118 C 122.665 87.570,121.321 88.562,120.283 89.322 C 119.245 90.082,117.958 91.063,117.421 91.500 C 116.885 91.938,115.824 92.790,115.063 93.395 C 107.251 99.601,97.474 110.854,91.019 121.069 C 89.860 122.903,86.683 128.957,85.739 131.132 C 85.250 132.256,84.629 133.668,84.358 134.270 C 83.458 136.265,81.236 143.200,80.677 145.755 C 80.374 147.138,80.012 148.553,79.871 148.899 C 76.894 156.217,78.727 186.116,82.868 197.799 C 87.513 210.904,94.863 220.730,105.804 228.459 C 108.599 230.434,119.444 237.694,120.432 238.252 C 121.000 238.574,121.695 238.980,121.975 239.155 C 127.829 242.819,138.483 247.217,145.912 249.035 C 147.382 249.395,149.080 249.818,149.686 249.977 C 150.291 250.135,151.918 250.502,153.302 250.791 C 154.686 251.081,156.313 251.436,156.918 251.579 C 159.445 252.178,166.356 253.325,171.226 253.954 C 171.918 254.044,173.449 254.255,174.629 254.423 C 192.938 257.038,214.919 257.023,233.019 254.384 C 239.449 253.446,243.218 252.725,250.000 251.133 C 254.630 250.047,258.329 248.982,262.893 247.421 C 264.363 246.919,266.396 246.233,267.409 245.897 C 268.423 245.561,270.051 244.941,271.026 244.518 C 272.001 244.096,273.931 243.263,275.314 242.667 C 278.902 241.123,281.387 239.934,283.035 238.974 C 283.823 238.515,285.096 237.782,285.866 237.345 C 287.064 236.664,288.486 235.829,290.825 234.434 C 291.744 233.886,294.399 232.019,297.484 229.752 C 300.533 227.511,309.985 218.361,311.351 216.329 C 312.171 215.109,315.319 210.296,315.964 209.277 C 319.296 204.009,323.130 193.577,324.979 184.748 C 329.048 165.319,328.190 147.250,322.633 135.302 C 322.292 134.569,322.013 133.887,322.013 133.787 C 322.013 133.391,318.214 126.022,316.495 123.084 C 310.130 112.203,300.533 101.003,290.997 93.325 C 286.237 89.492,285.253 88.736,283.511 87.570 C 282.484 86.883,280.322 85.436,278.706 84.355 C 277.091 83.274,275.699 82.390,275.614 82.390 C 275.529 82.390,274.861 82.009,274.129 81.542 C 272.205 80.317,267.557 77.830,264.465 76.373 C 260.045 74.290,259.356 73.978,257.390 73.169 C 252.768 71.267,252.323 71.113,242.296 67.939 C 239.249 66.974,232.256 65.392,228.459 64.807 C 226.038 64.435,223.208 63.991,222.170 63.822 C 214.254 62.529,199.228 62.250,189.465 63.213 M215.723 68.894 C 216.329 69.051,217.531 69.180,218.396 69.182 C 219.261 69.184,220.818 69.334,221.855 69.516 C 225.366 70.129,227.196 70.464,228.616 70.751 C 229.395 70.909,230.838 71.187,231.824 71.370 C 232.810 71.553,234.933 72.066,236.541 72.511 C 238.149 72.955,240.244 73.532,241.195 73.792 C 250.803 76.418,265.965 83.387,273.325 88.560 C 274.156 89.145,274.922 89.623,275.026 89.623 C 275.261 89.623,281.522 94.104,283.019 95.343 C 290.416 101.471,296.099 107.089,300.157 112.287 C 303.245 116.242,304.717 118.218,304.717 118.406 C 304.717 118.524,305.115 119.136,305.602 119.766 C 308.978 124.138,315.000 136.297,316.539 141.850 C 316.799 142.787,317.225 144.332,317.487 145.283 C 318.655 149.529,319.341 164.195,318.591 168.868 C 318.410 169.992,318.114 172.327,317.933 174.057 C 317.406 179.080,317.051 180.971,315.598 186.478 C 314.316 191.338,313.872 192.888,313.568 193.553 C 313.410 193.899,312.887 195.173,312.405 196.384 C 306.515 211.180,297.367 221.141,280.265 231.377 C 278.443 232.468,271.097 236.051,268.868 236.936 C 268.090 237.245,266.887 237.762,266.195 238.084 C 264.162 239.031,253.975 242.377,249.843 243.455 C 249.151 243.636,248.231 243.899,247.799 244.041 C 247.366 244.182,245.810 244.521,244.340 244.794 C 242.869 245.067,241.101 245.424,240.409 245.588 C 238.015 246.154,234.108 246.838,231.289 247.185 C 219.994 248.574,218.560 248.680,208.019 248.905 C 194.407 249.195,184.993 248.520,168.553 246.076 C 165.279 245.590,164.769 245.498,159.906 244.527 C 158.522 244.251,156.965 243.948,156.447 243.853 C 155.928 243.758,155.008 243.553,154.403 243.398 C 153.797 243.242,152.311 242.874,151.101 242.580 C 143.639 240.767,133.420 236.583,127.284 232.830 C 121.939 229.560,118.340 227.170,112.335 222.902 C 110.165 221.360,105.662 217.579,103.948 215.860 C 101.485 213.390,97.913 208.551,96.187 205.346 C 95.675 204.395,94.986 203.121,94.657 202.516 C 92.362 198.297,89.688 190.510,88.718 185.220 C 88.544 184.269,88.256 182.712,88.078 181.761 C 85.777 169.433,87.232 150.169,91.358 138.365 C 91.993 136.549,92.614 134.921,92.739 134.748 C 92.863 134.575,93.375 133.443,93.876 132.233 C 94.681 130.289,95.671 128.376,98.077 124.115 C 99.156 122.203,100.195 120.575,102.427 117.296 C 111.121 104.521,126.103 91.488,141.195 83.571 C 142.492 82.891,144.049 82.070,144.654 81.748 C 150.252 78.768,162.660 74.034,167.653 72.973 C 168.408 72.813,169.591 72.521,170.283 72.325 C 170.975 72.129,172.602 71.753,173.899 71.489 C 175.197 71.225,176.895 70.875,177.673 70.710 C 178.451 70.545,179.866 70.292,180.818 70.146 C 181.769 70.000,182.901 69.793,183.333 69.686 C 187.923 68.545,212.091 67.954,215.723 68.894 M132.305 146.553 C 121.091 148.439,114.576 156.989,115.745 168.285 C 116.086 171.584,116.575 172.974,118.497 176.101 C 126.640 189.350,147.474 187.967,153.023 173.809 C 154.557 169.895,155.682 169.407,162.107 169.865 C 166.975 170.213,174.488 170.574,186.164 171.022 C 196.287 171.410,222.912 171.409,228.302 171.019 C 252.834 169.247,252.275 169.175,252.606 174.123 C 253.106 181.613,259.618 186.065,269.718 185.822 C 279.886 185.578,286.248 181.766,289.356 174.057 C 291.007 169.963,290.849 162.907,289.022 159.119 C 286.259 153.390,283.658 150.552,279.088 148.278 L 275.943 146.714 272.253 146.594 C 265.447 146.374,260.112 147.938,257.320 150.971 C 254.683 153.836,253.963 154.807,253.028 156.761 C 252.448 157.972,251.799 159.704,251.585 160.610 C 250.799 163.942,249.565 164.528,242.138 165.091 C 222.408 166.587,165.045 166.119,158.338 164.407 C 155.991 163.808,154.832 162.552,154.250 159.976 C 153.426 156.329,150.863 152.374,147.727 149.912 C 145.972 148.533,144.486 147.849,141.824 147.195 C 138.248 146.316,135.010 146.098,132.305 146.553 " stroke="none" fill="#0a0a0a" fill-rule="evenodd"></path><path id="path1" d="M0.000 157.233 L 0.000 314.465 200.000 314.465 L 400.000 314.465 400.000 157.233 L 400.000 0.000 200.000 0.000 L 0.000 0.000 0.000 157.233 M214.151 62.212 C 219.620 62.666,223.907 63.165,225.375 63.519 C 226.100 63.694,227.190 63.836,227.797 63.836 C 228.405 63.836,229.226 63.962,229.624 64.115 C 230.021 64.269,231.266 64.562,232.390 64.767 C 234.604 65.172,239.680 66.385,242.453 67.173 C 243.404 67.443,244.607 67.781,245.126 67.925 C 246.462 68.295,253.491 70.715,254.245 71.064 C 254.591 71.224,255.794 71.722,256.918 72.171 C 258.042 72.619,259.528 73.247,260.220 73.567 C 260.912 73.887,262.044 74.396,262.736 74.699 C 273.635 79.471,287.059 88.364,296.331 96.955 C 307.057 106.893,314.376 116.636,320.703 129.403 C 328.634 145.406,330.036 157.500,326.606 180.346 C 326.142 183.432,326.042 183.947,325.466 186.164 C 325.309 186.769,324.952 188.255,324.673 189.465 C 324.120 191.860,323.099 195.202,322.462 196.698 C 322.242 197.217,321.957 198.060,321.829 198.571 C 321.702 199.082,321.114 200.568,320.523 201.873 C 319.933 203.178,319.226 204.741,318.953 205.346 C 317.908 207.666,313.955 214.226,312.751 215.638 C 312.570 215.851,311.855 216.767,311.164 217.675 C 302.846 228.588,283.252 241.579,267.350 246.726 C 266.542 246.987,265.597 247.330,265.252 247.486 C 264.906 247.643,263.349 248.144,261.792 248.599 C 260.236 249.055,258.679 249.540,258.333 249.678 C 254.107 251.361,238.147 254.615,228.774 255.705 C 213.719 257.455,192.536 257.505,180.189 255.819 C 179.410 255.713,176.509 255.334,173.742 254.978 C 165.406 253.903,164.654 253.798,163.836 253.594 C 163.404 253.486,161.847 253.199,160.377 252.956 C 156.765 252.357,151.942 251.332,146.541 250.015 C 143.214 249.203,137.013 247.248,135.063 246.396 C 134.544 246.169,133.129 245.582,131.918 245.090 C 128.153 243.562,119.298 238.791,118.545 237.883 C 118.335 237.629,118.028 237.421,117.864 237.421 C 117.700 237.421,116.904 236.961,116.094 236.399 C 115.285 235.837,114.384 235.236,114.093 235.063 C 113.658 234.805,109.389 231.903,106.460 229.874 C 96.713 223.123,89.893 215.422,85.713 206.447 C 85.391 205.755,84.724 204.350,84.230 203.325 C 83.737 202.300,83.333 201.343,83.333 201.199 C 83.333 201.055,83.059 200.337,82.723 199.603 C 82.005 198.033,80.608 193.324,79.577 188.994 C 77.291 179.398,77.148 158.009,79.304 148.113 C 79.473 147.335,79.687 146.237,79.778 145.673 C 79.869 145.109,80.070 144.570,80.223 144.475 C 80.377 144.380,80.503 143.975,80.503 143.574 C 80.503 141.196,85.366 129.408,88.879 123.270 C 90.940 119.669,94.413 114.326,95.527 113.040 C 95.682 112.862,96.265 112.083,96.823 111.311 C 99.046 108.233,101.647 105.313,106.604 100.331 C 111.294 95.618,113.130 93.961,117.610 90.396 C 118.388 89.776,119.287 89.055,119.608 88.793 C 119.928 88.530,120.919 87.832,121.809 87.241 C 122.699 86.650,124.277 85.562,125.314 84.824 C 127.728 83.106,130.976 81.132,131.389 81.132 C 131.565 81.132,131.756 81.002,131.813 80.843 C 132.033 80.238,141.101 75.534,146.193 73.384 C 148.028 72.609,149.953 71.783,150.472 71.547 C 150.991 71.311,151.840 71.017,152.358 70.893 C 152.877 70.769,153.445 70.556,153.621 70.420 C 153.796 70.284,155.282 69.720,156.923 69.167 C 159.968 68.142,160.500 67.982,163.522 67.178 C 164.473 66.926,166.313 66.432,167.610 66.082 C 168.907 65.731,170.888 65.282,172.013 65.084 C 173.137 64.885,174.693 64.587,175.472 64.420 C 178.085 63.861,180.326 63.519,183.491 63.194 C 185.220 63.017,187.239 62.735,187.976 62.568 C 188.714 62.401,190.553 62.250,192.064 62.233 C 193.575 62.216,195.165 62.086,195.597 61.944 C 196.576 61.624,209.274 61.807,214.151 62.212 M197.013 69.212 C 185.795 70.122,185.969 70.104,180.031 71.039 C 172.553 72.217,161.367 75.334,154.479 78.159 C 146.778 81.317,138.736 85.510,132.706 89.511 C 117.531 99.580,106.535 111.042,98.056 125.629 C 97.028 127.399,94.025 133.462,94.025 133.769 C 94.025 133.879,93.728 134.640,93.365 135.459 C 92.304 137.854,92.196 138.127,91.660 139.780 C 90.464 143.461,89.370 147.824,89.018 150.314 C 88.810 151.785,88.497 153.695,88.322 154.560 C 87.932 156.484,88.165 176.472,88.616 179.874 C 89.430 186.009,90.840 191.858,92.446 195.755 C 94.909 201.730,97.843 207.110,100.446 210.425 C 100.806 210.884,101.448 211.733,101.873 212.312 C 102.951 213.782,107.679 218.371,109.719 219.929 C 113.803 223.045,117.475 225.608,122.170 228.620 C 124.937 230.395,127.555 232.087,127.987 232.380 C 128.971 233.045,137.973 237.454,140.104 238.314 C 141.470 238.865,144.202 239.788,147.642 240.860 C 148.897 241.252,154.399 242.578,156.761 243.059 C 157.799 243.270,159.143 243.564,159.748 243.711 C 161.506 244.140,164.468 244.714,166.509 245.024 C 167.547 245.181,169.175 245.434,170.126 245.586 C 190.581 248.861,212.370 249.132,231.604 246.351 C 235.153 245.838,236.173 245.660,240.252 244.845 C 246.060 243.683,245.706 243.768,250.943 242.300 C 254.996 241.165,257.609 240.393,258.176 240.162 C 258.436 240.057,259.859 239.552,261.339 239.041 C 280.733 232.339,297.583 220.436,305.700 207.704 C 308.160 203.847,312.264 195.660,312.264 194.612 C 312.264 194.458,312.531 193.733,312.856 193.000 C 313.397 191.783,314.048 189.674,314.772 186.792 C 315.617 183.431,316.332 180.159,316.524 178.774 C 316.644 177.909,316.869 176.423,317.025 175.472 C 318.429 166.863,318.559 152.753,317.281 147.720 C 317.116 147.072,316.843 146.010,316.673 145.362 C 312.277 128.532,300.829 111.399,285.101 98.113 C 283.566 96.816,282.125 95.578,281.900 95.362 C 281.675 95.145,281.383 94.969,281.250 94.969 C 281.118 94.969,280.648 94.636,280.206 94.230 C 279.382 93.472,273.370 89.308,273.100 89.308 C 273.017 89.308,272.279 88.842,271.459 88.273 C 268.557 86.256,258.687 81.079,254.874 79.573 C 253.836 79.163,252.846 78.734,252.673 78.619 C 252.500 78.504,251.651 78.163,250.786 77.860 C 249.921 77.557,248.931 77.186,248.585 77.034 C 248.044 76.798,243.043 75.143,240.094 74.225 C 237.430 73.395,229.544 71.603,225.943 71.008 C 224.906 70.837,223.278 70.564,222.327 70.403 C 216.536 69.420,202.556 68.762,197.013 69.212 M136.971 145.597 C 140.120 146.128,142.221 146.572,143.976 147.077 C 148.815 148.471,153.920 154.327,155.022 159.748 C 155.453 161.871,155.779 162.321,157.561 163.257 C 159.055 164.041,158.597 163.993,172.013 164.772 C 180.616 165.271,228.388 165.284,235.535 164.789 C 238.561 164.579,242.170 164.345,243.553 164.269 C 248.570 163.992,250.015 163.215,250.814 160.369 C 253.622 150.362,260.052 145.912,271.706 145.912 L 275.960 145.912 279.423 147.616 C 289.407 152.527,293.746 164.034,289.759 175.025 C 288.801 177.668,284.163 183.333,282.958 183.333 C 282.811 183.333,282.163 183.674,281.518 184.091 C 280.225 184.926,275.560 186.164,273.705 186.164 C 273.055 186.164,271.714 186.330,270.727 186.534 C 268.917 186.908,267.897 186.816,262.579 185.799 C 258.978 185.111,254.494 182.092,253.239 179.512 C 252.264 177.508,252.170 177.139,251.905 174.316 C 251.519 170.187,251.598 170.198,231.918 171.561 C 221.940 172.252,203.508 172.488,193.553 172.052 C 189.057 171.855,181.415 171.539,176.572 171.349 C 164.196 170.865,159.364 170.581,158.721 170.298 C 157.195 169.628,154.990 171.413,153.600 174.444 C 145.653 191.770,119.760 189.081,115.234 170.459 C 114.217 166.271,115.205 158.371,117.118 155.402 C 120.085 150.798,127.823 145.983,132.406 145.890 C 133.003 145.878,133.774 145.746,134.119 145.597 C 134.954 145.239,134.842 145.239,136.971 145.597 " stroke="none" fill="#fbfbfb" fill-rule="evenodd"></path><path id="path2" d="M195.597 61.950 C 195.165 62.088,193.575 62.216,192.064 62.233 C 190.553 62.250,188.714 62.401,187.976 62.568 C 187.239 62.735,185.220 63.017,183.491 63.194 C 178.820 63.673,176.780 63.993,176.505 64.290 C 176.369 64.436,176.682 64.478,177.201 64.383 C 177.720 64.288,179.984 63.978,182.233 63.693 C 184.481 63.408,187.099 63.034,188.050 62.861 C 189.002 62.689,194.564 62.462,200.412 62.357 C 206.260 62.253,210.859 62.050,210.632 61.906 C 210.108 61.574,196.649 61.613,195.597 61.950 M214.465 62.607 C 219.620 62.976,225.878 63.803,230.782 64.763 C 232.580 65.115,233.530 65.186,233.296 64.952 C 233.000 64.656,227.685 63.782,222.799 63.226 C 221.069 63.029,219.051 62.732,218.313 62.566 C 217.576 62.400,215.665 62.288,214.068 62.318 L 211.164 62.371 214.465 62.607 M173.742 64.780 L 173.113 65.050 173.742 65.035 C 174.088 65.027,174.796 64.912,175.314 64.780 L 176.258 64.540 175.314 64.525 C 174.796 64.516,174.088 64.631,173.742 64.780 M168.868 65.732 C 167.571 66.063,166.014 66.473,165.409 66.643 C 164.803 66.812,163.459 67.189,162.421 67.479 C 158.888 68.469,153.932 70.176,153.616 70.512 C 153.397 70.746,153.491 70.775,153.931 70.609 C 156.508 69.630,164.060 67.296,164.646 67.296 C 165.045 67.296,165.459 67.154,165.566 66.981 C 165.673 66.808,166.058 66.667,166.422 66.667 C 166.785 66.667,167.803 66.459,168.683 66.204 C 169.563 65.950,170.849 65.611,171.541 65.451 C 172.391 65.254,172.544 65.154,172.013 65.144 C 171.580 65.136,170.165 65.400,168.868 65.732 M233.674 65.224 C 233.746 65.296,235.079 65.657,236.635 66.026 C 238.192 66.395,240.456 66.989,241.667 67.346 C 242.877 67.703,244.575 68.201,245.440 68.454 C 246.305 68.706,247.296 69.034,247.642 69.182 C 247.987 69.330,249.261 69.766,250.472 70.150 C 254.806 71.525,263.879 75.375,267.567 77.404 C 268.888 78.131,270.676 79.104,271.541 79.567 C 273.988 80.877,275.425 81.732,278.145 83.498 C 279.528 84.397,280.966 85.329,281.339 85.569 C 283.117 86.714,287.403 89.840,288.581 90.851 C 289.305 91.472,290.776 92.689,291.849 93.553 C 306.883 105.671,319.686 124.013,325.323 141.509 C 328.196 150.428,328.781 163.469,326.875 176.101 C 326.038 181.647,325.455 185.044,325.123 186.314 C 324.942 187.010,324.665 188.074,324.508 188.679 C 319.208 209.184,309.039 223.283,291.509 234.431 C 290.212 235.256,288.776 236.190,288.318 236.505 C 280.731 241.731,259.691 249.779,247.704 252.040 C 245.580 252.441,244.625 252.832,245.781 252.828 C 246.698 252.825,256.793 250.291,258.333 249.678 C 258.679 249.540,260.236 249.055,261.792 248.599 C 263.349 248.144,264.906 247.643,265.252 247.486 C 265.597 247.330,266.542 246.987,267.350 246.726 C 283.252 241.579,302.846 228.588,311.164 217.675 C 311.855 216.767,312.570 215.851,312.751 215.638 C 313.955 214.226,317.908 207.666,318.953 205.346 C 319.226 204.741,319.933 203.178,320.523 201.873 C 321.114 200.568,321.702 199.082,321.829 198.571 C 321.957 198.060,322.242 197.217,322.462 196.698 C 323.095 195.213,324.118 191.870,324.676 189.465 C 324.957 188.255,325.262 186.981,325.354 186.635 C 326.060 183.969,326.827 179.428,327.344 174.843 C 329.099 159.289,328.536 150.078,325.222 140.094 C 320.752 126.630,310.727 110.902,299.790 100.196 C 289.195 89.824,275.048 80.090,262.736 74.699 C 262.044 74.396,260.912 73.887,260.220 73.567 C 259.528 73.247,258.042 72.619,256.918 72.171 C 255.794 71.722,254.591 71.224,254.245 71.064 C 253.489 70.714,246.459 68.294,245.126 67.926 C 244.607 67.782,243.333 67.426,242.296 67.134 C 237.334 65.738,233.289 64.842,233.674 65.224 M202.358 68.769 C 212.518 69.477,220.906 70.164,222.327 70.404 C 223.278 70.565,224.906 70.837,225.943 71.008 C 229.544 71.603,237.430 73.395,240.094 74.225 C 243.043 75.143,248.044 76.798,248.585 77.034 C 248.931 77.186,249.921 77.557,250.786 77.860 C 251.651 78.163,252.500 78.504,252.673 78.619 C 252.846 78.734,253.836 79.163,254.874 79.573 C 258.687 81.079,268.557 86.256,271.459 88.273 C 272.279 88.842,273.017 89.308,273.100 89.308 C 273.370 89.308,279.382 93.472,280.206 94.230 C 280.648 94.636,281.118 94.969,281.250 94.969 C 281.383 94.969,281.675 95.145,281.900 95.362 C 282.125 95.578,283.566 96.816,285.101 98.113 C 300.872 111.436,312.159 128.342,316.699 145.440 C 317.464 148.321,317.597 149.057,317.954 152.358 C 318.508 157.477,318.032 169.296,317.025 175.472 C 316.869 176.423,316.644 177.909,316.524 178.774 C 316.312 180.301,315.335 184.726,314.787 186.635 C 314.228 188.585,314.193 189.701,314.747 187.893 C 316.272 182.920,317.108 178.555,317.997 170.912 C 318.434 167.158,318.425 152.278,317.985 149.686 C 315.842 137.076,309.044 123.748,297.662 109.845 C 294.773 106.316,287.663 99.633,281.706 94.849 C 275.408 89.791,262.626 82.371,254.086 78.814 C 247.869 76.226,242.298 74.400,235.692 72.785 C 229.788 71.342,228.947 71.161,225.472 70.592 C 223.829 70.322,221.777 69.974,220.912 69.818 C 218.661 69.412,211.029 68.891,205.346 68.754 C 202.665 68.690,201.321 68.696,202.358 68.769 M190.409 69.237 C 188.679 69.389,186.557 69.642,185.692 69.800 C 184.827 69.958,182.634 70.313,180.818 70.588 C 179.002 70.864,176.950 71.216,176.258 71.372 C 172.914 72.122,171.970 72.346,169.366 73.001 C 167.824 73.390,166.721 73.760,166.913 73.824 C 167.106 73.889,168.297 73.660,169.560 73.316 C 172.571 72.497,177.280 71.473,180.031 71.039 C 185.969 70.104,185.795 70.122,197.013 69.212 L 200.157 68.957 196.855 68.960 C 195.039 68.961,192.138 69.086,190.409 69.237 M151.887 70.975 C 151.627 71.069,150.991 71.332,150.472 71.561 C 149.953 71.789,148.028 72.609,146.193 73.384 C 141.101 75.534,132.033 80.238,131.813 80.843 C 131.756 81.002,131.565 81.132,131.389 81.132 C 130.976 81.132,127.728 83.106,125.314 84.824 C 124.277 85.562,122.699 86.650,121.809 87.241 C 120.919 87.832,119.928 88.530,119.608 88.793 C 119.287 89.055,118.388 89.776,117.610 90.396 C 113.130 93.961,111.294 95.618,106.604 100.331 C 101.647 105.313,99.046 108.233,96.823 111.311 C 96.265 112.083,95.682 112.862,95.527 113.040 C 94.413 114.326,90.940 119.669,88.879 123.270 C 85.366 129.408,80.503 141.196,80.503 143.574 C 80.503 143.975,80.377 144.380,80.223 144.475 C 80.070 144.570,79.869 145.109,79.778 145.673 C 79.687 146.237,79.473 147.335,79.304 148.113 C 77.148 158.009,77.291 179.398,79.577 188.994 C 80.608 193.324,82.005 198.033,82.723 199.603 C 83.059 200.337,83.333 201.055,83.333 201.199 C 83.333 201.343,83.737 202.300,84.230 203.325 C 84.724 204.350,85.391 205.755,85.713 206.447 C 89.893 215.422,96.713 223.123,106.460 229.874 C 109.389 231.903,113.658 234.805,114.093 235.063 C 114.384 235.236,115.285 235.837,116.094 236.399 C 116.904 236.961,117.700 237.421,117.864 237.421 C 118.028 237.421,118.335 237.629,118.545 237.883 C 119.298 238.791,128.153 243.562,131.918 245.090 C 133.129 245.582,134.544 246.169,135.063 246.396 C 136.268 246.923,141.456 248.646,143.709 249.268 C 147.626 250.350,156.076 252.261,158.962 252.718 C 161.229 253.076,159.900 252.514,157.357 252.038 C 155.992 251.782,154.237 251.424,153.459 251.242 C 152.681 251.060,151.407 250.789,150.629 250.639 C 141.919 248.965,129.135 244.079,122.170 239.763 C 121.132 239.120,120.000 238.434,119.654 238.239 C 118.512 237.594,109.005 231.235,106.761 229.616 C 101.093 225.526,100.771 225.266,97.536 222.170 C 91.533 216.423,86.665 208.854,83.189 199.858 C 81.468 195.405,79.245 186.548,79.245 184.142 C 79.245 183.576,79.103 182.702,78.928 182.201 C 78.066 179.721,78.066 156.351,78.929 151.887 C 84.453 123.292,102.648 98.685,130.753 81.800 C 134.760 79.393,144.551 74.214,145.095 74.214 C 145.188 74.214,146.041 73.859,146.990 73.424 C 147.940 72.990,149.748 72.216,151.009 71.703 C 152.883 70.942,153.582 70.362,151.887 70.975 M164.937 74.214 L 164.308 74.484 164.937 74.501 C 165.283 74.511,165.778 74.381,166.038 74.214 C 166.663 73.810,165.877 73.810,164.937 74.214 M161.164 75.338 C 159.953 75.762,158.396 76.303,157.704 76.541 C 137.607 83.441,117.023 98.388,104.610 115.094 C 100.940 120.034,100.793 120.259,97.311 126.258 C 93.320 133.136,89.505 143.989,88.303 151.887 C 87.403 157.799,87.860 180.015,88.979 184.748 C 89.142 185.440,89.363 186.551,89.470 187.218 C 89.576 187.884,89.737 188.355,89.828 188.264 C 89.919 188.173,89.754 186.779,89.462 185.166 C 89.170 183.553,88.790 181.171,88.617 179.874 C 88.165 176.479,87.932 156.487,88.322 154.560 C 88.497 153.695,88.810 151.785,89.018 150.314 C 89.370 147.824,90.464 143.461,91.660 139.780 C 92.196 138.127,92.304 137.854,93.365 135.459 C 93.728 134.640,94.025 133.879,94.025 133.769 C 94.025 133.462,97.028 127.399,98.056 125.629 C 106.535 111.042,117.531 99.580,132.706 89.511 C 140.793 84.145,152.357 78.535,160.928 75.819 C 163.905 74.876,164.747 74.498,163.758 74.548 C 163.542 74.559,162.374 74.915,161.164 75.338 M134.119 145.594 C 133.679 145.786,134.143 145.874,135.666 145.890 C 136.862 145.902,137.782 145.859,137.710 145.795 C 137.379 145.500,134.682 145.349,134.119 145.594 M130.346 146.226 L 129.717 146.497 130.346 146.482 C 130.692 146.473,131.399 146.358,131.918 146.226 L 132.862 145.986 131.918 145.971 C 131.399 145.963,130.692 146.078,130.346 146.226 M138.836 146.226 C 139.355 146.358,140.063 146.473,140.409 146.482 L 141.038 146.497 140.409 146.226 C 140.063 146.078,139.355 145.963,138.836 145.971 L 137.893 145.986 138.836 146.226 M265.881 146.243 C 265.285 146.405,265.750 146.435,267.138 146.324 C 268.349 146.228,269.399 146.096,269.471 146.030 C 269.711 145.813,266.837 145.983,265.881 146.243 M274.843 146.228 C 276.373 146.490,278.971 147.628,281.837 149.293 C 284.755 150.987,288.355 155.972,290.298 161.006 C 291.116 163.124,290.839 170.763,289.835 173.793 C 288.099 179.029,283.314 183.720,278.467 184.938 C 277.607 185.154,277.066 185.385,277.266 185.451 C 277.839 185.642,280.748 184.683,281.742 183.976 C 282.238 183.623,282.775 183.333,282.935 183.333 C 284.160 183.333,288.791 177.696,289.759 175.025 C 292.856 166.489,290.904 157.402,284.614 151.061 C 282.410 148.839,276.688 145.891,274.694 145.949 L 273.428 145.986 274.843 146.228 M127.015 147.279 C 120.604 149.917,114.874 157.053,115.127 162.088 C 115.145 162.444,115.292 162.170,115.455 161.478 C 116.611 156.558,117.071 155.634,119.635 153.084 C 122.139 150.595,125.018 148.471,126.887 147.736 C 129.315 146.780,129.713 146.583,129.245 146.570 C 128.986 146.562,127.982 146.881,127.015 147.279 M143.641 147.310 C 148.828 148.990,153.513 154.389,154.720 160.077 C 155.179 162.239,156.495 163.552,158.775 164.120 C 160.116 164.455,167.468 164.847,167.190 164.569 C 167.084 164.464,165.188 164.288,162.977 164.178 C 157.182 163.890,155.696 163.062,155.022 159.748 C 153.766 153.570,146.684 146.437,141.922 146.555 C 141.609 146.563,142.382 146.903,143.641 147.310 M261.925 147.116 C 257.004 148.913,252.441 154.376,250.802 160.434 C 250.476 161.636,250.009 162.618,249.658 162.837 C 248.384 163.633,246.287 164.143,244.182 164.170 C 242.972 164.185,241.344 164.316,240.566 164.460 C 239.626 164.635,240.364 164.669,242.767 164.562 C 249.113 164.278,250.264 163.697,251.242 160.275 C 252.039 157.487,253.545 154.526,254.965 152.952 C 255.607 152.240,256.452 151.283,256.843 150.823 C 257.924 149.553,260.648 147.934,262.908 147.218 C 264.024 146.865,264.583 146.579,264.151 146.583 C 263.719 146.587,262.717 146.826,261.925 147.116 M114.832 165.736 C 114.679 174.557,120.000 181.995,128.572 184.944 C 129.515 185.269,130.513 185.527,130.788 185.518 C 131.064 185.508,130.485 185.244,129.502 184.929 C 120.893 182.176,115.632 175.391,115.097 166.352 L 114.883 162.736 114.832 165.736 M173.113 165.109 C 175.016 165.230,185.275 165.404,195.912 165.494 C 211.968 165.631,213.036 165.617,202.201 165.410 C 179.978 164.987,169.506 164.879,173.113 165.109 M224.214 165.094 L 215.566 165.267 224.057 165.305 C 228.726 165.325,233.821 165.238,235.377 165.111 L 238.208 164.880 235.535 164.901 C 234.064 164.912,228.970 164.999,224.214 165.094 M156.761 170.197 C 155.363 170.674,154.220 171.884,153.609 173.535 C 150.824 181.058,143.765 185.681,135.063 185.680 C 132.601 185.680,131.726 185.758,132.547 185.904 C 140.971 187.401,149.882 182.550,153.600 174.444 C 155.132 171.104,157.086 169.684,159.157 170.406 C 159.707 170.598,161.586 170.735,163.333 170.712 L 166.509 170.669 163.836 170.423 C 162.366 170.288,160.385 170.109,159.434 170.026 C 158.483 169.943,157.280 170.020,156.761 170.197 M237.736 170.774 C 235.401 170.891,231.085 171.179,228.145 171.415 C 222.378 171.877,202.258 171.986,187.736 171.634 L 179.403 171.432 187.264 171.785 C 200.024 172.357,221.695 172.264,231.447 171.595 C 251.772 170.199,251.517 170.165,251.905 174.316 C 252.511 180.781,258.358 186.352,264.308 186.133 C 264.654 186.120,263.901 185.842,262.635 185.515 C 256.215 183.857,252.830 180.230,252.236 174.372 C 251.798 170.049,251.877 170.069,237.736 170.774 M169.340 171.086 C 173.346 171.413,179.560 171.389,177.673 171.053 C 176.895 170.915,174.064 170.813,171.384 170.828 C 166.840 170.853,166.702 170.870,169.340 171.086 M274.057 185.849 L 272.799 186.074 274.057 186.088 C 274.748 186.095,275.668 185.988,276.101 185.849 L 276.887 185.597 276.101 185.611 C 275.668 185.618,274.748 185.725,274.057 185.849 M266.679 186.514 C 267.105 186.633,268.090 186.730,268.868 186.730 C 269.646 186.730,270.631 186.633,271.057 186.514 C 271.482 186.395,270.497 186.298,268.868 186.298 C 267.239 186.298,266.254 186.395,266.679 186.514 M89.937 188.887 C 89.937 189.837,92.168 196.166,93.606 199.294 C 94.182 200.548,94.654 201.659,94.654 201.762 C 94.654 201.999,96.528 205.151,98.373 208.019 C 100.465 211.270,104.253 215.926,105.607 216.908 C 106.258 217.381,107.732 218.600,108.883 219.617 C 110.033 220.635,111.321 221.696,111.744 221.976 C 112.167 222.256,114.261 223.707,116.398 225.202 C 127.077 232.673,144.532 241.736,145.799 240.469 C 145.875 240.394,145.188 240.097,144.273 239.810 C 140.648 238.673,130.331 233.966,127.987 232.380 C 127.555 232.087,124.937 230.395,122.170 228.620 C 117.475 225.608,113.803 223.045,109.719 219.929 C 107.679 218.371,102.951 213.782,101.873 212.312 C 101.448 211.733,100.806 210.884,100.446 210.425 C 98.231 207.605,95.837 203.424,93.754 198.742 C 92.131 195.091,91.832 194.277,90.722 190.487 C 90.257 188.897,89.937 188.246,89.937 188.887 M313.665 190.765 C 313.553 191.261,313.193 192.267,312.863 193.000 C 312.534 193.733,312.264 194.458,312.264 194.612 C 312.264 195.026,310.866 198.190,309.187 201.572 C 300.717 218.645,283.693 231.518,258.210 240.119 C 257.969 240.200,257.839 240.334,257.922 240.417 C 258.005 240.500,259.544 240.062,261.342 239.443 C 280.780 232.755,297.042 221.304,305.814 208.126 C 309.212 203.022,314.790 190.786,314.054 190.050 C 313.951 189.947,313.776 190.269,313.665 190.765 M146.541 240.826 C 147.051 241.148,154.944 243.146,158.019 243.732 C 159.057 243.929,160.542 244.219,161.321 244.376 C 162.099 244.532,163.939 244.860,165.409 245.105 C 166.879 245.349,168.294 245.619,168.553 245.704 C 169.365 245.971,172.777 246.257,172.560 246.040 C 172.446 245.926,171.463 245.715,170.375 245.569 C 165.755 244.953,162.527 244.388,159.748 243.711 C 159.143 243.564,157.799 243.270,156.761 243.058 C 155.723 242.847,153.247 242.259,151.258 241.753 C 146.637 240.577,145.925 240.437,146.541 240.826 M254.717 241.195 C 253.209 241.704,251.554 242.175,246.855 243.433 C 245.123 243.896,238.960 245.139,236.029 245.615 C 235.004 245.782,234.084 246.004,233.985 246.108 C 233.751 246.355,236.705 245.968,239.308 245.412 C 240.432 245.171,242.131 244.817,243.082 244.624 C 248.400 243.545,258.549 240.641,257.075 240.620 C 256.730 240.615,255.668 240.874,254.717 241.195 M173.428 246.396 C 174.774 246.908,188.504 248.136,194.182 248.252 L 199.528 248.362 194.654 248.113 C 189.622 247.857,181.062 247.092,177.201 246.554 C 175.044 246.253,172.806 246.159,173.428 246.396 M230.031 246.571 C 224.672 247.317,218.434 247.895,213.365 248.114 L 207.704 248.358 213.679 248.248 C 219.116 248.147,223.354 247.804,230.800 246.860 C 232.261 246.675,233.522 246.457,233.604 246.375 C 233.807 246.173,232.304 246.255,230.031 246.571 M160.535 252.953 C 160.817 253.065,163.518 253.526,169.025 254.402 C 171.910 254.861,174.705 255.131,174.521 254.932 C 174.430 254.834,173.227 254.600,171.848 254.411 C 170.468 254.223,167.925 253.857,166.195 253.598 C 162.571 253.056,160.080 252.772,160.535 252.953 M243.323 253.008 C 243.225 253.106,241.893 253.388,240.362 253.634 C 235.631 254.397,229.464 255.304,228.145 255.432 L 226.887 255.555 228.302 255.600 C 230.165 255.660,241.957 253.859,244.182 253.174 C 245.101 252.892,245.104 252.884,244.313 252.857 C 243.867 252.842,243.421 252.910,243.323 253.008 M176.415 255.345 C 177.849 255.617,181.032 255.760,180.791 255.541 C 180.719 255.475,179.387 255.344,177.830 255.249 C 175.792 255.124,175.396 255.151,176.415 255.345 M181.237 255.872 C 181.525 256.161,184.469 256.369,196.069 256.920 C 205.403 257.364,225.834 256.661,226.626 255.869 C 226.763 255.732,226.170 255.696,225.309 255.790 C 213.643 257.058,196.399 257.058,182.864 255.789 C 181.827 255.691,181.095 255.729,181.237 255.872 " stroke="none" fill="#a3a3a3" fill-rule="evenodd"></path><path id="path3" d="M199.154 62.499 C 201.369 62.553,204.907 62.553,207.015 62.499 C 209.124 62.445,207.311 62.400,202.987 62.400 C 198.664 62.401,196.938 62.445,199.154 62.499 M189.308 62.908 C 188.678 63.050,189.618 63.083,191.509 62.985 C 193.325 62.891,194.870 62.761,194.942 62.696 C 195.184 62.479,190.422 62.658,189.308 62.908 M215.094 63.035 C 222.267 63.771,222.714 63.805,222.494 63.585 C 222.257 63.347,218.773 63.010,213.994 62.762 C 211.136 62.614,211.237 62.638,215.094 63.035 M183.648 63.513 C 183.215 63.646,183.994 63.683,185.377 63.596 C 186.761 63.508,187.952 63.385,188.024 63.322 C 188.274 63.104,184.430 63.271,183.648 63.513 M179.403 64.163 C 178.808 64.322,179.215 64.351,180.503 64.241 C 181.627 64.146,182.606 64.016,182.678 63.952 C 182.917 63.742,180.363 63.906,179.403 64.163 M225.472 64.326 C 226.942 64.561,228.428 64.743,228.774 64.731 C 229.820 64.695,225.084 63.874,223.899 63.887 C 223.294 63.893,224.002 64.091,225.472 64.326 M175.507 64.805 C 174.748 64.954,174.040 65.164,173.935 65.271 C 173.742 65.465,175.284 65.242,177.358 64.776 C 178.914 64.426,177.307 64.452,175.507 64.805 M230.346 65.094 C 230.865 65.226,231.572 65.341,231.918 65.349 L 232.547 65.365 231.918 65.094 C 231.572 64.946,230.865 64.831,230.346 64.839 L 229.403 64.854 230.346 65.094 M167.987 66.444 C 165.859 66.993,164.276 67.494,164.469 67.559 C 164.661 67.623,166.190 67.315,167.866 66.874 C 169.541 66.432,171.478 65.937,172.170 65.773 C 173.028 65.569,173.178 65.469,172.642 65.460 C 172.209 65.452,170.114 65.895,167.987 66.444 M233.805 65.723 C 234.151 65.872,234.646 65.994,234.906 65.994 C 235.203 65.994,235.145 65.894,234.748 65.723 C 234.403 65.575,233.907 65.453,233.648 65.453 C 233.350 65.453,233.409 65.553,233.805 65.723 M235.849 66.115 C 236.076 66.354,241.252 67.658,241.397 67.513 C 241.464 67.446,240.632 67.160,239.549 66.878 C 236.740 66.146,235.669 65.925,235.849 66.115 M161.635 68.226 C 160.684 68.544,160.091 68.818,160.318 68.836 C 160.788 68.872,163.836 67.915,163.836 67.731 C 163.836 67.533,163.454 67.619,161.635 68.226 M242.296 67.891 C 242.961 68.170,254.117 71.896,255.189 72.197 C 257.464 72.835,252.345 70.847,248.383 69.553 C 243.941 68.103,240.681 67.213,242.296 67.891 M201.101 68.442 C 201.792 68.508,205.401 68.704,209.119 68.876 C 216.289 69.208,219.390 69.485,224.214 70.227 C 225.857 70.479,227.253 70.638,227.317 70.578 C 227.381 70.519,227.098 70.408,226.688 70.331 C 222.878 69.616,221.501 69.419,218.744 69.191 C 216.996 69.046,215.354 68.854,215.094 68.764 C 214.835 68.675,211.297 68.538,207.233 68.461 C 203.168 68.385,200.409 68.376,201.101 68.442 M193.475 68.787 C 194.642 68.847,196.553 68.847,197.720 68.787 C 198.888 68.726,197.932 68.677,195.597 68.677 C 193.263 68.677,192.307 68.726,193.475 68.787 M157.233 69.553 C 152.873 71.122,150.869 71.892,147.799 73.181 C 143.365 75.040,137.934 77.661,138.122 77.849 C 138.206 77.933,139.037 77.606,139.970 77.122 C 141.537 76.309,143.960 75.190,147.484 73.651 C 149.882 72.604,154.642 70.775,157.177 69.927 C 158.505 69.483,159.650 69.063,159.722 68.994 C 160.020 68.708,158.853 68.970,157.233 69.553 M186.982 69.229 C 185.270 69.380,183.430 69.643,182.894 69.813 C 182.067 70.076,182.157 70.096,183.491 69.947 C 184.355 69.850,186.383 69.650,187.997 69.503 C 189.611 69.357,191.014 69.154,191.115 69.052 C 191.321 68.846,191.318 68.847,186.982 69.229 M178.616 70.464 C 178.184 70.613,177.285 70.819,176.619 70.922 C 175.953 71.025,175.466 71.168,175.538 71.240 C 175.655 71.358,177.114 71.132,180.660 70.447 L 181.918 70.205 180.660 70.199 C 179.969 70.195,179.049 70.315,178.616 70.464 M227.699 70.868 C 227.771 70.931,228.467 71.074,229.245 71.187 C 230.234 71.331,230.518 71.298,230.189 71.078 C 229.765 70.796,227.384 70.595,227.699 70.868 M172.559 71.685 C 171.909 71.811,171.272 72.020,171.144 72.149 C 170.904 72.392,172.836 72.094,174.214 71.676 C 175.257 71.360,174.208 71.366,172.559 71.685 M231.447 71.476 C 231.639 71.677,237.011 72.965,237.525 72.934 C 238.037 72.902,234.081 71.782,232.547 71.524 C 231.855 71.407,231.360 71.386,231.447 71.476 M169.182 72.642 C 168.557 73.045,169.343 73.045,170.283 72.642 L 170.912 72.371 170.283 72.354 C 169.937 72.344,169.442 72.474,169.182 72.642 M256.918 72.930 C 257.524 73.246,258.373 73.596,258.805 73.707 C 259.237 73.818,258.830 73.553,257.900 73.118 C 255.950 72.206,255.291 72.080,256.918 72.930 M165.611 73.469 C 164.772 73.727,164.160 74.013,164.251 74.105 C 164.407 74.260,165.992 73.837,167.453 73.251 C 168.538 72.816,167.237 72.970,165.611 73.469 M238.365 73.270 C 238.624 73.438,239.049 73.575,239.308 73.575 C 239.727 73.575,239.727 73.541,239.308 73.270 C 239.049 73.103,238.624 72.966,238.365 72.966 C 237.945 72.966,237.945 72.999,238.365 73.270 M240.881 73.957 C 262.696 80.875,279.533 90.940,293.711 105.540 C 303.757 115.885,311.951 128.953,316.069 141.195 C 316.453 142.337,316.588 142.551,316.465 141.824 C 315.825 138.024,308.999 124.165,305.602 119.766 C 305.115 119.136,304.717 118.524,304.717 118.406 C 304.717 118.218,303.245 116.242,300.157 112.287 C 296.099 107.089,290.416 101.471,283.019 95.343 C 281.522 94.104,275.261 89.623,275.026 89.623 C 274.922 89.623,274.156 89.145,273.325 88.560 C 265.861 83.314,247.294 74.862,240.881 73.792 L 239.780 73.608 240.881 73.957 M259.748 74.042 C 259.748 74.120,260.208 74.391,260.770 74.644 C 265.136 76.607,272.430 80.330,273.386 81.082 C 274.066 81.617,276.774 83.030,276.609 82.764 C 275.994 81.769,259.748 73.365,259.748 74.042 M159.591 75.438 C 154.676 77.140,148.054 79.938,144.654 81.748 C 144.049 82.070,142.492 82.891,141.195 83.571 C 126.103 91.488,111.121 104.521,102.427 117.296 C 99.460 121.655,98.047 123.938,98.213 124.104 C 98.294 124.185,98.895 123.358,99.548 122.267 C 105.794 111.843,118.162 98.740,128.013 92.110 C 136.418 86.453,137.452 85.833,145.207 81.792 C 148.600 80.025,154.933 77.391,160.063 75.614 C 162.225 74.865,163.781 74.250,163.522 74.246 C 163.263 74.242,161.494 74.779,159.591 75.438 M136.635 78.432 C 136.289 78.658,133.954 80.058,131.447 81.544 C 128.939 83.030,126.226 84.712,125.419 85.283 C 119.902 89.184,118.580 90.145,117.546 91.009 C 116.906 91.544,115.425 92.759,114.256 93.711 C 106.018 100.413,97.184 110.673,90.702 121.069 C 89.445 123.084,86.472 128.715,86.598 128.841 C 86.666 128.909,87.610 127.295,88.696 125.253 C 89.782 123.211,90.907 121.187,91.197 120.755 C 91.487 120.322,92.278 119.132,92.954 118.110 C 98.608 109.559,108.167 98.873,115.063 93.395 C 115.824 92.790,116.885 91.938,117.421 91.500 C 117.958 91.063,119.245 90.082,120.283 89.322 C 121.321 88.562,122.665 87.572,123.270 87.122 C 125.330 85.594,130.116 82.547,133.176 80.818 C 133.695 80.525,134.933 79.825,135.928 79.264 C 136.922 78.702,137.736 78.185,137.736 78.115 C 137.736 77.882,137.272 78.016,136.635 78.432 M277.147 83.204 C 277.290 83.362,278.363 84.127,279.532 84.906 C 285.593 88.943,285.161 88.626,290.997 93.325 C 303.837 103.663,317.349 121.458,322.329 134.591 C 322.559 135.197,322.844 135.833,322.962 136.006 C 323.081 136.179,323.786 138.198,324.529 140.493 C 325.272 142.787,325.941 144.604,326.014 144.531 C 326.170 144.375,323.794 137.120,323.104 135.644 C 322.850 135.099,322.642 134.561,322.642 134.449 C 322.642 134.032,319.001 126.810,317.699 124.646 C 316.958 123.413,316.352 122.311,316.352 122.196 C 316.352 122.081,316.088 121.604,315.764 121.135 C 315.441 120.666,314.518 119.257,313.713 118.002 C 312.517 116.137,309.629 112.209,306.634 108.371 C 306.358 108.017,305.128 106.661,303.900 105.357 C 302.673 104.054,301.258 102.505,300.756 101.914 C 300.254 101.324,299.423 100.475,298.909 100.028 C 298.395 99.580,296.839 98.152,295.450 96.854 C 294.061 95.556,292.228 93.928,291.377 93.237 C 290.526 92.546,289.221 91.486,288.476 90.881 C 286.218 89.045,285.525 88.547,281.604 85.943 C 277.550 83.252,276.734 82.750,277.147 83.204 M97.077 125.865 C 96.135 127.474,93.711 132.260,93.711 132.509 C 93.711 132.606,93.336 133.504,92.878 134.503 C 91.986 136.450,89.611 143.307,89.640 143.853 C 89.649 144.034,90.329 142.272,91.149 139.937 C 93.012 134.636,93.355 133.832,95.948 128.695 C 98.086 124.459,98.487 123.454,97.077 125.865 M84.960 132.150 C 83.423 135.593,81.965 139.617,82.176 139.828 C 82.258 139.910,82.643 139.013,83.031 137.835 C 83.418 136.656,83.985 135.126,84.290 134.434 C 84.595 133.742,85.214 132.341,85.666 131.320 C 86.117 130.299,86.436 129.413,86.373 129.350 C 86.311 129.288,85.675 130.547,84.960 132.150 M81.366 141.781 C 81.064 142.629,80.825 143.587,80.835 143.910 C 80.844 144.233,81.125 143.648,81.459 142.610 C 82.201 140.303,82.126 139.639,81.366 141.781 M316.827 143.869 C 316.943 144.387,317.166 145.237,317.323 145.756 C 318.026 148.088,318.367 152.019,318.549 159.906 L 318.745 168.396 318.690 159.748 C 318.636 151.228,318.436 148.819,317.477 145.157 C 316.973 143.234,316.454 142.206,316.827 143.869 M80.096 146.763 C 79.671 148.516,79.578 150.134,79.984 148.709 C 80.423 147.171,80.863 144.910,80.747 144.793 C 80.671 144.717,80.378 145.603,80.096 146.763 M89.151 145.597 C 89.032 146.141,88.999 146.651,89.080 146.732 C 89.160 146.812,89.316 146.425,89.426 145.873 C 89.688 144.562,89.434 144.308,89.151 145.597 M326.128 145.597 C 326.118 146.030,326.315 147.233,326.566 148.270 C 326.817 149.308,327.037 150.794,327.055 151.572 C 327.073 152.351,327.204 153.270,327.346 153.616 C 327.761 154.627,327.322 150.431,326.705 147.484 C 326.397 146.014,326.137 145.165,326.128 145.597 M135.849 146.227 C 140.036 146.799,140.744 146.857,140.079 146.571 C 139.724 146.418,138.168 146.216,136.620 146.121 C 134.062 145.964,133.992 145.974,135.849 146.227 M130.975 146.543 C 130.570 146.718,130.907 146.751,131.918 146.634 C 132.783 146.534,133.550 146.401,133.622 146.339 C 133.894 146.104,131.576 146.283,130.975 146.543 M266.914 146.484 C 266.618 146.602,268.550 146.698,271.208 146.698 C 273.866 146.698,275.877 146.594,275.678 146.467 C 275.224 146.179,267.647 146.193,266.914 146.484 M128.774 147.170 C 128.377 147.340,128.319 147.440,128.616 147.440 C 128.876 147.440,129.371 147.318,129.717 147.170 C 130.113 146.999,130.172 146.900,129.874 146.900 C 129.615 146.900,129.119 147.021,128.774 147.170 M141.667 147.170 C 142.013 147.318,142.579 147.440,142.925 147.440 L 143.553 147.440 142.925 147.170 C 142.579 147.021,142.013 146.900,141.667 146.900 L 141.038 146.900 141.667 147.170 M262.392 147.471 C 258.652 148.802,254.515 152.706,252.760 156.559 C 252.260 157.659,251.900 158.609,251.962 158.670 C 252.023 158.732,252.523 157.832,253.074 156.671 C 253.961 154.797,254.655 153.866,257.320 150.971 C 258.800 149.363,261.989 147.730,264.937 147.069 C 265.431 146.959,265.397 146.925,264.780 146.915 C 264.347 146.907,263.273 147.158,262.392 147.471 M279.245 148.333 C 284.567 151.023,288.174 155.711,290.205 162.579 L 290.530 163.679 290.348 162.421 C 289.467 156.349,282.694 148.512,277.044 147.029 C 276.612 146.916,277.602 147.502,279.245 148.333 M88.561 147.654 C 88.453 147.935,88.381 148.684,88.402 149.318 C 88.436 150.380,88.460 150.348,88.700 148.909 C 88.968 147.304,88.907 146.751,88.561 147.654 M125.776 148.354 C 122.164 150.533,118.267 154.106,117.151 156.265 C 115.183 160.070,114.655 168.714,116.189 172.013 C 116.510 172.702,116.628 172.819,116.505 172.327 C 116.398 171.895,116.166 170.975,115.990 170.283 C 115.157 167.005,115.793 160.067,117.214 156.918 C 118.340 154.425,122.935 150.135,126.315 148.420 C 127.321 147.910,127.932 147.493,127.673 147.494 C 127.414 147.494,126.560 147.882,125.776 148.354 M143.795 147.661 C 143.928 147.801,144.497 148.073,145.059 148.267 C 148.199 149.346,152.858 154.826,154.000 158.783 C 154.406 160.191,154.411 160.196,154.265 159.005 C 154.076 157.463,152.775 154.990,150.871 152.550 C 149.533 150.836,148.588 150.036,145.951 148.382 C 145.028 147.804,143.420 147.265,143.795 147.661 M78.966 152.044 C 78.671 153.959,78.508 158.332,78.463 165.566 L 78.396 176.258 78.607 165.723 C 78.726 159.732,78.987 154.209,79.211 152.917 C 79.428 151.668,79.560 150.323,79.504 149.930 C 79.448 149.536,79.206 150.487,78.966 152.044 M87.923 151.137 C 87.815 151.417,87.668 153.575,87.595 155.933 L 87.463 160.220 87.722 156.521 C 87.865 154.487,88.074 152.329,88.187 151.726 C 88.402 150.581,88.258 150.262,87.923 151.137 M327.785 159.906 C 327.784 161.462,327.837 162.139,327.903 161.409 C 327.969 160.679,327.969 159.405,327.904 158.579 C 327.839 157.752,327.786 158.349,327.785 159.906 M251.271 160.637 C 250.629 163.313,248.780 164.419,244.811 164.501 C 243.774 164.522,242.500 164.657,241.981 164.800 C 241.415 164.956,242.232 164.988,244.025 164.881 C 247.323 164.683,249.427 164.168,250.352 163.331 C 250.945 162.795,252.093 159.535,251.794 159.236 C 251.711 159.153,251.476 159.784,251.271 160.637 M87.162 165.094 C 87.101 171.637,87.796 182.435,88.248 181.982 C 88.331 181.900,88.235 180.309,88.035 178.448 C 87.834 176.587,87.566 171.725,87.439 167.642 C 87.224 160.746,87.204 160.566,87.162 165.094 M154.424 160.593 C 154.347 161.942,156.256 163.908,158.055 164.331 C 158.651 164.471,158.381 164.235,157.266 163.640 C 155.593 162.748,155.412 162.557,154.770 161.006 C 154.591 160.574,154.436 160.388,154.424 160.593 M290.676 166.352 C 290.676 167.822,290.730 168.424,290.796 167.689 C 290.862 166.954,290.862 165.751,290.796 165.016 C 290.730 164.281,290.676 164.882,290.676 166.352 M159.146 164.585 C 159.218 164.651,160.833 164.783,162.736 164.878 C 165.091 164.996,165.743 164.965,164.780 164.782 C 163.370 164.513,158.896 164.357,159.146 164.585 M167.322 165.210 C 167.394 165.274,170.212 165.399,173.585 165.487 C 177.569 165.592,178.726 165.563,176.887 165.404 C 173.920 165.149,167.096 165.011,167.322 165.210 M230.660 165.409 L 227.516 165.601 230.189 165.622 C 231.659 165.634,234.418 165.544,236.321 165.422 L 239.780 165.202 236.792 165.209 C 235.149 165.213,232.390 165.303,230.660 165.409 M194.126 165.959 C 198.938 166.008,206.721 166.008,211.422 165.959 C 216.122 165.910,212.186 165.870,202.673 165.870 C 193.160 165.870,189.314 165.910,194.126 165.959 M327.238 167.342 C 327.150 167.922,327.005 169.741,326.917 171.384 C 326.603 177.197,324.681 187.507,322.770 193.619 C 322.623 194.091,322.645 194.104,322.910 193.699 C 323.740 192.432,325.661 184.016,326.393 178.447 C 326.553 177.230,326.767 175.886,326.869 175.460 C 327.095 174.516,327.654 166.554,327.505 166.399 C 327.447 166.338,327.327 166.762,327.238 167.342 M318.119 169.543 C 318.030 170.123,317.884 171.659,317.793 172.956 C 317.703 174.253,317.544 175.810,317.441 176.415 C 317.309 177.190,317.344 177.376,317.561 177.044 C 317.730 176.785,318.004 174.803,318.171 172.641 C 318.466 168.810,318.443 167.419,318.119 169.543 M156.479 169.823 C 155.090 170.239,153.845 171.628,153.124 173.564 C 151.208 178.711,146.090 183.273,140.714 184.626 C 139.863 184.841,139.340 185.073,139.551 185.144 C 142.235 186.038,150.845 179.533,152.728 175.189 C 154.570 170.940,155.113 170.363,157.730 169.863 C 158.783 169.661,158.976 169.565,158.333 169.559 C 157.814 169.555,156.980 169.674,156.479 169.823 M290.119 170.676 C 289.635 173.487,289.609 173.767,289.892 173.113 C 290.214 172.370,290.668 169.497,290.463 169.497 C 290.385 169.497,290.230 170.028,290.119 170.676 M159.591 169.970 C 160.261 170.202,166.781 170.330,166.191 170.100 C 165.847 169.965,164.151 169.857,162.421 169.858 C 160.692 169.860,159.418 169.910,159.591 169.970 M241.981 170.102 C 241.635 170.237,243.522 170.333,246.173 170.315 C 251.913 170.277,252.184 170.422,252.223 173.541 C 252.236 174.516,252.357 175.597,252.493 175.943 C 252.631 176.291,252.679 175.449,252.602 174.057 C 252.388 170.167,251.874 169.804,246.615 169.833 C 244.412 169.846,242.327 169.966,241.981 170.102 M167.925 170.643 C 170.314 170.853,179.195 170.899,178.686 170.698 C 178.388 170.581,175.597 170.498,172.484 170.515 C 169.371 170.532,167.319 170.590,167.925 170.643 M232.322 170.698 C 232.026 170.816,233.582 170.872,235.781 170.823 C 241.440 170.696,242.106 170.539,237.107 170.509 C 234.772 170.496,232.619 170.581,232.322 170.698 M187.736 171.419 C 194.639 171.675,223.582 171.681,227.358 171.427 C 229.002 171.317,219.591 171.226,206.447 171.226 C 193.302 171.226,184.882 171.313,187.736 171.419 M289.142 174.405 C 287.887 178.528,281.351 184.570,278.116 184.596 C 277.786 184.599,277.303 184.740,277.044 184.910 C 275.902 185.659,278.936 184.753,281.053 183.713 C 284.692 181.925,290.621 175.107,289.505 173.991 C 289.405 173.891,289.241 174.077,289.142 174.405 M117.304 174.764 C 117.329 175.447,120.232 179.083,122.013 180.661 C 124.434 182.808,130.659 185.798,131.324 185.133 C 131.416 185.041,131.023 184.863,130.451 184.737 C 125.913 183.740,120.753 180.001,118.425 176.022 C 117.587 174.591,117.285 174.253,117.304 174.764 M78.662 177.516 C 78.630 178.743,79.274 184.273,79.852 187.736 C 80.458 191.367,83.203 200.550,83.572 200.181 C 83.641 200.112,83.322 199.017,82.864 197.748 C 81.071 192.777,80.140 188.456,79.253 180.975 C 78.946 178.381,78.679 176.824,78.662 177.516 M252.830 177.531 C 252.830 177.878,253.887 179.743,254.656 180.755 C 255.948 182.455,261.062 185.466,262.077 185.124 C 262.267 185.060,261.855 184.828,261.164 184.608 C 258.113 183.636,254.784 180.992,253.748 178.717 C 253.196 177.507,252.830 177.033,252.830 177.531 M317.036 178.826 C 317.006 179.547,316.900 180.396,316.800 180.713 C 316.630 181.255,316.641 181.256,316.975 180.735 C 317.171 180.430,317.277 179.581,317.211 178.848 L 317.091 177.516 317.036 178.826 M315.643 184.953 C 315.166 186.916,314.685 188.876,314.574 189.308 C 314.463 189.741,314.465 190.011,314.579 189.908 C 314.884 189.633,316.706 182.352,316.600 181.831 C 316.550 181.586,316.119 182.991,315.643 184.953 M88.387 183.360 C 88.399 183.950,88.532 184.717,88.682 185.063 C 88.857 185.468,88.889 185.131,88.772 184.119 C 88.556 182.250,88.356 181.855,88.387 183.360 M133.884 185.657 C 134.849 185.821,136.220 185.821,137.186 185.657 C 138.664 185.407,138.492 185.377,135.535 185.377 C 132.577 185.377,132.405 185.407,133.884 185.657 M263.208 185.524 C 263.987 185.784,266.263 185.955,266.012 185.734 C 265.939 185.671,265.102 185.539,264.151 185.441 C 263.034 185.325,262.700 185.355,263.208 185.524 M273.742 185.535 L 272.484 185.760 273.585 185.782 C 274.190 185.795,274.969 185.683,275.314 185.535 C 276.055 185.216,275.521 185.216,273.742 185.535 M89.053 186.635 C 89.045 187.154,89.160 187.862,89.308 188.208 L 89.578 188.836 89.563 188.208 C 89.555 187.862,89.440 187.154,89.308 186.635 L 89.068 185.692 89.053 186.635 M267.689 186.078 C 268.337 186.146,269.399 186.146,270.047 186.078 C 270.696 186.010,270.165 185.955,268.868 185.955 C 267.571 185.955,267.040 186.010,267.689 186.078 M89.670 189.308 C 89.670 189.568,89.861 190.275,90.094 190.881 C 90.327 191.486,90.518 191.769,90.518 191.509 C 90.518 191.250,90.327 190.542,90.094 189.937 C 89.861 189.332,89.670 189.049,89.670 189.308 M313.977 191.116 C 313.265 194.426,308.907 203.717,305.975 208.176 C 300.254 216.876,290.620 225.291,279.088 231.664 C 275.829 233.465,268.118 237.107,267.565 237.107 C 267.359 237.107,267.284 237.200,267.397 237.313 C 267.723 237.639,276.800 233.451,280.265 231.377 C 297.369 221.140,306.462 211.241,312.410 196.384 C 312.895 195.173,313.470 193.758,313.688 193.239 C 314.180 192.069,314.576 190.252,314.339 190.252 C 314.242 190.252,314.079 190.641,313.977 191.116 M90.593 192.610 C 90.583 192.956,90.713 193.451,90.881 193.711 C 91.284 194.336,91.284 193.550,90.881 192.610 L 90.610 191.981 90.593 192.610 M321.567 196.926 C 320.162 200.939,317.431 206.956,315.964 209.277 C 315.319 210.296,312.171 215.109,311.351 216.329 C 309.985 218.361,300.533 227.511,297.484 229.752 C 294.399 232.019,291.744 233.886,290.825 234.434 C 288.486 235.829,287.064 236.664,285.866 237.345 C 285.096 237.782,283.823 238.515,283.035 238.974 C 280.913 240.210,278.213 241.454,271.003 244.516 C 269.842 245.009,268.942 245.462,269.003 245.523 C 269.064 245.584,269.660 245.399,270.328 245.112 C 270.995 244.825,272.673 244.123,274.057 243.552 C 280.403 240.935,287.896 236.882,293.252 233.168 C 306.711 223.836,314.766 214.338,320.181 201.415 C 321.486 198.301,322.682 194.932,322.585 194.642 C 322.527 194.467,322.069 195.495,321.567 196.926 M92.025 196.538 C 92.261 197.445,93.788 200.909,94.659 202.516 C 94.987 203.121,95.675 204.395,96.187 205.346 C 97.913 208.551,101.485 213.390,103.948 215.860 C 105.662 217.579,110.165 221.360,112.335 222.902 C 118.339 227.170,121.928 229.553,127.284 232.830 C 129.202 234.004,137.652 238.213,138.679 238.507 C 139.112 238.631,137.310 237.666,134.676 236.364 C 128.872 233.495,126.464 232.085,119.654 227.569 C 115.473 224.797,114.984 224.447,108.994 219.942 C 106.734 218.242,102.049 213.445,100.267 211.006 C 97.193 206.801,96.114 204.868,92.191 196.541 L 91.821 195.755 92.025 196.538 M83.648 200.829 C 83.648 200.960,84.622 203.056,85.812 205.486 C 89.725 213.475,94.997 220.427,100.314 224.610 C 101.603 225.624,105.676 228.707,107.173 229.802 C 108.279 230.612,118.837 237.594,121.245 239.109 C 126.103 242.164,140.121 248.349,140.754 247.715 C 140.834 247.635,139.870 247.240,138.610 246.837 C 134.292 245.455,125.705 241.490,121.975 239.155 C 121.695 238.980,121.000 238.574,120.432 238.252 C 119.444 237.694,108.599 230.434,105.804 228.459 C 102.304 225.987,100.521 224.476,97.301 221.254 C 93.375 217.327,91.178 214.487,88.279 209.591 C 87.265 207.880,84.283 201.737,84.280 201.355 C 84.278 201.149,84.135 200.893,83.962 200.786 C 83.789 200.679,83.648 200.699,83.648 200.829 M265.252 238.064 C 264.560 238.396,262.680 239.114,261.075 239.660 C 259.470 240.205,258.216 240.711,258.288 240.783 C 258.564 241.059,266.981 237.942,266.981 237.564 C 266.981 237.317,266.548 237.442,265.252 238.064 M140.723 239.311 C 141.415 239.629,142.406 239.975,142.925 240.081 C 143.443 240.187,142.948 239.917,141.824 239.481 C 139.450 238.562,138.913 238.478,140.723 239.311 M144.340 240.566 C 144.599 240.734,145.024 240.871,145.283 240.871 C 145.702 240.871,145.702 240.837,145.283 240.566 C 145.024 240.398,144.599 240.261,144.340 240.261 C 143.920 240.261,143.920 240.295,144.340 240.566 M145.912 240.986 C 145.912 241.394,152.256 243.003,159.748 244.497 C 164.391 245.422,164.885 245.513,167.296 245.878 C 171.302 246.485,172.153 246.577,171.956 246.380 C 171.852 246.275,170.301 245.983,168.509 245.731 C 166.717 245.478,164.615 245.141,163.836 244.983 C 161.568 244.520,157.509 243.714,155.975 243.423 C 154.746 243.189,148.671 241.627,146.619 241.017 C 146.230 240.902,145.912 240.888,145.912 240.986 M256.447 241.195 C 256.050 241.365,255.992 241.465,256.289 241.465 C 256.549 241.465,257.044 241.344,257.390 241.195 C 257.786 241.025,257.844 240.925,257.547 240.925 C 257.288 240.925,256.792 241.046,256.447 241.195 M252.830 242.315 C 251.533 242.716,250.704 243.052,250.989 243.063 C 251.604 243.085,255.660 241.862,255.660 241.654 C 255.660 241.453,255.497 241.491,252.830 242.315 M247.170 243.768 C 245.700 244.119,244.162 244.469,243.752 244.545 C 243.343 244.622,243.073 244.750,243.152 244.829 C 243.394 245.072,249.855 243.646,250.235 243.266 C 250.501 243.000,250.148 243.058,247.170 243.768 M240.252 245.276 C 239.510 245.520,235.439 246.270,232.447 246.716 C 231.701 246.827,231.159 246.987,231.244 247.072 C 231.450 247.278,237.554 246.249,241.824 245.288 C 242.901 245.046,242.904 245.041,241.981 245.030 C 241.462 245.023,240.684 245.134,240.252 245.276 M266.195 246.273 C 265.330 246.611,263.725 247.173,262.627 247.522 C 261.529 247.872,260.702 248.228,260.788 248.314 C 260.874 248.400,261.984 248.101,263.255 247.650 C 264.526 247.198,266.203 246.607,266.981 246.336 C 267.759 246.065,268.455 245.788,268.527 245.720 C 268.846 245.422,267.637 245.708,266.195 246.273 M172.353 246.655 C 172.425 246.718,173.475 246.846,174.686 246.941 C 176.021 247.045,176.516 247.014,175.943 246.864 C 174.988 246.612,172.112 246.445,172.353 246.655 M178.774 247.492 C 180.024 247.761,182.929 247.903,182.678 247.684 C 182.606 247.621,181.415 247.491,180.031 247.396 C 178.225 247.271,177.870 247.298,178.774 247.492 M226.258 247.484 L 224.371 247.693 226.101 247.709 C 227.052 247.717,228.255 247.616,228.774 247.484 C 229.983 247.177,229.038 247.177,226.258 247.484 M141.509 248.113 C 141.769 248.281,142.193 248.418,142.453 248.418 C 142.872 248.418,142.872 248.384,142.453 248.113 C 142.193 247.946,141.769 247.808,141.509 247.808 C 141.090 247.808,141.090 247.842,141.509 248.113 M184.223 248.107 C 184.798 248.245,187.558 248.433,190.355 248.524 C 194.644 248.664,194.899 248.650,191.981 248.433 C 185.400 247.943,183.147 247.848,184.223 248.107 M221.698 248.030 C 220.920 248.097,218.514 248.275,216.352 248.425 C 212.488 248.693,212.508 248.695,217.519 248.539 C 220.323 248.452,223.011 248.261,223.494 248.116 C 224.425 247.837,224.120 247.822,221.698 248.030 M143.154 248.605 C 143.251 248.702,144.513 249.059,145.958 249.398 C 149.997 250.345,150.169 250.379,149.964 250.173 C 149.794 250.004,143.656 248.428,143.167 248.428 C 143.062 248.428,143.057 248.507,143.154 248.605 M258.805 248.742 C 258.386 249.013,258.386 249.047,258.805 249.047 C 259.064 249.047,259.489 248.910,259.748 248.742 C 260.168 248.471,260.168 248.437,259.748 248.437 C 259.489 248.437,259.064 248.574,258.805 248.742 M200.079 248.977 C 202.284 249.031,205.892 249.031,208.097 248.977 C 210.303 248.923,208.498 248.879,204.088 248.879 C 199.678 248.879,197.873 248.923,200.079 248.977 M256.132 249.537 C 255.440 249.765,255.157 249.952,255.503 249.952 C 255.849 249.952,256.627 249.761,257.233 249.528 C 258.644 248.985,257.787 248.992,256.132 249.537 M251.730 250.660 C 250.346 250.995,248.879 251.344,248.469 251.436 C 248.060 251.528,247.794 251.672,247.878 251.756 C 248.050 251.929,254.367 250.455,254.644 250.178 C 254.901 249.920,254.533 249.981,251.730 250.660 M151.258 250.630 C 153.991 251.233,154.612 251.289,153.145 250.798 C 152.366 250.537,151.376 250.338,150.943 250.355 C 150.325 250.380,150.393 250.439,151.258 250.630 M154.743 251.371 C 154.815 251.433,155.440 251.570,156.132 251.676 C 156.989 251.807,157.239 251.773,156.918 251.568 C 156.489 251.294,154.438 251.108,154.743 251.371 M157.573 252.000 C 157.645 252.063,158.341 252.198,159.119 252.301 C 160.064 252.426,160.326 252.395,159.906 252.209 C 159.305 251.944,157.300 251.764,157.573 252.000 M245.283 252.197 C 244.962 252.402,245.213 252.436,246.069 252.305 C 247.624 252.067,247.888 251.885,246.672 251.892 C 246.167 251.894,245.542 252.032,245.283 252.197 M162.107 252.848 C 162.799 252.991,163.789 253.100,164.308 253.090 C 165.129 253.075,165.088 253.038,163.994 252.812 C 163.302 252.669,162.311 252.560,161.792 252.570 C 160.972 252.586,161.013 252.622,162.107 252.848 M242.296 252.830 C 241.454 253.044,241.437 253.070,242.138 253.070 C 242.571 253.070,243.349 252.962,243.868 252.830 C 244.709 252.616,244.726 252.590,244.025 252.590 C 243.593 252.590,242.814 252.698,242.296 252.830 M166.824 253.615 C 167.624 253.886,170.175 253.998,169.775 253.745 C 169.536 253.593,168.703 253.478,167.925 253.489 C 167.146 253.500,166.651 253.557,166.824 253.615 M237.107 253.789 C 236.577 253.969,236.833 253.997,237.893 253.875 C 238.758 253.775,239.524 253.640,239.596 253.576 C 239.844 253.355,237.893 253.522,237.107 253.789 M172.484 254.421 C 173.176 254.564,174.237 254.671,174.843 254.659 C 175.869 254.640,175.848 254.621,174.528 254.386 C 172.523 254.030,170.738 254.059,172.484 254.421 M233.019 254.403 L 231.604 254.623 232.862 254.638 C 233.553 254.647,234.473 254.541,234.906 254.403 C 235.899 254.084,235.065 254.084,233.019 254.403 M176.799 254.881 C 177.162 255.260,189.172 256.273,192.610 256.215 L 195.755 256.161 193.082 256.073 C 190.231 255.979,179.926 255.139,177.830 254.830 C 177.138 254.729,176.674 254.751,176.799 254.881 M228.302 255.031 L 226.572 255.243 228.145 255.273 C 229.009 255.289,230.000 255.180,230.346 255.031 C 231.055 254.727,230.788 254.727,228.302 255.031 M222.170 255.660 L 220.283 255.869 221.855 255.894 C 222.720 255.908,224.135 255.810,225.000 255.675 C 227.081 255.351,225.062 255.340,222.170 255.660 M214.858 256.207 C 215.853 256.270,217.480 256.270,218.475 256.207 C 219.469 256.145,218.656 256.094,216.667 256.094 C 214.678 256.094,213.864 256.145,214.858 256.207 M198.173 256.651 C 198.573 256.764,201.234 256.856,204.088 256.856 C 206.942 256.856,209.603 256.764,210.003 256.651 C 210.402 256.539,207.741 256.447,204.088 256.447 C 200.436 256.447,197.774 256.539,198.173 256.651 " stroke="none" fill="#747474" fill-rule="evenodd"></path><path id="path4" d="M215.802 62.795 C 216.105 62.874,216.600 62.874,216.903 62.795 C 217.205 62.716,216.958 62.652,216.352 62.652 C 215.747 62.652,215.499 62.716,215.802 62.795 M191.749 69.090 C 192.140 69.166,192.706 69.163,193.007 69.084 C 193.307 69.005,192.987 68.944,192.296 68.947 C 191.604 68.951,191.358 69.015,191.749 69.090 M213.129 69.090 C 213.518 69.165,214.155 69.165,214.544 69.090 C 214.933 69.015,214.615 68.954,213.836 68.954 C 213.058 68.954,212.740 69.015,213.129 69.090 M295.755 97.170 C 296.782 98.208,297.693 99.057,297.779 99.057 C 297.866 99.057,297.096 98.208,296.069 97.170 C 295.042 96.132,294.131 95.283,294.045 95.283 C 293.958 95.283,294.728 96.132,295.755 97.170 M302.817 104.167 C 303.588 104.988,304.260 105.660,304.311 105.660 C 304.547 105.660,304.297 105.378,302.909 104.075 L 301.415 102.673 302.817 104.167 M102.024 105.425 L 101.101 106.447 102.123 105.523 C 103.075 104.662,103.289 104.403,103.046 104.403 C 102.992 104.403,102.532 104.862,102.024 105.425 M270.355 146.139 C 270.913 146.208,271.903 146.210,272.556 146.141 C 273.208 146.073,272.752 146.017,271.541 146.015 C 270.330 146.014,269.796 146.069,270.355 146.139 M283.019 150.098 C 283.019 150.153,283.479 150.612,284.041 151.120 L 285.063 152.044 284.139 151.022 C 283.278 150.069,283.019 149.855,283.019 150.098 M88.123 152.516 C 88.123 153.121,88.188 153.369,88.267 153.066 C 88.346 152.763,88.346 152.268,88.267 151.965 C 88.188 151.663,88.123 151.910,88.123 152.516 M327.770 155.503 C 327.772 156.541,327.831 156.927,327.901 156.362 C 327.971 155.797,327.969 154.948,327.898 154.476 C 327.826 154.003,327.769 154.465,327.770 155.503 M87.552 165.881 C 87.553 169.167,87.599 170.468,87.656 168.773 C 87.713 167.078,87.712 164.389,87.655 162.798 C 87.599 161.207,87.552 162.594,87.552 165.881 M115.167 163.522 C 115.167 164.127,115.232 164.375,115.311 164.072 C 115.390 163.770,115.390 163.274,115.311 162.972 C 115.232 162.669,115.167 162.917,115.167 163.522 M327.776 164.623 C 327.778 165.833,327.834 166.290,327.902 165.638 C 327.971 164.985,327.969 163.995,327.900 163.436 C 327.830 162.878,327.775 163.412,327.776 164.623 M78.067 164.308 C 78.070 165.000,78.135 165.246,78.210 164.855 C 78.285 164.464,78.282 163.898,78.203 163.597 C 78.125 163.296,78.063 163.616,78.067 164.308 M166.903 165.007 C 167.465 165.077,168.384 165.077,168.947 165.007 C 169.509 164.938,169.049 164.881,167.925 164.881 C 166.800 164.881,166.340 164.938,166.903 165.007 M238.758 165.005 C 239.233 165.077,240.012 165.077,240.487 165.005 C 240.963 164.933,240.574 164.874,239.623 164.874 C 238.671 164.874,238.282 164.933,238.758 165.005 M183.745 165.644 C 186.134 165.697,189.954 165.697,192.236 165.644 C 194.517 165.590,192.563 165.546,187.893 165.546 C 183.223 165.547,181.357 165.591,183.745 165.644 M218.160 165.643 C 219.933 165.699,222.834 165.699,224.607 165.643 C 226.380 165.587,224.929 165.541,221.384 165.541 C 217.838 165.541,216.388 165.587,218.160 165.643 M115.180 167.925 C 115.180 168.703,115.241 169.021,115.316 168.632 C 115.391 168.243,115.391 167.606,115.316 167.217 C 115.241 166.828,115.180 167.146,115.180 167.925 M327.444 168.868 C 327.444 169.646,327.505 169.965,327.580 169.575 C 327.655 169.186,327.655 168.550,327.580 168.160 C 327.505 167.771,327.444 168.090,327.444 168.868 M163.290 170.351 C 163.768 170.424,164.476 170.422,164.863 170.347 C 165.250 170.273,164.858 170.213,163.994 170.216 C 163.129 170.218,162.812 170.279,163.290 170.351 M245.519 170.358 C 246.427 170.421,247.913 170.421,248.821 170.358 C 249.729 170.294,248.986 170.242,247.170 170.242 C 245.354 170.242,244.611 170.294,245.519 170.358 M179.796 171.297 C 180.358 171.366,181.278 171.366,181.840 171.297 C 182.402 171.227,181.942 171.170,180.818 171.170 C 179.693 171.170,179.233 171.227,179.796 171.297 M230.582 171.286 C 230.884 171.365,231.380 171.365,231.682 171.286 C 231.985 171.207,231.737 171.142,231.132 171.142 C 230.527 171.142,230.279 171.207,230.582 171.286 M202.615 171.934 C 206.216 171.984,212.018 171.984,215.508 171.934 C 218.999 171.883,216.053 171.842,208.962 171.842 C 201.871 171.842,199.015 171.883,202.615 171.934 M149.204 179.953 L 147.327 181.918 149.292 180.041 C 151.118 178.298,151.402 177.987,151.169 177.987 C 151.121 177.987,150.236 178.872,149.204 179.953 M88.123 179.245 C 88.123 179.851,88.188 180.098,88.267 179.796 C 88.346 179.493,88.346 178.998,88.267 178.695 C 88.188 178.392,88.123 178.640,88.123 179.245 M285.053 180.896 L 283.176 182.862 285.142 180.985 C 286.222 179.952,287.107 179.068,287.107 179.019 C 287.107 178.787,286.797 179.071,285.053 180.896 M121.384 180.346 C 121.970 180.951,122.521 181.447,122.608 181.447 C 122.694 181.447,122.285 180.951,121.698 180.346 C 121.111 179.741,120.561 179.245,120.474 179.245 C 120.388 179.245,120.797 179.741,121.384 180.346 M78.689 180.818 C 78.689 181.423,78.754 181.671,78.833 181.368 C 78.912 181.065,78.912 180.570,78.833 180.267 C 78.754 179.965,78.689 180.212,78.689 180.818 M265.173 186.066 C 265.476 186.145,265.971 186.145,266.274 186.066 C 266.576 185.987,266.329 185.922,265.723 185.922 C 265.118 185.922,264.870 185.987,265.173 186.066 M271.462 186.066 C 271.765 186.145,272.260 186.145,272.563 186.066 C 272.866 185.987,272.618 185.922,272.013 185.922 C 271.407 185.922,271.160 185.987,271.462 186.066 M268.160 186.385 C 268.550 186.460,269.186 186.460,269.575 186.385 C 269.965 186.310,269.646 186.249,268.868 186.249 C 268.090 186.249,267.771 186.310,268.160 186.385 M107.547 218.711 C 108.134 219.316,108.685 219.811,108.771 219.811 C 108.858 219.811,108.448 219.316,107.862 218.711 C 107.275 218.105,106.724 217.610,106.638 217.610 C 106.551 217.610,106.960 218.105,107.547 218.711 M292.276 222.720 L 291.352 223.742 292.374 222.819 C 293.327 221.958,293.541 221.698,293.298 221.698 C 293.244 221.698,292.784 222.158,292.276 222.720 M177.123 247.072 C 177.425 247.151,177.921 247.151,178.223 247.072 C 178.526 246.993,178.278 246.928,177.673 246.928 C 177.068 246.928,176.820 246.993,177.123 247.072 M229.485 247.078 C 229.876 247.153,230.442 247.150,230.743 247.071 C 231.043 246.993,230.723 246.931,230.031 246.935 C 229.340 246.938,229.094 247.003,229.485 247.078 M185.770 248.021 C 186.160 248.096,186.796 248.096,187.186 248.021 C 187.575 247.946,187.256 247.884,186.478 247.884 C 185.700 247.884,185.381 247.946,185.770 248.021 M220.991 248.021 C 221.380 248.096,222.017 248.096,222.406 248.021 C 222.795 247.946,222.476 247.884,221.698 247.884 C 220.920 247.884,220.601 247.946,220.991 248.021 M197.262 248.661 C 198.436 248.722,200.276 248.721,201.350 248.660 C 202.423 248.599,201.462 248.549,199.214 248.550 C 196.965 248.550,196.087 248.600,197.262 248.661 M206.695 248.661 C 207.870 248.722,209.710 248.721,210.784 248.660 C 211.857 248.599,210.896 248.549,208.648 248.550 C 206.399 248.550,205.521 248.600,206.695 248.661 M175.082 254.939 C 175.473 255.015,176.039 255.012,176.340 254.933 C 176.641 254.854,176.321 254.793,175.629 254.796 C 174.937 254.800,174.691 254.864,175.082 254.939 M231.211 254.934 C 231.513 255.013,232.009 255.013,232.311 254.934 C 232.614 254.855,232.366 254.790,231.761 254.790 C 231.156 254.790,230.908 254.855,231.211 254.934 M183.097 255.877 C 183.400 255.956,183.895 255.956,184.198 255.877 C 184.501 255.798,184.253 255.733,183.648 255.733 C 183.042 255.733,182.795 255.798,183.097 255.877 M193.311 256.516 C 193.869 256.586,194.859 256.587,195.512 256.519 C 196.164 256.451,195.708 256.394,194.497 256.392 C 193.286 256.391,192.752 256.447,193.311 256.516 M212.028 256.520 C 212.850 256.585,214.194 256.585,215.016 256.520 C 215.837 256.456,215.165 256.403,213.522 256.403 C 211.879 256.403,211.207 256.456,212.028 256.520 " stroke="none" fill="#7c7c7c" fill-rule="evenodd"></path></g></svg>