<svg width="500" height="390" viewBox="0 0 614 390" fill="none" xmlns="http://www.w3.org/2000/svg">
<rect width="614" height="390" fill="#1E1E1E"/>
<g clip-path="url(#clip0_0_1)">
<path d="M480.383 335L475 309L498 323L486.745 325.5L480.383 335Z" fill="#403C3C" stroke="white" stroke-width="2"/>
<path d="M614 350C614 341.716 607.284 335 599 335H511.932C503.648 335 496.932 341.716 496.932 350V353C496.932 361.284 503.648 368 511.932 368H599C607.284 368 614 361.284 614 353V350Z" fill="#4DC0ED"/>
<path d="M511.538 356.612C511.538 356.758 511.506 356.861 511.442 356.919C511.384 356.973 511.281 357 511.135 357H509.575C509.428 357 509.323 356.973 509.26 356.919C509.201 356.861 509.172 356.758 509.172 356.612V347.669C509.172 347.527 509.196 347.42 509.245 347.347C509.465 347.024 509.772 346.685 510.168 346.329C510.241 346.27 510.305 346.241 510.358 346.241C510.417 346.241 510.478 346.27 510.542 346.329C510.756 346.514 510.937 346.692 511.083 346.863C511.23 347.029 511.357 347.19 511.464 347.347C511.513 347.425 511.538 347.532 511.538 347.669V350.708H511.706C512.316 350.708 512.812 350.625 513.193 350.459C513.574 350.289 513.867 350.062 514.072 349.778C514.277 349.49 514.416 349.17 514.489 348.819C514.567 348.467 514.606 348.108 514.606 347.742V347.669C514.606 347.527 514.631 347.42 514.68 347.347C514.899 347.024 515.207 346.685 515.603 346.329C515.676 346.27 515.739 346.241 515.793 346.241C515.852 346.241 515.913 346.27 515.976 346.329C516.191 346.514 516.372 346.692 516.518 346.863C516.665 347.029 516.792 347.19 516.899 347.347C516.948 347.425 516.972 347.532 516.972 347.669V347.742C516.972 348.138 516.933 348.548 516.855 348.973C516.777 349.393 516.638 349.791 516.438 350.167C516.242 350.542 515.964 350.865 515.603 351.133C515.246 351.397 514.785 351.57 514.218 351.653V351.705C514.726 351.866 515.178 352.134 515.573 352.51C515.974 352.881 516.318 353.306 516.606 353.785C516.899 354.263 517.138 354.744 517.324 355.228C517.509 355.711 517.641 356.143 517.719 356.524C517.758 356.705 517.758 356.829 517.719 356.897C517.68 356.966 517.587 357 517.441 357H515.646C515.397 357 515.251 356.885 515.207 356.656C515.134 356.285 514.99 355.867 514.775 355.403C514.565 354.935 514.301 354.483 513.984 354.048C513.667 353.614 513.312 353.255 512.922 352.972C512.536 352.688 512.131 352.547 511.706 352.547H511.538V356.612ZM522.524 357.183C521.699 357.183 520.981 357.051 520.371 356.788C519.76 356.519 519.287 356.104 518.95 355.542C518.613 354.981 518.444 354.256 518.444 353.367C518.444 352.034 518.786 351.026 519.47 350.342C520.153 349.659 521.062 349.317 522.194 349.317C522.932 349.317 523.554 349.449 524.062 349.712C524.575 349.976 524.963 350.34 525.227 350.804C525.495 351.268 525.629 351.797 525.629 352.393C525.629 352.974 525.48 353.379 525.183 353.609C524.885 353.838 524.45 353.953 523.879 353.953H520.737C520.776 354.456 520.959 354.839 521.286 355.103C521.618 355.367 522.067 355.499 522.634 355.499C523.083 355.499 523.442 355.433 523.71 355.301C523.984 355.164 524.174 355.057 524.282 354.979C524.375 354.91 524.479 354.878 524.597 354.883C524.689 354.883 524.821 354.903 524.992 354.942C525.168 354.976 525.341 355.042 525.512 355.14C525.634 355.203 525.695 355.291 525.695 355.403C525.695 355.467 525.683 355.557 525.659 355.674C525.644 355.743 525.62 355.843 525.585 355.975C525.551 356.102 525.507 356.221 525.454 356.333C525.424 356.387 525.378 356.438 525.314 356.487C525.217 356.556 525.058 356.646 524.838 356.758C524.624 356.871 524.328 356.968 523.952 357.051C523.576 357.139 523.1 357.183 522.524 357.183ZM520.722 352.452H523.11C523.359 352.452 523.483 352.337 523.483 352.107C523.483 351.761 523.374 351.47 523.154 351.236C522.939 350.997 522.614 350.877 522.18 350.877C521.706 350.877 521.357 351.028 521.132 351.331C520.913 351.634 520.776 352.007 520.722 352.452ZM528.823 356.319C528.554 355.894 528.288 355.406 528.024 354.854C527.766 354.297 527.529 353.736 527.314 353.169C527.104 352.598 526.936 352.078 526.809 351.609C526.682 351.136 526.618 350.772 526.618 350.518C526.618 350.42 526.645 350.34 526.699 350.276C526.923 349.998 527.243 349.708 527.658 349.405C527.731 349.356 527.797 349.332 527.856 349.332C527.919 349.332 527.985 349.356 528.054 349.405C528.278 349.566 528.466 349.717 528.618 349.859C528.774 350 528.906 350.14 529.013 350.276C529.067 350.34 529.094 350.43 529.094 350.547V350.511C529.094 350.828 529.15 351.246 529.262 351.763C529.379 352.276 529.538 352.818 529.738 353.389C529.938 353.96 530.17 354.485 530.434 354.964H530.471C530.69 354.603 530.886 354.212 531.057 353.792C531.228 353.372 531.372 352.952 531.489 352.532C531.606 352.112 531.694 351.727 531.752 351.375C531.816 351.023 531.848 350.738 531.848 350.518V350.547C531.848 350.43 531.872 350.34 531.921 350.276C532.033 350.14 532.165 350 532.316 349.859C532.468 349.717 532.651 349.566 532.866 349.405C532.934 349.356 532.998 349.332 533.056 349.332C533.125 349.332 533.188 349.356 533.247 349.405C533.466 349.566 533.652 349.717 533.803 349.859C533.955 350 534.084 350.14 534.191 350.276C534.24 350.34 534.265 350.425 534.265 350.533C534.26 350.796 534.191 351.167 534.06 351.646C533.928 352.12 533.75 352.642 533.525 353.213C533.305 353.78 533.059 354.339 532.785 354.891C532.512 355.438 532.233 355.914 531.95 356.319C531.779 356.568 531.625 356.744 531.489 356.846C531.352 356.949 531.115 357 530.778 357H530.002C529.65 357 529.406 356.951 529.27 356.854C529.138 356.756 528.989 356.578 528.823 356.319ZM526.618 350.511V350.518C526.618 350.528 526.618 350.538 526.618 350.547V350.511ZM534.265 350.518V350.547V350.533C534.265 350.528 534.265 350.523 534.265 350.518ZM535.283 347.039C535.283 346.976 535.302 346.919 535.341 346.871C535.38 346.822 535.432 346.758 535.495 346.68C535.632 346.524 535.791 346.36 535.971 346.189C536.152 346.014 536.335 345.845 536.521 345.684C536.638 345.591 536.726 345.545 536.784 345.545C536.843 345.545 536.933 345.591 537.055 345.684C537.451 346.026 537.788 346.358 538.066 346.68C538.129 346.753 538.181 346.817 538.22 346.871C538.264 346.919 538.286 346.976 538.286 347.039C538.286 347.103 538.264 347.159 538.22 347.208C538.181 347.256 538.127 347.322 538.059 347.405C537.927 347.557 537.773 347.72 537.597 347.896C537.421 348.067 537.241 348.23 537.055 348.387C536.987 348.445 536.933 348.484 536.894 348.504C536.855 348.519 536.818 348.526 536.784 348.526C536.75 348.526 536.713 348.519 536.674 348.504C536.64 348.484 536.584 348.445 536.506 348.387C536.311 348.23 536.127 348.067 535.957 347.896C535.786 347.72 535.632 347.552 535.495 347.391C535.432 347.312 535.38 347.251 535.341 347.208C535.302 347.159 535.283 347.103 535.283 347.039ZM537.934 356.612C537.934 356.758 537.902 356.861 537.839 356.919C537.78 356.973 537.678 357 537.531 357H536.022C535.876 357 535.771 356.973 535.708 356.919C535.649 356.861 535.62 356.758 535.62 356.612V349.888C535.62 349.742 535.649 349.642 535.708 349.588C535.771 349.529 535.876 349.5 536.022 349.5H537.531C537.678 349.5 537.78 349.529 537.839 349.588C537.902 349.642 537.934 349.742 537.934 349.888V356.612ZM547.177 352.334V356.612C547.177 356.758 547.146 356.861 547.082 356.919C547.023 356.973 546.921 357 546.774 357H545.266C545.119 357 545.014 356.973 544.951 356.919C544.892 356.861 544.863 356.758 544.863 356.612V352.715C544.863 352.183 544.75 351.795 544.526 351.551C544.301 351.307 543.996 351.185 543.61 351.185C543.225 351.185 542.927 351.268 542.717 351.434C542.512 351.6 542.353 351.81 542.241 352.063V356.612C542.241 356.758 542.209 356.861 542.146 356.919C542.087 356.973 541.984 357 541.838 357H540.329C540.183 357 540.078 356.973 540.014 356.919C539.956 356.861 539.926 356.758 539.926 356.612V350.474C539.926 350.357 539.951 350.267 540 350.203C540.102 350.066 540.224 349.927 540.366 349.786C540.512 349.644 540.69 349.493 540.9 349.332C540.964 349.283 541.025 349.258 541.083 349.258C541.137 349.258 541.198 349.283 541.267 349.332C541.472 349.493 541.647 349.646 541.794 349.793C541.94 349.939 542.07 350.091 542.182 350.247H542.219C542.302 350.14 542.426 350.015 542.592 349.874C542.758 349.727 542.99 349.598 543.288 349.485C543.591 349.373 543.977 349.317 544.445 349.317C544.904 349.317 545.341 349.41 545.756 349.595C546.171 349.781 546.511 350.093 546.774 350.533C547.043 350.972 547.177 351.573 547.177 352.334ZM557.893 355.206C558.249 355.206 558.527 355.169 558.728 355.096C558.933 355.022 559.091 354.932 559.204 354.825C559.316 354.717 559.414 354.61 559.497 354.502C559.575 354.405 559.638 354.332 559.687 354.283C559.741 354.234 559.814 354.2 559.907 354.18C559.985 354.156 560.109 354.141 560.28 354.136C560.456 354.126 560.629 354.122 560.8 354.122C560.976 354.122 561.098 354.126 561.167 354.136C561.269 354.141 561.34 354.161 561.379 354.195C561.418 354.229 561.442 354.302 561.452 354.415C561.467 354.571 561.474 354.756 561.474 354.971C561.479 355.186 561.477 355.372 561.467 355.528C561.462 355.577 561.452 355.618 561.438 355.652C561.428 355.687 561.403 355.738 561.364 355.806C561.315 355.884 561.22 355.999 561.079 356.15C560.937 356.297 560.729 356.451 560.456 356.612C560.183 356.768 559.829 356.902 559.394 357.015C558.964 357.127 558.435 357.183 557.805 357.183C557.131 357.183 556.501 357.098 555.915 356.927C555.329 356.751 554.814 356.458 554.37 356.048C553.93 355.638 553.586 355.083 553.337 354.385C553.093 353.687 552.971 352.815 552.971 351.771C552.971 350.608 553.171 349.622 553.571 348.812C553.977 347.996 554.55 347.376 555.292 346.951C556.035 346.526 556.914 346.314 557.929 346.314C558.642 346.314 559.213 346.387 559.643 346.534C560.078 346.68 560.407 346.854 560.632 347.054C560.856 347.249 561.015 347.42 561.108 347.566C561.142 347.62 561.167 347.669 561.181 347.713C561.196 347.752 561.206 347.815 561.21 347.903C561.225 348.021 561.228 348.191 561.218 348.416C561.213 348.641 561.196 348.838 561.167 349.009C561.147 349.117 561.115 349.188 561.071 349.222C561.052 349.241 561.018 349.258 560.969 349.273C560.92 349.288 560.847 349.295 560.749 349.295C560.593 349.295 560.417 349.29 560.222 349.28C560.026 349.266 559.88 349.251 559.782 349.236C559.665 349.217 559.58 349.19 559.526 349.156C559.472 349.117 559.418 349.058 559.365 348.98C559.277 348.853 559.125 348.707 558.911 348.541C558.696 348.375 558.342 348.292 557.849 348.292C557.155 348.292 556.584 348.56 556.135 349.097C555.686 349.629 555.461 350.494 555.461 351.69C555.461 352.881 555.695 353.765 556.164 354.341C556.638 354.917 557.214 355.206 557.893 355.206ZM565.224 356.612C565.224 356.758 565.192 356.861 565.129 356.919C565.07 356.973 564.968 357 564.821 357H563.312C563.166 357 563.061 356.973 562.998 356.919C562.939 356.861 562.91 356.758 562.91 356.612V346.702C562.91 346.585 562.934 346.495 562.983 346.431C563.188 346.163 563.488 345.872 563.884 345.56C563.952 345.511 564.013 345.486 564.067 345.486C564.13 345.486 564.191 345.511 564.25 345.56C564.46 345.721 564.636 345.872 564.777 346.014C564.924 346.155 565.048 346.294 565.151 346.431C565.2 346.495 565.224 346.585 565.224 346.702V350.254H565.253C565.361 350.113 565.5 349.971 565.671 349.83C565.842 349.683 566.069 349.561 566.352 349.463C566.64 349.366 567.006 349.317 567.451 349.317C567.9 349.317 568.332 349.41 568.747 349.595C569.162 349.781 569.501 350.093 569.765 350.533C570.029 350.972 570.161 351.573 570.161 352.334V356.612C570.161 356.758 570.129 356.861 570.065 356.919C570.007 356.973 569.904 357 569.758 357H568.249C568.103 357 567.998 356.973 567.934 356.919C567.875 356.861 567.846 356.758 567.846 356.612V352.737C567.846 352.195 567.734 351.802 567.509 351.558C567.285 351.309 566.979 351.185 566.594 351.185C566.213 351.185 565.917 351.268 565.708 351.434C565.498 351.6 565.336 351.81 565.224 352.063V356.612ZM574.606 357.183C572.868 357.183 571.999 356.131 571.999 354.026L571.992 350.306C571.992 350.188 572.016 350.098 572.065 350.035C572.27 349.766 572.57 349.476 572.966 349.163C573.034 349.114 573.095 349.09 573.149 349.09C573.212 349.09 573.273 349.114 573.332 349.163C573.542 349.324 573.718 349.476 573.859 349.617C574.006 349.759 574.13 349.898 574.233 350.035C574.282 350.098 574.306 350.188 574.306 350.306V353.821C574.306 354.881 574.726 355.411 575.566 355.411C575.981 355.411 576.313 355.267 576.562 354.979C576.811 354.686 576.936 354.29 576.936 353.792V350.306C576.936 350.188 576.96 350.098 577.009 350.035C577.214 349.766 577.514 349.476 577.91 349.163C577.978 349.114 578.039 349.09 578.093 349.09C578.156 349.09 578.217 349.114 578.276 349.163C578.486 349.324 578.662 349.476 578.803 349.617C578.95 349.759 579.074 349.898 579.177 350.035C579.226 350.098 579.25 350.188 579.25 350.306V356.663C579.25 356.756 579.218 356.836 579.155 356.905C579.091 356.968 579.011 357 578.913 357H577.814C577.736 357 577.666 356.99 577.602 356.971C577.543 356.946 577.487 356.902 577.434 356.839L576.979 356.253H576.928C576.85 356.365 576.728 356.495 576.562 356.641C576.401 356.788 576.164 356.915 575.852 357.022C575.544 357.129 575.129 357.183 574.606 357.183ZM583.176 357.183C582.458 357.183 581.887 356.983 581.462 356.583C581.042 356.177 580.832 355.621 580.832 354.913C580.832 354.546 580.898 354.207 581.03 353.895C581.167 353.577 581.401 353.299 581.733 353.06C582.07 352.815 582.539 352.62 583.139 352.474C583.745 352.327 584.516 352.242 585.454 352.217C585.454 351.773 585.341 351.453 585.117 351.258C584.897 351.062 584.565 350.965 584.121 350.965C583.72 350.965 583.393 351.033 583.139 351.17C582.885 351.307 582.727 351.399 582.663 351.448C582.595 351.507 582.512 351.529 582.414 351.514C582.282 351.495 582.141 351.46 581.989 351.412C581.843 351.363 581.684 351.307 581.513 351.243C581.489 351.233 581.462 351.219 581.433 351.199C581.403 351.175 581.386 351.141 581.381 351.097C581.381 351.072 581.384 351.043 581.389 351.009C581.394 350.97 581.406 350.901 581.425 350.804C581.445 350.706 581.474 350.586 581.513 350.445C581.552 350.298 581.589 350.186 581.623 350.108C581.667 350.025 581.74 349.947 581.843 349.874C581.926 349.805 582.177 349.695 582.597 349.544C583.017 349.393 583.625 349.317 584.421 349.317C586.613 349.317 587.709 350.384 587.709 352.518V356.663C587.709 356.756 587.683 356.836 587.629 356.905C587.58 356.968 587.495 357 587.373 357H586.274C586.196 357 586.125 356.99 586.062 356.971C586.003 356.946 585.947 356.902 585.893 356.839L585.439 356.253H585.388C585.163 356.58 584.86 356.817 584.479 356.963C584.104 357.11 583.669 357.183 583.176 357.183ZM583.981 355.484C584.431 355.484 584.77 355.369 585 355.14C585.229 354.91 585.375 354.673 585.439 354.429V353.616C584.76 353.616 584.25 353.67 583.908 353.777C583.571 353.88 583.347 354.017 583.234 354.188C583.122 354.354 583.066 354.534 583.066 354.729C583.066 355.013 583.154 355.21 583.33 355.323C583.505 355.43 583.723 355.484 583.981 355.484ZM596.865 352.334V356.612C596.865 356.758 596.833 356.861 596.77 356.919C596.711 356.973 596.608 357 596.462 357H594.953C594.807 357 594.702 356.973 594.638 356.919C594.58 356.861 594.55 356.758 594.55 356.612V352.715C594.55 352.183 594.438 351.795 594.213 351.551C593.989 351.307 593.684 351.185 593.298 351.185C592.912 351.185 592.614 351.268 592.404 351.434C592.199 351.6 592.041 351.81 591.928 352.063V356.612C591.928 356.758 591.896 356.861 591.833 356.919C591.774 356.973 591.672 357 591.525 357H590.017C589.87 357 589.765 356.973 589.702 356.919C589.643 356.861 589.614 356.758 589.614 356.612V350.474C589.614 350.357 589.638 350.267 589.687 350.203C589.79 350.066 589.912 349.927 590.053 349.786C590.2 349.644 590.378 349.493 590.588 349.332C590.651 349.283 590.712 349.258 590.771 349.258C590.825 349.258 590.886 349.283 590.954 349.332C591.159 349.493 591.335 349.646 591.481 349.793C591.628 349.939 591.757 350.091 591.87 350.247H591.906C591.989 350.14 592.114 350.015 592.28 349.874C592.446 349.727 592.678 349.598 592.976 349.485C593.278 349.373 593.664 349.317 594.133 349.317C594.592 349.317 595.029 349.41 595.444 349.595C595.859 349.781 596.198 350.093 596.462 350.533C596.73 350.972 596.865 351.573 596.865 352.334ZM606.093 350.203V356.143C606.093 357.569 605.686 358.655 604.87 359.402C604.06 360.149 602.946 360.523 601.53 360.523C600.944 360.523 600.48 360.479 600.139 360.391C599.797 360.308 599.538 360.228 599.362 360.149C599.25 360.096 599.177 360.04 599.143 359.981C599.094 359.903 599.038 359.788 598.974 359.637C598.916 359.485 598.859 359.319 598.806 359.139C598.791 359.07 598.789 359.019 598.798 358.985C598.818 358.936 598.854 358.885 598.908 358.831C598.996 358.743 599.121 358.641 599.282 358.523C599.448 358.406 599.575 358.331 599.663 358.296C599.755 358.262 599.841 358.267 599.919 358.311C600.046 358.379 600.227 358.455 600.461 358.538C600.7 358.626 601.035 358.67 601.464 358.67C602.148 358.67 602.705 358.494 603.134 358.143C603.564 357.791 603.779 357.249 603.779 356.517V356.253H603.75C603.642 356.39 603.503 356.529 603.332 356.67C603.161 356.812 602.939 356.932 602.666 357.029C602.397 357.127 602.05 357.176 601.625 357.176C600.888 357.176 600.283 357.017 599.809 356.7C599.34 356.377 598.994 355.936 598.769 355.374C598.549 354.812 598.439 354.173 598.439 353.455C598.439 352.669 598.569 351.963 598.828 351.338C599.086 350.713 599.521 350.22 600.131 349.859C600.742 349.493 601.577 349.31 602.636 349.31C603.271 349.31 603.803 349.356 604.233 349.449C604.667 349.542 605.031 349.656 605.324 349.793C605.617 349.93 605.874 350.066 606.093 350.203ZM602.556 351.082C601.989 351.082 601.557 351.272 601.259 351.653C600.961 352.034 600.812 352.625 600.812 353.426C600.812 354.681 601.33 355.308 602.365 355.308C602.771 355.308 603.081 355.225 603.295 355.059C603.51 354.893 603.671 354.683 603.779 354.429V351.404C603.671 351.326 603.52 351.253 603.325 351.185C603.129 351.116 602.873 351.082 602.556 351.082Z" fill="#FCFCFC"/>
<path d="M26.3945 22.626C27.4329 24.0798 28.4902 25.9583 29.5664 28.2617C30.6615 30.5462 31.7188 33.0573 32.7383 35.7949C33.7578 38.5326 34.6735 41.3363 35.4854 44.2061C36.3161 47.057 36.9958 49.804 37.5244 52.4473C38.0531 55.0905 38.3551 57.4411 38.4307 59.499C38.4495 60.4997 37.9964 61 37.0713 61H30.2178C29.3304 61 28.8678 60.5563 28.8301 59.6689C28.7546 57.5544 28.4147 54.9867 27.8105 51.9658H12.3477C11.819 54.9111 11.5169 57.4788 11.4414 59.6689C11.4036 60.5563 10.9222 61 9.99707 61H3.28516C2.94531 61 2.66211 60.9056 2.43555 60.7168C2.20898 60.5091 2.10514 60.1598 2.12402 59.6689C2.21842 57.5732 2.52051 55.1943 3.03027 52.5322C3.55892 49.8512 4.23861 47.0758 5.06934 44.2061C5.90007 41.3363 6.8252 38.5326 7.84473 35.7949C8.86426 33.0384 9.92155 30.5179 11.0166 28.2334C12.1117 25.9489 13.1784 24.0798 14.2168 22.626C14.7643 21.8519 15.3402 21.2855 15.9443 20.9268C16.5674 20.568 17.332 20.3887 18.2383 20.3887H22.3164C23.2415 20.3887 24.0156 20.568 24.6387 20.9268C25.2617 21.2855 25.847 21.8519 26.3945 22.626ZM19.9941 29.3379C18.748 31.3203 17.6058 33.6898 16.5674 36.4463C15.529 39.2028 14.6322 42.0348 13.877 44.9424H26.168C25.375 42.0348 24.4593 39.2028 23.4209 36.4463C22.3825 33.6898 21.2969 31.3203 20.1641 29.3379H19.9941ZM52.4492 61.708C50.429 61.708 48.7487 61.5381 47.4082 61.1982C46.0866 60.8584 45.0199 60.4525 44.208 59.9805C43.415 59.4896 42.792 59.0459 42.3389 58.6494C41.999 58.3285 41.9613 57.9697 42.2256 57.5732L45.1143 53.2969C45.5296 52.6927 46.0016 52.6549 46.5303 53.1836C47.0778 53.7122 47.8141 54.2314 48.7393 54.7412C49.6833 55.2321 50.8538 55.4775 52.251 55.4775C53.4971 55.4775 54.5166 55.2699 55.3096 54.8545C56.1214 54.4202 56.5273 53.7972 56.5273 52.9854C56.5273 52.4189 56.348 51.9564 55.9893 51.5977C55.6305 51.2389 54.998 50.8708 54.0918 50.4932C53.1855 50.1156 51.9206 49.6341 50.2969 49.0488C47.8991 48.1803 46.0866 47.1325 44.8594 45.9053C43.6322 44.6781 43.0186 42.8844 43.0186 40.5244C43.0186 38.3532 43.6133 36.5879 44.8027 35.2285C46.0111 33.8691 47.5498 32.8779 49.4189 32.2549C51.307 31.613 53.2705 31.292 55.3096 31.292C57.8962 31.292 59.7087 31.5374 60.7471 32.0283C61.8044 32.5003 62.484 32.8685 62.7861 33.1328C63.0693 33.3783 63.2676 33.6615 63.3809 33.9824C63.6263 34.7188 63.8151 35.6911 63.9473 36.8994C64.0228 37.598 63.8434 38.0605 63.4092 38.2871C63.1826 38.4193 62.8239 38.5609 62.333 38.7119C61.8421 38.863 61.3512 38.9951 60.8604 39.1084C60.3695 39.2217 60.0013 39.2783 59.7559 39.2783C59.6803 39.2783 59.5954 39.2594 59.501 39.2217C59.4255 39.165 59.2839 39.0423 59.0762 38.8535C58.8307 38.6081 58.4059 38.3249 57.8018 38.0039C57.2165 37.6829 56.4046 37.5225 55.3662 37.5225C54.3467 37.5225 53.4876 37.6924 52.7891 38.0322C52.1094 38.3532 51.7695 38.929 51.7695 39.7598C51.7695 40.666 52.2038 41.3457 53.0723 41.7988C53.9596 42.252 55.4134 42.8372 57.4336 43.5547C59.0195 44.1022 60.3978 44.7064 61.5684 45.3672C62.7578 46.0091 63.6735 46.8587 64.3154 47.916C64.9574 48.9544 65.2783 50.361 65.2783 52.1357C65.2783 54.4391 64.6458 56.2988 63.3809 57.7148C62.1348 59.112 60.5299 60.1315 58.5664 60.7734C56.6217 61.3965 54.5827 61.708 52.4492 61.708ZM88.8691 31.292C91.6257 31.292 93.8913 31.915 95.666 33.1611C97.4596 34.3883 98.7907 36.0876 99.6592 38.2588C100.547 40.4111 100.99 42.8844 100.99 45.6787C100.99 48.6995 100.471 51.4183 99.4326 53.835C98.4131 56.2516 96.9027 58.168 94.9014 59.584C92.9001 61 90.4173 61.708 87.4531 61.708C85.9238 61.708 84.6589 61.5286 83.6582 61.1699C82.6764 60.8301 81.8835 60.4242 81.2793 59.9521C80.694 59.4613 80.2314 59.0176 79.8916 58.6211H79.7783V70.6855C79.7783 71.1387 79.6839 71.488 79.4951 71.7334C78.7021 72.7718 77.541 73.8952 76.0117 75.1035C75.7474 75.2923 75.5114 75.3867 75.3037 75.3867C75.0771 75.3867 74.8411 75.2923 74.5957 75.1035C73.7839 74.4805 73.0947 73.8952 72.5283 73.3477C71.9808 72.8001 71.5088 72.262 71.1123 71.7334C70.9235 71.488 70.8291 71.1387 70.8291 70.6855V35.7666C70.8291 35.3135 70.9235 34.9642 71.1123 34.7188C71.5088 34.1901 71.9808 33.652 72.5283 33.1045C73.0947 32.557 73.7839 31.9717 74.5957 31.3486C74.8411 31.1598 75.096 31.0654 75.3604 31.0654C75.6058 31.0654 75.8607 31.1598 76.125 31.3486C76.918 31.9717 77.5977 32.5664 78.1641 33.1328C78.7305 33.6992 79.2308 34.2845 79.665 34.8887H79.8066C80.1276 34.4922 80.6185 34.0107 81.2793 33.4443C81.9401 32.8779 82.8747 32.3776 84.083 31.9434C85.3102 31.5091 86.9056 31.292 88.8691 31.292ZM85.3857 54.4863C87.4248 54.4863 89.0013 53.7783 90.1152 52.3623C91.248 50.9274 91.8145 48.86 91.8145 46.1602C91.8145 41.0625 89.7188 38.5137 85.5273 38.5137C83.7526 38.5137 82.4404 38.8818 81.5908 39.6182C80.7412 40.3356 80.137 41.1003 79.7783 41.9121V48.0576C79.7783 49.889 80.2503 51.4183 81.1943 52.6455C82.1383 53.8727 83.5355 54.4863 85.3857 54.4863ZM105.776 22.4844C105.776 22.2389 105.852 22.0218 106.003 21.833C106.154 21.6442 106.352 21.3988 106.598 21.0967C107.126 20.4925 107.74 19.86 108.438 19.1992C109.137 18.5195 109.845 17.8682 110.562 17.2451C111.016 16.8864 111.355 16.707 111.582 16.707C111.809 16.707 112.158 16.8864 112.63 17.2451C114.159 18.5667 115.462 19.8506 116.538 21.0967C116.784 21.3799 116.982 21.6253 117.133 21.833C117.303 22.0218 117.388 22.2389 117.388 22.4844C117.388 22.7298 117.303 22.9469 117.133 23.1357C116.982 23.3245 116.774 23.5794 116.51 23.9004C116 24.4857 115.405 25.1182 114.726 25.7979C114.046 26.4587 113.347 27.0911 112.63 27.6953C112.366 27.9219 112.158 28.0729 112.007 28.1484C111.856 28.2051 111.714 28.2334 111.582 28.2334C111.45 28.2334 111.308 28.2051 111.157 28.1484C111.025 28.0729 110.808 27.9219 110.506 27.6953C109.751 27.0911 109.043 26.4587 108.382 25.7979C107.721 25.1182 107.126 24.4668 106.598 23.8438C106.352 23.5417 106.154 23.3057 106.003 23.1357C105.852 22.9469 105.776 22.7298 105.776 22.4844ZM116.028 59.499C116.028 60.0654 115.906 60.4619 115.66 60.6885C115.434 60.8962 115.037 61 114.471 61H108.637C108.07 61 107.664 60.8962 107.419 60.6885C107.192 60.4619 107.079 60.0654 107.079 59.499V33.501C107.079 32.9346 107.192 32.5475 107.419 32.3398C107.664 32.1133 108.07 32 108.637 32H114.471C115.037 32 115.434 32.1133 115.66 32.3398C115.906 32.5475 116.028 32.9346 116.028 33.501V59.499ZM132.681 37.3809H132.794C134.21 33.4538 136.759 31.4902 140.44 31.4902C140.912 31.4902 141.299 31.5186 141.602 31.5752C141.904 31.613 142.111 31.6507 142.225 31.6885C142.508 31.7829 142.649 32 142.649 32.3398V39.165C142.649 39.7503 142.31 39.9108 141.63 39.6465C141.403 39.5521 141.073 39.4577 140.639 39.3633C140.223 39.25 139.638 39.1934 138.883 39.1934C136.938 39.1934 135.418 39.9108 134.323 41.3457C133.228 42.7617 132.681 44.6969 132.681 47.1514V59.499C132.681 60.0654 132.558 60.4619 132.312 60.6885C132.086 60.8962 131.689 61 131.123 61H125.289C124.723 61 124.317 60.8962 124.071 60.6885C123.845 60.4619 123.731 60.0654 123.731 59.499V35.7666C123.731 35.3135 123.826 34.9642 124.015 34.7188C124.411 34.1901 124.883 33.652 125.431 33.1045C125.997 32.557 126.686 31.9717 127.498 31.3486C127.649 31.2354 127.8 31.1598 127.951 31.1221C128.102 31.0843 128.234 31.0654 128.348 31.0654C128.612 31.0654 128.876 31.1598 129.141 31.3486C130.708 32.5758 131.803 33.6237 132.426 34.4922C132.596 34.7188 132.681 34.9831 132.681 35.2852V37.3809ZM145.595 22.4844C145.595 22.2389 145.67 22.0218 145.821 21.833C145.972 21.6442 146.171 21.3988 146.416 21.0967C146.945 20.4925 147.558 19.86 148.257 19.1992C148.955 18.5195 149.663 17.8682 150.381 17.2451C150.834 16.8864 151.174 16.707 151.4 16.707C151.627 16.707 151.976 16.8864 152.448 17.2451C153.978 18.5667 155.28 19.8506 156.356 21.0967C156.602 21.3799 156.8 21.6253 156.951 21.833C157.121 22.0218 157.206 22.2389 157.206 22.4844C157.206 22.7298 157.121 22.9469 156.951 23.1357C156.8 23.3245 156.592 23.5794 156.328 23.9004C155.818 24.4857 155.224 25.1182 154.544 25.7979C153.864 26.4587 153.166 27.0911 152.448 27.6953C152.184 27.9219 151.976 28.0729 151.825 28.1484C151.674 28.2051 151.533 28.2334 151.4 28.2334C151.268 28.2334 151.127 28.2051 150.976 28.1484C150.843 28.0729 150.626 27.9219 150.324 27.6953C149.569 27.0911 148.861 26.4587 148.2 25.7979C147.539 25.1182 146.945 24.4668 146.416 23.8438C146.171 23.5417 145.972 23.3057 145.821 23.1357C145.67 22.9469 145.595 22.7298 145.595 22.4844ZM155.847 59.499C155.847 60.0654 155.724 60.4619 155.479 60.6885C155.252 60.8962 154.855 61 154.289 61H148.455C147.889 61 147.483 60.8962 147.237 60.6885C147.011 60.4619 146.897 60.0654 146.897 59.499V33.501C146.897 32.9346 147.011 32.5475 147.237 32.3398C147.483 32.1133 147.889 32 148.455 32H154.289C154.855 32 155.252 32.1133 155.479 32.3398C155.724 32.5475 155.847 32.9346 155.847 33.501V59.499ZM191.587 42.96V59.499C191.587 60.0654 191.464 60.4619 191.219 60.6885C190.992 60.8962 190.596 61 190.029 61H184.195C183.629 61 183.223 60.8962 182.978 60.6885C182.751 60.4619 182.638 60.0654 182.638 59.499V44.4326C182.638 42.3747 182.203 40.8737 181.335 39.9297C180.466 38.9857 179.286 38.5137 177.795 38.5137C176.303 38.5137 175.152 38.8346 174.34 39.4766C173.547 40.1185 172.933 40.9303 172.499 41.9121V59.499C172.499 60.0654 172.376 60.4619 172.131 60.6885C171.904 60.8962 171.508 61 170.941 61H165.107C164.541 61 164.135 60.8962 163.89 60.6885C163.663 60.4619 163.55 60.0654 163.55 59.499V35.7666C163.55 35.3135 163.644 34.9642 163.833 34.7188C164.229 34.1901 164.701 33.652 165.249 33.1045C165.815 32.557 166.505 31.9717 167.316 31.3486C167.562 31.1598 167.798 31.0654 168.024 31.0654C168.232 31.0654 168.468 31.1598 168.732 31.3486C169.525 31.9717 170.205 32.5664 170.771 33.1328C171.338 33.6992 171.838 34.2845 172.272 34.8887H172.414C172.735 34.4733 173.216 33.9919 173.858 33.4443C174.5 32.8779 175.397 32.3776 176.549 31.9434C177.719 31.5091 179.211 31.292 181.023 31.292C182.798 31.292 184.488 31.6507 186.093 32.3682C187.698 33.0856 189.01 34.2939 190.029 35.9932C191.068 37.6924 191.587 40.0146 191.587 42.96ZM227.271 34.7188V57.6865C227.271 63.1995 225.694 67.4004 222.541 70.2891C219.407 73.1777 215.102 74.6221 209.627 74.6221C207.361 74.6221 205.568 74.4521 204.246 74.1123C202.924 73.7913 201.924 73.4798 201.244 73.1777C200.81 72.9701 200.527 72.7529 200.395 72.5264C200.206 72.2243 199.989 71.7806 199.743 71.1953C199.517 70.61 199.299 69.9681 199.092 69.2695C199.035 69.0052 199.026 68.807 199.063 68.6748C199.139 68.486 199.281 68.2878 199.488 68.0801C199.828 67.7402 200.31 67.3438 200.933 66.8906C201.575 66.4375 202.065 66.1449 202.405 66.0127C202.764 65.8805 203.094 65.8994 203.396 66.0693C203.887 66.3337 204.586 66.6263 205.492 66.9473C206.417 67.2871 207.711 67.457 209.372 67.457C212.015 67.457 214.168 66.7773 215.829 65.418C217.491 64.0586 218.321 61.9629 218.321 59.1309V58.1113H218.208C217.793 58.64 217.255 59.1781 216.594 59.7256C215.933 60.2731 215.074 60.7357 214.017 61.1133C212.978 61.4909 211.638 61.6797 209.995 61.6797C207.144 61.6797 204.803 61.0661 202.972 59.8389C201.159 58.5928 199.819 56.8841 198.95 54.7129C198.101 52.5417 197.676 50.0684 197.676 47.293C197.676 44.2533 198.176 41.5251 199.177 39.1084C200.177 36.6917 201.858 34.7848 204.218 33.3877C206.578 31.9717 209.806 31.2637 213.903 31.2637C216.358 31.2637 218.416 31.443 220.077 31.8018C221.757 32.1605 223.164 32.6042 224.297 33.1328C225.43 33.6615 226.421 34.1901 227.271 34.7188ZM213.592 38.1172C211.402 38.1172 209.731 38.8535 208.579 40.3262C207.427 41.7988 206.852 44.0833 206.852 47.1797C206.852 52.0319 208.853 54.458 212.855 54.458C214.423 54.458 215.621 54.137 216.452 53.4951C217.283 52.8532 217.906 52.0413 218.321 51.0596V39.3633C217.906 39.0612 217.321 38.778 216.565 38.5137C215.81 38.2493 214.819 38.1172 213.592 38.1172Z" fill="#F3FAD3"/>
<path d="M43.4434 129.042C42.0085 129.042 40.6963 128.693 39.5068 127.994C38.3363 127.296 37.4017 126.352 36.7031 125.162C36.0234 123.973 35.6836 122.66 35.6836 121.226C35.6836 119.772 36.0234 118.46 36.7031 117.289C37.4017 116.118 38.3363 115.193 39.5068 114.514C40.6963 113.815 42.0085 113.466 43.4434 113.466C44.8783 113.466 46.181 113.815 47.3516 114.514C48.541 115.212 49.4945 116.147 50.2119 117.317C50.9294 118.488 51.2881 119.791 51.2881 121.226C51.2881 122.642 50.9388 123.944 50.2402 125.134C49.5417 126.304 48.5977 127.248 47.4082 127.966C46.2376 128.683 44.916 129.042 43.4434 129.042ZM102.52 137.68C100.122 137.68 98.1299 137.463 96.5439 137.028C94.9769 136.594 93.7119 136.056 92.749 135.414C91.805 134.753 91.0781 134.102 90.5684 133.46C90.3984 133.215 90.2474 132.979 90.1152 132.752C89.9831 132.525 89.8887 132.271 89.832 131.987C89.7565 131.61 89.681 131.119 89.6055 130.515C89.5299 129.892 89.5205 129.174 89.5771 128.362C89.596 128.022 89.6621 127.786 89.7754 127.654C89.9076 127.503 90.1247 127.39 90.4268 127.314C90.9743 127.182 91.6823 127.069 92.5508 126.975C93.4382 126.861 94.0706 126.805 94.4482 126.805C94.8447 126.805 95.1657 126.88 95.4111 127.031C95.6566 127.182 95.9492 127.437 96.2891 127.796C96.6667 128.192 97.318 128.702 98.2432 129.325C99.1683 129.929 100.594 130.231 102.52 130.231C104.37 130.231 105.767 129.844 106.711 129.07C107.655 128.296 108.127 127.22 108.127 125.842C108.127 125.105 107.9 124.416 107.447 123.774C107.013 123.114 106.211 122.462 105.04 121.82C103.869 121.16 102.199 120.47 100.027 119.753C96.4401 118.545 93.8535 117.044 92.2676 115.25C90.6816 113.456 89.8887 110.964 89.8887 107.773C89.8887 105.13 90.5306 102.921 91.8145 101.146C93.0983 99.3717 94.873 98.0312 97.1387 97.125C99.4043 96.2188 102.019 95.7656 104.983 95.7656C107.268 95.7656 109.156 96.0394 110.647 96.5869C112.158 97.1156 113.328 97.7197 114.159 98.3994C114.99 99.0602 115.528 99.5983 115.773 100.014C115.924 100.259 116.019 100.448 116.057 100.58C116.113 100.693 116.151 100.854 116.17 101.062C116.227 101.647 116.245 102.298 116.227 103.016C116.208 103.733 116.142 104.545 116.028 105.451C115.972 105.753 115.868 105.961 115.717 106.074C115.585 106.169 115.377 106.216 115.094 106.216C113.262 106.254 111.846 106.159 110.846 105.933C110.449 105.838 110.185 105.744 110.053 105.649C109.921 105.555 109.751 105.404 109.543 105.196C109.241 104.838 108.759 104.422 108.099 103.95C107.457 103.459 106.418 103.214 104.983 103.214C103.001 103.214 101.594 103.667 100.764 104.573C99.9329 105.461 99.5176 106.461 99.5176 107.575C99.5176 108.897 100.131 109.935 101.358 110.69C102.586 111.427 104.521 112.267 107.164 113.211C109.373 113.985 111.271 114.825 112.856 115.731C114.442 116.638 115.651 117.799 116.481 119.215C117.331 120.631 117.756 122.5 117.756 124.822C117.756 127.711 117.086 130.109 115.745 132.016C114.424 133.923 112.611 135.348 110.308 136.292C108.023 137.217 105.427 137.68 102.52 137.68ZM137.75 137.708C132.992 137.708 129.226 136.443 126.45 133.913C123.675 131.383 122.287 127.617 122.287 122.613C122.287 117.478 123.722 113.645 126.592 111.115C129.48 108.566 133.332 107.292 138.146 107.292C142.791 107.292 146.51 108.548 149.305 111.059C152.099 113.551 153.496 117.232 153.496 122.104C153.496 127.182 152.099 131.053 149.305 133.715C146.51 136.377 142.659 137.708 137.75 137.708ZM138.033 130.854C140.11 130.854 141.677 130.213 142.734 128.929C143.792 127.626 144.32 125.408 144.32 122.273C144.32 119.29 143.782 117.195 142.706 115.986C141.649 114.759 140.072 114.146 137.977 114.146C135.956 114.146 134.361 114.806 133.19 116.128C132.039 117.431 131.463 119.555 131.463 122.5C131.463 125.577 132.01 127.739 133.105 128.985C134.219 130.231 135.862 130.854 138.033 130.854ZM170.262 135.499C170.262 136.065 170.139 136.462 169.894 136.688C169.667 136.896 169.271 137 168.704 137H162.87C162.304 137 161.898 136.896 161.652 136.688C161.426 136.462 161.312 136.065 161.312 135.499V114.599H157.971C157.404 114.599 157.008 114.485 156.781 114.259C156.574 114.013 156.47 113.607 156.47 113.041V109.558C156.47 108.991 156.574 108.595 156.781 108.368C157.008 108.123 157.404 108 157.971 108H161.312V104.403C161.312 102.119 161.766 100.155 162.672 98.5127C163.597 96.8701 164.834 95.6051 166.382 94.7178C167.949 93.8304 169.686 93.3867 171.593 93.3867C172.48 93.3867 173.15 93.4245 173.604 93.5C174.076 93.5755 174.425 93.6888 174.651 93.8398C175.388 94.2552 176.407 95.1048 177.71 96.3887C177.918 96.6152 178.021 96.8418 178.021 97.0684C178.021 97.3138 177.861 97.597 177.54 97.918C176.974 98.5033 176.436 99.0036 175.926 99.4189C175.416 99.8154 175.001 100.118 174.68 100.325C174.396 100.495 174.142 100.599 173.915 100.637C173.707 100.656 173.415 100.665 173.037 100.665C171.187 100.665 170.262 102.081 170.262 104.913V108H175.388C175.954 108 176.341 108.123 176.549 108.368C176.775 108.595 176.889 108.991 176.889 109.558V113.041C176.889 113.607 176.775 114.013 176.549 114.259C176.341 114.485 175.954 114.599 175.388 114.599H170.262V135.499ZM193.484 137.708C187.178 137.708 184.025 134.432 184.025 127.881V114.599H180.825C180.259 114.599 179.862 114.485 179.636 114.259C179.428 114.013 179.324 113.607 179.324 113.041V109.558C179.324 108.991 179.428 108.595 179.636 108.368C179.862 108.123 180.259 108 180.825 108H184.025V103.44C184.025 102.987 184.12 102.638 184.309 102.393C185.102 101.354 186.263 100.231 187.792 99.0225C188.056 98.8337 188.292 98.7393 188.5 98.7393C188.727 98.7393 188.953 98.8337 189.18 99.0225C189.992 99.6455 190.671 100.231 191.219 100.778C191.785 101.326 192.267 101.864 192.663 102.393C192.852 102.638 192.946 102.987 192.946 103.44V108H197.959C198.525 108 198.912 108.123 199.12 108.368C199.347 108.595 199.46 108.991 199.46 109.558V113.041C199.46 113.607 199.347 114.013 199.12 114.259C198.912 114.485 198.525 114.599 197.959 114.599H192.946V126.323C192.946 129.344 194.041 130.854 196.231 130.854C196.571 130.854 196.883 130.826 197.166 130.77C197.449 130.694 197.695 130.618 197.902 130.543C198.299 130.392 198.573 130.335 198.724 130.373C198.894 130.411 199.045 130.618 199.177 130.996L200.819 135.386C200.989 135.858 200.876 136.198 200.479 136.405C200.196 136.537 199.507 136.783 198.412 137.142C197.336 137.519 195.693 137.708 193.484 137.708ZM210.646 134.933C210.099 134.083 209.514 132.903 208.891 131.393C208.268 129.863 207.654 128.174 207.05 126.323C206.446 124.454 205.889 122.594 205.379 120.744C204.888 118.875 204.492 117.166 204.189 115.618C203.887 114.051 203.736 112.824 203.736 111.937C203.736 111.559 203.84 111.247 204.048 111.002C204.916 109.926 206.153 108.802 207.758 107.632C208.041 107.443 208.296 107.349 208.522 107.349C208.768 107.349 209.023 107.443 209.287 107.632C210.156 108.255 210.882 108.84 211.468 109.388C212.072 109.935 212.582 110.473 212.997 111.002C213.205 111.247 213.309 111.597 213.309 112.05V111.908C213.309 113.079 213.375 114.429 213.507 115.958C213.658 117.487 213.866 119.064 214.13 120.688C214.394 122.311 214.706 123.859 215.064 125.332C215.442 126.805 215.857 128.07 216.311 129.127H216.48C216.971 128.07 217.491 126.691 218.038 124.992C218.586 123.293 219.105 121.499 219.596 119.611C220.105 117.704 220.559 115.911 220.955 114.23C221.352 112.55 221.635 111.219 221.805 110.237C221.937 109.501 222.229 109.01 222.683 108.765C223.155 108.519 223.806 108.396 224.637 108.396H227.922C228.866 108.396 229.536 108.538 229.933 108.821C230.348 109.104 230.603 109.576 230.697 110.237C230.848 111.257 231.122 112.635 231.519 114.372C231.915 116.09 232.359 117.912 232.85 119.838C233.359 121.764 233.869 123.567 234.379 125.247C234.889 126.927 235.323 128.221 235.682 129.127H235.88C236.446 127.881 236.984 126.276 237.494 124.312C238.004 122.33 238.419 120.244 238.74 118.054C239.061 115.864 239.222 113.825 239.222 111.937V112.05C239.222 111.597 239.316 111.247 239.505 111.002C239.939 110.473 240.449 109.935 241.034 109.388C241.619 108.84 242.327 108.255 243.158 107.632C243.423 107.443 243.668 107.349 243.895 107.349C244.159 107.349 244.404 107.443 244.631 107.632C245.48 108.255 246.198 108.84 246.783 109.388C247.368 109.935 247.869 110.473 248.284 111.002C248.473 111.247 248.567 111.578 248.567 111.993C248.549 112.918 248.369 114.155 248.029 115.703C247.689 117.232 247.236 118.913 246.67 120.744C246.122 122.576 245.509 124.407 244.829 126.238C244.168 128.07 243.489 129.75 242.79 131.279C242.11 132.809 241.478 134.026 240.893 134.933C240.515 135.518 240.185 135.962 239.901 136.264C239.618 136.566 239.269 136.764 238.854 136.858C238.457 136.953 237.862 137 237.069 137H233.869C232.982 137 232.283 136.877 231.773 136.632C231.283 136.368 230.82 135.801 230.386 134.933C230.121 134.423 229.8 133.573 229.423 132.384C229.045 131.175 228.658 129.863 228.262 128.447C227.865 127.012 227.516 125.672 227.214 124.426C226.912 123.18 226.714 122.264 226.619 121.679C226.525 121.112 226.421 120.423 226.308 119.611C226.213 118.799 226.147 118.158 226.109 117.686H225.968C225.949 118.158 225.883 118.799 225.77 119.611C225.675 120.404 225.571 121.103 225.458 121.707C225.345 122.236 225.137 123.057 224.835 124.171C224.533 125.266 224.165 126.484 223.73 127.824C223.315 129.146 222.871 130.439 222.399 131.704C221.946 132.969 221.512 134.045 221.097 134.933C220.681 135.801 220.2 136.368 219.652 136.632C219.124 136.877 218.274 137 217.104 137H213.818C212.893 137 212.261 136.858 211.921 136.575C211.6 136.292 211.175 135.744 210.646 134.933ZM203.736 111.88V111.937C203.736 111.974 203.736 112.012 203.736 112.05V111.88ZM248.567 111.937V112.05V111.993C248.567 111.974 248.567 111.955 248.567 111.937ZM261.057 137.708C258.281 137.708 256.072 136.934 254.43 135.386C252.806 133.819 251.994 131.666 251.994 128.929C251.994 127.513 252.249 126.201 252.759 124.992C253.287 123.765 254.194 122.689 255.478 121.764C256.78 120.82 258.593 120.064 260.915 119.498C263.256 118.932 266.239 118.601 269.864 118.507C269.864 116.789 269.43 115.552 268.562 114.797C267.712 114.042 266.428 113.664 264.71 113.664C263.162 113.664 261.897 113.928 260.915 114.457C259.933 114.986 259.32 115.344 259.074 115.533C258.81 115.76 258.489 115.845 258.111 115.788C257.602 115.713 257.054 115.58 256.469 115.392C255.902 115.203 255.289 114.986 254.628 114.74C254.534 114.702 254.43 114.646 254.316 114.57C254.203 114.476 254.137 114.344 254.118 114.174C254.118 114.079 254.128 113.966 254.146 113.834C254.165 113.683 254.213 113.419 254.288 113.041C254.364 112.663 254.477 112.201 254.628 111.653C254.779 111.087 254.921 110.653 255.053 110.351C255.223 110.03 255.506 109.728 255.902 109.444C256.223 109.18 257.196 108.755 258.819 108.17C260.443 107.585 262.794 107.292 265.871 107.292C274.348 107.292 278.587 111.417 278.587 119.668V135.697C278.587 136.056 278.483 136.368 278.275 136.632C278.087 136.877 277.756 137 277.284 137H273.036C272.734 137 272.46 136.962 272.215 136.887C271.988 136.792 271.771 136.622 271.563 136.377L269.808 134.111H269.609C268.741 135.376 267.57 136.292 266.098 136.858C264.644 137.425 262.964 137.708 261.057 137.708ZM264.172 131.138C265.909 131.138 267.221 130.694 268.108 129.807C268.996 128.919 269.562 128.004 269.808 127.06V123.916C267.183 123.916 265.21 124.124 263.889 124.539C262.586 124.936 261.717 125.464 261.283 126.125C260.849 126.767 260.632 127.465 260.632 128.221C260.632 129.316 260.972 130.08 261.651 130.515C262.331 130.93 263.171 131.138 264.172 131.138ZM294.899 113.381H295.013C296.429 109.454 298.978 107.49 302.659 107.49C303.131 107.49 303.518 107.519 303.82 107.575C304.122 107.613 304.33 107.651 304.443 107.688C304.727 107.783 304.868 108 304.868 108.34V115.165C304.868 115.75 304.528 115.911 303.849 115.646C303.622 115.552 303.292 115.458 302.857 115.363C302.442 115.25 301.857 115.193 301.102 115.193C299.157 115.193 297.637 115.911 296.542 117.346C295.447 118.762 294.899 120.697 294.899 123.151V135.499C294.899 136.065 294.777 136.462 294.531 136.688C294.305 136.896 293.908 137 293.342 137H287.508C286.941 137 286.535 136.896 286.29 136.688C286.063 136.462 285.95 136.065 285.95 135.499V111.767C285.95 111.313 286.045 110.964 286.233 110.719C286.63 110.19 287.102 109.652 287.649 109.104C288.216 108.557 288.905 107.972 289.717 107.349C289.868 107.235 290.019 107.16 290.17 107.122C290.321 107.084 290.453 107.065 290.566 107.065C290.831 107.065 291.095 107.16 291.359 107.349C292.926 108.576 294.021 109.624 294.645 110.492C294.814 110.719 294.899 110.983 294.899 111.285V113.381ZM323.333 137.708C320.142 137.708 317.367 137.198 315.007 136.179C312.647 135.14 310.815 133.535 309.513 131.364C308.21 129.193 307.559 126.389 307.559 122.953C307.559 117.799 308.88 113.9 311.523 111.257C314.167 108.614 317.678 107.292 322.059 107.292C324.91 107.292 327.317 107.802 329.28 108.821C331.263 109.841 332.764 111.247 333.783 113.041C334.822 114.835 335.341 116.883 335.341 119.187C335.341 121.433 334.765 123 333.613 123.888C332.462 124.775 330.781 125.219 328.572 125.219H316.423C316.574 127.163 317.282 128.646 318.547 129.665C319.831 130.685 321.568 131.194 323.758 131.194C325.495 131.194 326.882 130.939 327.921 130.43C328.978 129.901 329.715 129.486 330.13 129.184C330.489 128.919 330.895 128.797 331.348 128.815C331.706 128.815 332.216 128.891 332.877 129.042C333.557 129.174 334.227 129.429 334.888 129.807C335.36 130.052 335.596 130.392 335.596 130.826C335.596 131.072 335.549 131.421 335.454 131.874C335.397 132.138 335.303 132.525 335.171 133.035C335.039 133.526 334.869 133.989 334.661 134.423C334.548 134.631 334.368 134.829 334.123 135.018C333.745 135.282 333.132 135.631 332.282 136.065C331.451 136.5 330.309 136.877 328.855 137.198C327.402 137.538 325.561 137.708 323.333 137.708ZM316.366 119.413H325.599C326.562 119.413 327.043 118.969 327.043 118.082C327.043 116.742 326.618 115.618 325.769 114.712C324.938 113.787 323.682 113.324 322.002 113.324C320.171 113.324 318.821 113.91 317.952 115.08C317.103 116.251 316.574 117.695 316.366 119.413ZM365.304 137C363.359 137 361.877 136.755 360.857 136.264C359.857 135.773 359.177 134.97 358.818 133.856C358.479 132.743 358.309 131.26 358.309 129.41V103.979C358.309 102.09 358.479 100.599 358.818 99.5039C359.177 98.39 359.857 97.597 360.857 97.125C361.877 96.6341 363.359 96.3887 365.304 96.3887H378.614C379.067 96.3887 379.407 96.4642 379.634 96.6152C380.125 96.9551 380.634 97.361 381.163 97.833C381.692 98.305 382.249 98.8714 382.834 99.5322C383.023 99.7777 383.117 99.9759 383.117 100.127C383.117 100.297 383.023 100.486 382.834 100.693C382.249 101.354 381.692 101.921 381.163 102.393C380.634 102.865 380.125 103.271 379.634 103.61C379.369 103.761 379.03 103.837 378.614 103.837H370.685C369.438 103.837 368.589 104.101 368.136 104.63C367.683 105.159 367.456 106.065 367.456 107.349V112.843H377.623C378.076 112.843 378.416 112.918 378.643 113.069C379.133 113.409 379.643 113.815 380.172 114.287C380.701 114.759 381.257 115.326 381.843 115.986C382.032 116.232 382.126 116.43 382.126 116.581C382.126 116.751 382.032 116.94 381.843 117.147C381.257 117.808 380.701 118.375 380.172 118.847C379.643 119.319 379.133 119.725 378.643 120.064C378.378 120.215 378.038 120.291 377.623 120.291H367.456V126.012C367.456 127.277 367.683 128.183 368.136 128.73C368.589 129.278 369.438 129.552 370.685 129.552H379.549C380.002 129.552 380.342 129.627 380.568 129.778C381.059 130.118 381.569 130.524 382.098 130.996C382.626 131.468 383.183 132.035 383.769 132.695C383.957 132.941 384.052 133.139 384.052 133.29C384.052 133.46 383.957 133.649 383.769 133.856C383.183 134.517 382.626 135.084 382.098 135.556C381.569 136.028 381.059 136.434 380.568 136.773C380.304 136.924 379.964 137 379.549 137H365.304ZM417.356 118.96V135.499C417.356 136.065 417.234 136.462 416.988 136.688C416.762 136.896 416.365 137 415.799 137H409.965C409.398 137 408.993 136.896 408.747 136.688C408.521 136.462 408.407 136.065 408.407 135.499V120.433C408.407 118.375 407.973 116.874 407.104 115.93C406.236 114.986 405.056 114.514 403.564 114.514C402.073 114.514 400.921 114.835 400.109 115.477C399.316 116.118 398.703 116.93 398.269 117.912V135.499C398.269 136.065 398.146 136.462 397.9 136.688C397.674 136.896 397.277 137 396.711 137H390.877C390.311 137 389.905 136.896 389.659 136.688C389.433 136.462 389.319 136.065 389.319 135.499V111.767C389.319 111.313 389.414 110.964 389.603 110.719C389.999 110.19 390.471 109.652 391.019 109.104C391.585 108.557 392.274 107.972 393.086 107.349C393.331 107.16 393.567 107.065 393.794 107.065C394.002 107.065 394.238 107.16 394.502 107.349C395.295 107.972 395.975 108.566 396.541 109.133C397.107 109.699 397.608 110.285 398.042 110.889H398.184C398.505 110.473 398.986 109.992 399.628 109.444C400.27 108.878 401.167 108.378 402.318 107.943C403.489 107.509 404.98 107.292 406.793 107.292C408.568 107.292 410.257 107.651 411.862 108.368C413.467 109.086 414.779 110.294 415.799 111.993C416.837 113.692 417.356 116.015 417.356 118.96ZM453.04 110.719V133.687C453.04 139.2 451.464 143.4 448.311 146.289C445.176 149.178 440.872 150.622 435.396 150.622C433.131 150.622 431.337 150.452 430.016 150.112C428.694 149.791 427.693 149.48 427.014 149.178C426.579 148.97 426.296 148.753 426.164 148.526C425.975 148.224 425.758 147.781 425.513 147.195C425.286 146.61 425.069 145.968 424.861 145.27C424.805 145.005 424.795 144.807 424.833 144.675C424.909 144.486 425.05 144.288 425.258 144.08C425.598 143.74 426.079 143.344 426.702 142.891C427.344 142.438 427.835 142.145 428.175 142.013C428.534 141.881 428.864 141.899 429.166 142.069C429.657 142.334 430.355 142.626 431.262 142.947C432.187 143.287 433.48 143.457 435.142 143.457C437.785 143.457 439.937 142.777 441.599 141.418C443.26 140.059 444.091 137.963 444.091 135.131V134.111H443.978C443.562 134.64 443.024 135.178 442.363 135.726C441.702 136.273 440.843 136.736 439.786 137.113C438.748 137.491 437.407 137.68 435.765 137.68C432.914 137.68 430.573 137.066 428.741 135.839C426.929 134.593 425.588 132.884 424.72 130.713C423.87 128.542 423.445 126.068 423.445 123.293C423.445 120.253 423.946 117.525 424.946 115.108C425.947 112.692 427.627 110.785 429.987 109.388C432.347 107.972 435.576 107.264 439.673 107.264C442.127 107.264 444.185 107.443 445.847 107.802C447.527 108.16 448.934 108.604 450.066 109.133C451.199 109.661 452.19 110.19 453.04 110.719ZM439.361 114.117C437.171 114.117 435.5 114.854 434.349 116.326C433.197 117.799 432.621 120.083 432.621 123.18C432.621 128.032 434.622 130.458 438.625 130.458C440.192 130.458 441.391 130.137 442.222 129.495C443.052 128.853 443.675 128.041 444.091 127.06V115.363C443.675 115.061 443.09 114.778 442.335 114.514C441.58 114.249 440.589 114.117 439.361 114.117ZM459.384 98.4844C459.384 98.2389 459.459 98.0218 459.61 97.833C459.761 97.6442 459.96 97.3988 460.205 97.0967C460.734 96.4925 461.347 95.86 462.046 95.1992C462.744 94.5195 463.452 93.8682 464.17 93.2451C464.623 92.8864 464.963 92.707 465.189 92.707C465.416 92.707 465.765 92.8864 466.237 93.2451C467.767 94.5667 469.069 95.8506 470.146 97.0967C470.391 97.3799 470.589 97.6253 470.74 97.833C470.91 98.0218 470.995 98.2389 470.995 98.4844C470.995 98.7298 470.91 98.9469 470.74 99.1357C470.589 99.3245 470.382 99.5794 470.117 99.9004C469.607 100.486 469.013 101.118 468.333 101.798C467.653 102.459 466.955 103.091 466.237 103.695C465.973 103.922 465.765 104.073 465.614 104.148C465.463 104.205 465.322 104.233 465.189 104.233C465.057 104.233 464.916 104.205 464.765 104.148C464.632 104.073 464.415 103.922 464.113 103.695C463.358 103.091 462.65 102.459 461.989 101.798C461.328 101.118 460.734 100.467 460.205 99.8438C459.96 99.5417 459.761 99.3057 459.61 99.1357C459.459 98.9469 459.384 98.7298 459.384 98.4844ZM469.636 135.499C469.636 136.065 469.513 136.462 469.268 136.688C469.041 136.896 468.645 137 468.078 137H462.244C461.678 137 461.272 136.896 461.026 136.688C460.8 136.462 460.687 136.065 460.687 135.499V109.501C460.687 108.935 460.8 108.548 461.026 108.34C461.272 108.113 461.678 108 462.244 108H468.078C468.645 108 469.041 108.113 469.268 108.34C469.513 108.548 469.636 108.935 469.636 109.501V135.499ZM505.376 118.96V135.499C505.376 136.065 505.253 136.462 505.008 136.688C504.781 136.896 504.385 137 503.818 137H497.984C497.418 137 497.012 136.896 496.767 136.688C496.54 136.462 496.427 136.065 496.427 135.499V120.433C496.427 118.375 495.993 116.874 495.124 115.93C494.256 114.986 493.076 114.514 491.584 114.514C490.092 114.514 488.941 114.835 488.129 115.477C487.336 116.118 486.722 116.93 486.288 117.912V135.499C486.288 136.065 486.165 136.462 485.92 136.688C485.693 136.896 485.297 137 484.73 137H478.896C478.33 137 477.924 136.896 477.679 136.688C477.452 136.462 477.339 136.065 477.339 135.499V111.767C477.339 111.313 477.433 110.964 477.622 110.719C478.019 110.19 478.491 109.652 479.038 109.104C479.604 108.557 480.294 107.972 481.105 107.349C481.351 107.16 481.587 107.065 481.813 107.065C482.021 107.065 482.257 107.16 482.521 107.349C483.314 107.972 483.994 108.566 484.561 109.133C485.127 109.699 485.627 110.285 486.062 110.889H486.203C486.524 110.473 487.006 109.992 487.647 109.444C488.289 108.878 489.186 108.378 490.338 107.943C491.508 107.509 493 107.292 494.812 107.292C496.587 107.292 498.277 107.651 499.882 108.368C501.487 109.086 502.799 110.294 503.818 111.993C504.857 113.692 505.376 116.015 505.376 118.96ZM527.239 137.708C524.049 137.708 521.273 137.198 518.913 136.179C516.553 135.14 514.722 133.535 513.419 131.364C512.116 129.193 511.465 126.389 511.465 122.953C511.465 117.799 512.786 113.9 515.43 111.257C518.073 108.614 521.585 107.292 525.965 107.292C528.816 107.292 531.223 107.802 533.187 108.821C535.169 109.841 536.67 111.247 537.689 113.041C538.728 114.835 539.247 116.883 539.247 119.187C539.247 121.433 538.671 123 537.52 123.888C536.368 124.775 534.688 125.219 532.479 125.219H520.329C520.48 127.163 521.188 128.646 522.453 129.665C523.737 130.685 525.474 131.194 527.664 131.194C529.401 131.194 530.789 130.939 531.827 130.43C532.884 129.901 533.621 129.486 534.036 129.184C534.395 128.919 534.801 128.797 535.254 128.815C535.613 128.815 536.122 128.891 536.783 129.042C537.463 129.174 538.133 129.429 538.794 129.807C539.266 130.052 539.502 130.392 539.502 130.826C539.502 131.072 539.455 131.421 539.36 131.874C539.304 132.138 539.209 132.525 539.077 133.035C538.945 133.526 538.775 133.989 538.567 134.423C538.454 134.631 538.275 134.829 538.029 135.018C537.652 135.282 537.038 135.631 536.188 136.065C535.358 136.5 534.215 136.877 532.762 137.198C531.308 137.538 529.467 137.708 527.239 137.708ZM520.272 119.413H529.505C530.468 119.413 530.949 118.969 530.949 118.082C530.949 116.742 530.524 115.618 529.675 114.712C528.844 113.787 527.589 113.324 525.908 113.324C524.077 113.324 522.727 113.91 521.858 115.08C521.009 116.251 520.48 117.695 520.272 119.413ZM559.694 137.708C556.504 137.708 553.728 137.198 551.368 136.179C549.008 135.14 547.177 133.535 545.874 131.364C544.571 129.193 543.92 126.389 543.92 122.953C543.92 117.799 545.242 113.9 547.885 111.257C550.528 108.614 554.04 107.292 558.42 107.292C561.271 107.292 563.678 107.802 565.642 108.821C567.624 109.841 569.125 111.247 570.145 113.041C571.183 114.835 571.702 116.883 571.702 119.187C571.702 121.433 571.126 123 569.975 123.888C568.823 124.775 567.143 125.219 564.934 125.219H552.784C552.935 127.163 553.643 128.646 554.908 129.665C556.192 130.685 557.929 131.194 560.119 131.194C561.856 131.194 563.244 130.939 564.282 130.43C565.34 129.901 566.076 129.486 566.491 129.184C566.85 128.919 567.256 128.797 567.709 128.815C568.068 128.815 568.577 128.891 569.238 129.042C569.918 129.174 570.588 129.429 571.249 129.807C571.721 130.052 571.957 130.392 571.957 130.826C571.957 131.072 571.91 131.421 571.815 131.874C571.759 132.138 571.664 132.525 571.532 133.035C571.4 133.526 571.23 133.989 571.022 134.423C570.909 134.631 570.73 134.829 570.484 135.018C570.107 135.282 569.493 135.631 568.644 136.065C567.813 136.5 566.671 136.877 565.217 137.198C563.763 137.538 561.922 137.708 559.694 137.708ZM552.728 119.413H561.96C562.923 119.413 563.404 118.969 563.404 118.082C563.404 116.742 562.979 115.618 562.13 114.712C561.299 113.787 560.044 113.324 558.363 113.324C556.532 113.324 555.182 113.91 554.313 115.08C553.464 116.251 552.935 117.695 552.728 119.413ZM586.882 113.381H586.995C588.411 109.454 590.96 107.49 594.642 107.49C595.114 107.49 595.501 107.519 595.803 107.575C596.105 107.613 596.312 107.651 596.426 107.688C596.709 107.783 596.851 108 596.851 108.34V115.165C596.851 115.75 596.511 115.911 595.831 115.646C595.604 115.552 595.274 115.458 594.84 115.363C594.424 115.25 593.839 115.193 593.084 115.193C591.139 115.193 589.619 115.911 588.524 117.346C587.429 118.762 586.882 120.697 586.882 123.151V135.499C586.882 136.065 586.759 136.462 586.514 136.688C586.287 136.896 585.891 137 585.324 137H579.49C578.924 137 578.518 136.896 578.272 136.688C578.046 136.462 577.933 136.065 577.933 135.499V111.767C577.933 111.313 578.027 110.964 578.216 110.719C578.612 110.19 579.084 109.652 579.632 109.104C580.198 108.557 580.887 107.972 581.699 107.349C581.85 107.235 582.001 107.16 582.152 107.122C582.303 107.084 582.436 107.065 582.549 107.065C582.813 107.065 583.077 107.16 583.342 107.349C584.909 108.576 586.004 109.624 586.627 110.492C586.797 110.719 586.882 110.983 586.882 111.285V113.381ZM43.4434 205.042C42.0085 205.042 40.6963 204.693 39.5068 203.994C38.3363 203.296 37.4017 202.352 36.7031 201.162C36.0234 199.973 35.6836 198.66 35.6836 197.226C35.6836 195.772 36.0234 194.46 36.7031 193.289C37.4017 192.118 38.3363 191.193 39.5068 190.514C40.6963 189.815 42.0085 189.466 43.4434 189.466C44.8783 189.466 46.181 189.815 47.3516 190.514C48.541 191.212 49.4945 192.147 50.2119 193.317C50.9294 194.488 51.2881 195.791 51.2881 197.226C51.2881 198.642 50.9388 199.944 50.2402 201.134C49.5417 202.304 48.5977 203.248 47.4082 203.966C46.2376 204.683 44.916 205.042 43.4434 205.042ZM98.5264 213C96.5817 213 95.0996 212.755 94.0801 212.264C93.0794 211.773 92.3997 210.97 92.041 209.856C91.7012 208.743 91.5312 207.26 91.5312 205.41V179.979C91.5312 178.09 91.7012 176.599 92.041 175.504C92.3997 174.39 93.0794 173.597 94.0801 173.125C95.0996 172.634 96.5817 172.389 98.5264 172.389H107.221C111.28 172.389 114.829 172.993 117.869 174.201C120.928 175.41 123.307 177.458 125.006 180.347C126.705 183.216 127.555 187.162 127.555 192.185C127.555 197.207 126.705 201.247 125.006 204.306C123.307 207.345 120.928 209.554 117.869 210.933C114.829 212.311 111.28 213 107.221 213H98.5264ZM103.907 179.837C102.661 179.837 101.812 180.101 101.358 180.63C100.905 181.159 100.679 182.065 100.679 183.349V202.04C100.679 203.305 100.905 204.211 101.358 204.759C101.812 205.306 102.661 205.58 103.907 205.58H105.21C109.25 205.58 112.375 204.589 114.584 202.606C116.812 200.624 117.926 197.188 117.926 192.298C117.926 189.032 117.416 186.502 116.396 184.708C115.396 182.896 113.942 181.631 112.035 180.913C110.128 180.196 107.834 179.837 105.153 179.837H103.907ZM140.865 213.708C138.09 213.708 135.881 212.934 134.238 211.386C132.615 209.819 131.803 207.666 131.803 204.929C131.803 203.513 132.058 202.201 132.567 200.992C133.096 199.765 134.002 198.689 135.286 197.764C136.589 196.82 138.401 196.064 140.724 195.498C143.065 194.932 146.048 194.601 149.673 194.507C149.673 192.789 149.239 191.552 148.37 190.797C147.521 190.042 146.237 189.664 144.519 189.664C142.97 189.664 141.705 189.928 140.724 190.457C139.742 190.986 139.128 191.344 138.883 191.533C138.618 191.76 138.298 191.845 137.92 191.788C137.41 191.713 136.863 191.58 136.277 191.392C135.711 191.203 135.097 190.986 134.437 190.74C134.342 190.702 134.238 190.646 134.125 190.57C134.012 190.476 133.946 190.344 133.927 190.174C133.927 190.079 133.936 189.966 133.955 189.834C133.974 189.683 134.021 189.419 134.097 189.041C134.172 188.663 134.285 188.201 134.437 187.653C134.588 187.087 134.729 186.653 134.861 186.351C135.031 186.03 135.314 185.728 135.711 185.444C136.032 185.18 137.004 184.755 138.628 184.17C140.252 183.585 142.602 183.292 145.68 183.292C154.157 183.292 158.396 187.417 158.396 195.668V211.697C158.396 212.056 158.292 212.368 158.084 212.632C157.895 212.877 157.565 213 157.093 213H152.845C152.543 213 152.269 212.962 152.023 212.887C151.797 212.792 151.58 212.622 151.372 212.377L149.616 210.111H149.418C148.549 211.376 147.379 212.292 145.906 212.858C144.452 213.425 142.772 213.708 140.865 213.708ZM143.98 207.138C145.717 207.138 147.03 206.694 147.917 205.807C148.804 204.919 149.371 204.004 149.616 203.06V199.916C146.992 199.916 145.019 200.124 143.697 200.539C142.395 200.936 141.526 201.464 141.092 202.125C140.658 202.767 140.44 203.465 140.44 204.221C140.44 205.316 140.78 206.08 141.46 206.515C142.14 206.93 142.98 207.138 143.98 207.138ZM176.945 213.708C170.639 213.708 167.486 210.432 167.486 203.881V190.599H164.286C163.72 190.599 163.323 190.485 163.097 190.259C162.889 190.013 162.785 189.607 162.785 189.041V185.558C162.785 184.991 162.889 184.595 163.097 184.368C163.323 184.123 163.72 184 164.286 184H167.486V179.44C167.486 178.987 167.581 178.638 167.77 178.393C168.562 177.354 169.724 176.231 171.253 175.022C171.517 174.834 171.753 174.739 171.961 174.739C172.188 174.739 172.414 174.834 172.641 175.022C173.452 175.646 174.132 176.231 174.68 176.778C175.246 177.326 175.728 177.864 176.124 178.393C176.313 178.638 176.407 178.987 176.407 179.44V184H181.42C181.986 184 182.373 184.123 182.581 184.368C182.808 184.595 182.921 184.991 182.921 185.558V189.041C182.921 189.607 182.808 190.013 182.581 190.259C182.373 190.485 181.986 190.599 181.42 190.599H176.407V202.323C176.407 205.344 177.502 206.854 179.692 206.854C180.032 206.854 180.344 206.826 180.627 206.77C180.91 206.694 181.156 206.618 181.363 206.543C181.76 206.392 182.034 206.335 182.185 206.373C182.354 206.411 182.506 206.618 182.638 206.996L184.28 211.386C184.45 211.858 184.337 212.198 183.94 212.405C183.657 212.537 182.968 212.783 181.873 213.142C180.797 213.519 179.154 213.708 176.945 213.708ZM196.543 213.708C193.768 213.708 191.559 212.934 189.916 211.386C188.292 209.819 187.48 207.666 187.48 204.929C187.48 203.513 187.735 202.201 188.245 200.992C188.774 199.765 189.68 198.689 190.964 197.764C192.267 196.82 194.079 196.064 196.401 195.498C198.743 194.932 201.726 194.601 205.351 194.507C205.351 192.789 204.916 191.552 204.048 190.797C203.198 190.042 201.914 189.664 200.196 189.664C198.648 189.664 197.383 189.928 196.401 190.457C195.42 190.986 194.806 191.344 194.561 191.533C194.296 191.76 193.975 191.845 193.598 191.788C193.088 191.713 192.54 191.58 191.955 191.392C191.389 191.203 190.775 190.986 190.114 190.74C190.02 190.702 189.916 190.646 189.803 190.57C189.689 190.476 189.623 190.344 189.604 190.174C189.604 190.079 189.614 189.966 189.633 189.834C189.652 189.683 189.699 189.419 189.774 189.041C189.85 188.663 189.963 188.201 190.114 187.653C190.265 187.087 190.407 186.653 190.539 186.351C190.709 186.03 190.992 185.728 191.389 185.444C191.71 185.18 192.682 184.755 194.306 184.17C195.929 183.585 198.28 183.292 201.357 183.292C209.835 183.292 214.073 187.417 214.073 195.668V211.697C214.073 212.056 213.969 212.368 213.762 212.632C213.573 212.877 213.243 213 212.771 213H208.522C208.22 213 207.947 212.962 207.701 212.887C207.475 212.792 207.257 212.622 207.05 212.377L205.294 210.111H205.096C204.227 211.376 203.057 212.292 201.584 212.858C200.13 213.425 198.45 213.708 196.543 213.708ZM199.658 207.138C201.395 207.138 202.707 206.694 203.595 205.807C204.482 204.919 205.049 204.004 205.294 203.06V199.916C202.67 199.916 200.697 200.124 199.375 200.539C198.072 200.936 197.204 201.464 196.77 202.125C196.335 202.767 196.118 203.465 196.118 204.221C196.118 205.316 196.458 206.08 197.138 206.515C197.817 206.93 198.658 207.138 199.658 207.138ZM245.452 213C243.507 213 242.025 212.755 241.006 212.264C240.005 211.773 239.326 210.97 238.967 209.856C238.627 208.743 238.457 207.26 238.457 205.41V179.979C238.457 178.09 238.627 176.599 238.967 175.504C239.326 174.39 240.005 173.597 241.006 173.125C242.025 172.634 243.507 172.389 245.452 172.389H258.763C259.216 172.389 259.556 172.464 259.782 172.615C260.273 172.955 260.783 173.361 261.312 173.833C261.84 174.305 262.397 174.871 262.982 175.532C263.171 175.778 263.266 175.976 263.266 176.127C263.266 176.297 263.171 176.486 262.982 176.693C262.397 177.354 261.84 177.921 261.312 178.393C260.783 178.865 260.273 179.271 259.782 179.61C259.518 179.761 259.178 179.837 258.763 179.837H250.833C249.587 179.837 248.737 180.101 248.284 180.63C247.831 181.159 247.604 182.065 247.604 183.349V188.843H257.771C258.225 188.843 258.564 188.918 258.791 189.069C259.282 189.409 259.792 189.815 260.32 190.287C260.849 190.759 261.406 191.326 261.991 191.986C262.18 192.232 262.274 192.43 262.274 192.581C262.274 192.751 262.18 192.94 261.991 193.147C261.406 193.808 260.849 194.375 260.32 194.847C259.792 195.319 259.282 195.725 258.791 196.064C258.527 196.215 258.187 196.291 257.771 196.291H247.604V202.012C247.604 203.277 247.831 204.183 248.284 204.73C248.737 205.278 249.587 205.552 250.833 205.552H259.697C260.15 205.552 260.49 205.627 260.717 205.778C261.208 206.118 261.717 206.524 262.246 206.996C262.775 207.468 263.332 208.035 263.917 208.695C264.106 208.941 264.2 209.139 264.2 209.29C264.2 209.46 264.106 209.649 263.917 209.856C263.332 210.517 262.775 211.084 262.246 211.556C261.717 212.028 261.208 212.434 260.717 212.773C260.452 212.924 260.113 213 259.697 213H245.452ZM297.505 194.96V211.499C297.505 212.065 297.382 212.462 297.137 212.688C296.91 212.896 296.514 213 295.947 213H290.113C289.547 213 289.141 212.896 288.896 212.688C288.669 212.462 288.556 212.065 288.556 211.499V196.433C288.556 194.375 288.121 192.874 287.253 191.93C286.384 190.986 285.204 190.514 283.713 190.514C282.221 190.514 281.07 190.835 280.258 191.477C279.465 192.118 278.851 192.93 278.417 193.912V211.499C278.417 212.065 278.294 212.462 278.049 212.688C277.822 212.896 277.426 213 276.859 213H271.025C270.459 213 270.053 212.896 269.808 212.688C269.581 212.462 269.468 212.065 269.468 211.499V187.767C269.468 187.313 269.562 186.964 269.751 186.719C270.147 186.19 270.619 185.652 271.167 185.104C271.733 184.557 272.423 183.972 273.234 183.349C273.48 183.16 273.716 183.065 273.942 183.065C274.15 183.065 274.386 183.16 274.65 183.349C275.443 183.972 276.123 184.566 276.689 185.133C277.256 185.699 277.756 186.285 278.19 186.889H278.332C278.653 186.473 279.134 185.992 279.776 185.444C280.418 184.878 281.315 184.378 282.467 183.943C283.637 183.509 285.129 183.292 286.941 183.292C288.716 183.292 290.406 183.651 292.011 184.368C293.616 185.086 294.928 186.294 295.947 187.993C296.986 189.692 297.505 192.015 297.505 194.96ZM333.188 186.719V209.687C333.188 215.2 331.612 219.4 328.459 222.289C325.325 225.178 321.02 226.622 315.545 226.622C313.279 226.622 311.486 226.452 310.164 226.112C308.842 225.791 307.842 225.48 307.162 225.178C306.728 224.97 306.445 224.753 306.312 224.526C306.124 224.224 305.907 223.781 305.661 223.195C305.435 222.61 305.217 221.968 305.01 221.27C304.953 221.005 304.944 220.807 304.981 220.675C305.057 220.486 305.199 220.288 305.406 220.08C305.746 219.74 306.228 219.344 306.851 218.891C307.493 218.438 307.983 218.145 308.323 218.013C308.682 217.881 309.012 217.899 309.314 218.069C309.805 218.334 310.504 218.626 311.41 218.947C312.335 219.287 313.629 219.457 315.29 219.457C317.933 219.457 320.086 218.777 321.747 217.418C323.409 216.059 324.239 213.963 324.239 211.131V210.111H324.126C323.711 210.64 323.173 211.178 322.512 211.726C321.851 212.273 320.992 212.736 319.935 213.113C318.896 213.491 317.556 213.68 315.913 213.68C313.062 213.68 310.721 213.066 308.89 211.839C307.077 210.593 305.737 208.884 304.868 206.713C304.019 204.542 303.594 202.068 303.594 199.293C303.594 196.253 304.094 193.525 305.095 191.108C306.095 188.692 307.776 186.785 310.136 185.388C312.496 183.972 315.724 183.264 319.821 183.264C322.276 183.264 324.334 183.443 325.995 183.802C327.675 184.16 329.082 184.604 330.215 185.133C331.348 185.661 332.339 186.19 333.188 186.719ZM319.51 190.117C317.32 190.117 315.649 190.854 314.497 192.326C313.345 193.799 312.77 196.083 312.77 199.18C312.77 204.032 314.771 206.458 318.773 206.458C320.34 206.458 321.539 206.137 322.37 205.495C323.201 204.853 323.824 204.041 324.239 203.06V191.363C323.824 191.061 323.239 190.778 322.483 190.514C321.728 190.249 320.737 190.117 319.51 190.117ZM339.532 174.484C339.532 174.239 339.608 174.022 339.759 173.833C339.91 173.644 340.108 173.399 340.354 173.097C340.882 172.493 341.496 171.86 342.194 171.199C342.893 170.52 343.601 169.868 344.318 169.245C344.771 168.886 345.111 168.707 345.338 168.707C345.564 168.707 345.914 168.886 346.386 169.245C347.915 170.567 349.218 171.851 350.294 173.097C350.539 173.38 350.738 173.625 350.889 173.833C351.059 174.022 351.144 174.239 351.144 174.484C351.144 174.73 351.059 174.947 350.889 175.136C350.738 175.325 350.53 175.579 350.266 175.9C349.756 176.486 349.161 177.118 348.481 177.798C347.802 178.459 347.103 179.091 346.386 179.695C346.121 179.922 345.914 180.073 345.763 180.148C345.612 180.205 345.47 180.233 345.338 180.233C345.206 180.233 345.064 180.205 344.913 180.148C344.781 180.073 344.564 179.922 344.262 179.695C343.507 179.091 342.799 178.459 342.138 177.798C341.477 177.118 340.882 176.467 340.354 175.844C340.108 175.542 339.91 175.306 339.759 175.136C339.608 174.947 339.532 174.73 339.532 174.484ZM349.784 211.499C349.784 212.065 349.661 212.462 349.416 212.688C349.189 212.896 348.793 213 348.227 213H342.393C341.826 213 341.42 212.896 341.175 212.688C340.948 212.462 340.835 212.065 340.835 211.499V185.501C340.835 184.935 340.948 184.548 341.175 184.34C341.42 184.113 341.826 184 342.393 184H348.227C348.793 184 349.189 184.113 349.416 184.34C349.661 184.548 349.784 184.935 349.784 185.501V211.499ZM385.524 194.96V211.499C385.524 212.065 385.402 212.462 385.156 212.688C384.93 212.896 384.533 213 383.967 213H378.133C377.566 213 377.16 212.896 376.915 212.688C376.688 212.462 376.575 212.065 376.575 211.499V196.433C376.575 194.375 376.141 192.874 375.272 191.93C374.404 190.986 373.224 190.514 371.732 190.514C370.241 190.514 369.089 190.835 368.277 191.477C367.484 192.118 366.871 192.93 366.437 193.912V211.499C366.437 212.065 366.314 212.462 366.068 212.688C365.842 212.896 365.445 213 364.879 213H359.045C358.479 213 358.073 212.896 357.827 212.688C357.601 212.462 357.487 212.065 357.487 211.499V187.767C357.487 187.313 357.582 186.964 357.771 186.719C358.167 186.19 358.639 185.652 359.187 185.104C359.753 184.557 360.442 183.972 361.254 183.349C361.499 183.16 361.735 183.065 361.962 183.065C362.17 183.065 362.406 183.16 362.67 183.349C363.463 183.972 364.143 184.566 364.709 185.133C365.275 185.699 365.776 186.285 366.21 186.889H366.352C366.673 186.473 367.154 185.992 367.796 185.444C368.438 184.878 369.335 184.378 370.486 183.943C371.657 183.509 373.148 183.292 374.961 183.292C376.736 183.292 378.425 183.651 380.03 184.368C381.635 185.086 382.947 186.294 383.967 187.993C385.005 189.692 385.524 192.015 385.524 194.96ZM407.388 213.708C404.197 213.708 401.422 213.198 399.062 212.179C396.701 211.14 394.87 209.535 393.567 207.364C392.265 205.193 391.613 202.389 391.613 198.953C391.613 193.799 392.935 189.9 395.578 187.257C398.221 184.614 401.733 183.292 406.113 183.292C408.964 183.292 411.371 183.802 413.335 184.821C415.317 185.841 416.818 187.247 417.838 189.041C418.876 190.835 419.396 192.883 419.396 195.187C419.396 197.433 418.82 199 417.668 199.888C416.516 200.775 414.836 201.219 412.627 201.219H400.478C400.629 203.163 401.337 204.646 402.602 205.665C403.885 206.685 405.622 207.194 407.812 207.194C409.549 207.194 410.937 206.939 411.976 206.43C413.033 205.901 413.769 205.486 414.185 205.184C414.543 204.919 414.949 204.797 415.402 204.815C415.761 204.815 416.271 204.891 416.932 205.042C417.611 205.174 418.282 205.429 418.942 205.807C419.414 206.052 419.65 206.392 419.65 206.826C419.65 207.072 419.603 207.421 419.509 207.874C419.452 208.138 419.358 208.525 419.226 209.035C419.093 209.526 418.924 209.989 418.716 210.423C418.603 210.631 418.423 210.829 418.178 211.018C417.8 211.282 417.187 211.631 416.337 212.065C415.506 212.5 414.364 212.877 412.91 213.198C411.456 213.538 409.616 213.708 407.388 213.708ZM400.421 195.413H409.653C410.616 195.413 411.098 194.969 411.098 194.082C411.098 192.742 410.673 191.618 409.823 190.712C408.993 189.787 407.737 189.324 406.057 189.324C404.225 189.324 402.875 189.91 402.007 191.08C401.157 192.251 400.629 193.695 400.421 195.413ZM439.843 213.708C436.652 213.708 433.877 213.198 431.517 212.179C429.157 211.14 427.325 209.535 426.022 207.364C424.72 205.193 424.068 202.389 424.068 198.953C424.068 193.799 425.39 189.9 428.033 187.257C430.676 184.614 434.188 183.292 438.568 183.292C441.419 183.292 443.826 183.802 445.79 184.821C447.772 185.841 449.273 187.247 450.293 189.041C451.331 190.835 451.851 192.883 451.851 195.187C451.851 197.433 451.275 199 450.123 199.888C448.971 200.775 447.291 201.219 445.082 201.219H432.933C433.084 203.163 433.792 204.646 435.057 205.665C436.34 206.685 438.077 207.194 440.268 207.194C442.005 207.194 443.392 206.939 444.431 206.43C445.488 205.901 446.224 205.486 446.64 205.184C446.998 204.919 447.404 204.797 447.857 204.815C448.216 204.815 448.726 204.891 449.387 205.042C450.066 205.174 450.737 205.429 451.397 205.807C451.869 206.052 452.105 206.392 452.105 206.826C452.105 207.072 452.058 207.421 451.964 207.874C451.907 208.138 451.813 208.525 451.681 209.035C451.549 209.526 451.379 209.989 451.171 210.423C451.058 210.631 450.878 210.829 450.633 211.018C450.255 211.282 449.642 211.631 448.792 212.065C447.961 212.5 446.819 212.877 445.365 213.198C443.911 213.538 442.071 213.708 439.843 213.708ZM432.876 195.413H442.108C443.071 195.413 443.553 194.969 443.553 194.082C443.553 192.742 443.128 191.618 442.278 190.712C441.448 189.787 440.192 189.324 438.512 189.324C436.68 189.324 435.33 189.91 434.462 191.08C433.612 192.251 433.084 193.695 432.876 195.413ZM467.03 189.381H467.144C468.56 185.454 471.108 183.49 474.79 183.49C475.262 183.49 475.649 183.519 475.951 183.575C476.253 183.613 476.461 183.651 476.574 183.688C476.857 183.783 476.999 184 476.999 184.34V191.165C476.999 191.75 476.659 191.911 475.979 191.646C475.753 191.552 475.423 191.458 474.988 191.363C474.573 191.25 473.988 191.193 473.232 191.193C471.288 191.193 469.768 191.911 468.673 193.346C467.578 194.762 467.03 196.697 467.03 199.151V211.499C467.03 212.065 466.908 212.462 466.662 212.688C466.436 212.896 466.039 213 465.473 213H459.639C459.072 213 458.666 212.896 458.421 212.688C458.194 212.462 458.081 212.065 458.081 211.499V187.767C458.081 187.313 458.175 186.964 458.364 186.719C458.761 186.19 459.233 185.652 459.78 185.104C460.347 184.557 461.036 183.972 461.848 183.349C461.999 183.235 462.15 183.16 462.301 183.122C462.452 183.084 462.584 183.065 462.697 183.065C462.962 183.065 463.226 183.16 463.49 183.349C465.057 184.576 466.152 185.624 466.775 186.492C466.945 186.719 467.03 186.983 467.03 187.285V189.381ZM43.4434 281.042C42.0085 281.042 40.6963 280.693 39.5068 279.994C38.3363 279.296 37.4017 278.352 36.7031 277.162C36.0234 275.973 35.6836 274.66 35.6836 273.226C35.6836 271.772 36.0234 270.46 36.7031 269.289C37.4017 268.118 38.3363 267.193 39.5068 266.514C40.6963 265.815 42.0085 265.466 43.4434 265.466C44.8783 265.466 46.181 265.815 47.3516 266.514C48.541 267.212 49.4945 268.147 50.2119 269.317C50.9294 270.488 51.2881 271.791 51.2881 273.226C51.2881 274.642 50.9388 275.944 50.2402 277.134C49.5417 278.304 48.5977 279.248 47.4082 279.966C46.2376 280.683 44.916 281.042 43.4434 281.042ZM114.527 272.744C114.792 271.725 115.075 270.724 115.377 269.742C115.698 268.742 116.085 267.628 116.538 266.4C116.935 265.305 117.416 264.05 117.982 262.634C118.549 261.199 119.144 259.745 119.767 258.272C120.409 256.8 121.032 255.431 121.636 254.166C122.24 252.901 122.787 251.891 123.278 251.136C123.882 250.211 124.534 249.521 125.232 249.068C125.95 248.615 126.998 248.389 128.376 248.389H132.086C133.068 248.389 133.889 248.54 134.55 248.842C135.229 249.125 135.711 249.814 135.994 250.909C136.202 251.721 136.4 252.91 136.589 254.478C136.778 256.045 136.938 258.216 137.07 260.991C137.202 263.767 137.306 267.335 137.382 271.696C137.457 276.039 137.495 281.41 137.495 287.811C137.495 288.15 137.382 288.434 137.155 288.66C136.929 288.887 136.655 289 136.334 289H129.877C129.556 289 129.282 288.887 129.056 288.66C128.829 288.434 128.716 288.141 128.716 287.782C128.716 282.798 128.716 278.569 128.716 275.095C128.716 271.621 128.706 268.742 128.688 266.457C128.669 264.173 128.64 262.36 128.603 261.02C128.584 259.66 128.546 258.612 128.489 257.876H128.319C127.319 260.179 126.252 262.747 125.119 265.579C123.986 268.392 122.882 271.3 121.806 274.302C120.729 277.285 119.767 280.202 118.917 283.053C118.672 283.902 118.36 284.497 117.982 284.837C117.624 285.158 116.793 285.318 115.49 285.318H112.233C111.119 285.318 110.374 285.177 109.996 284.894C109.637 284.61 109.326 283.997 109.062 283.053C108.438 280.9 107.749 278.625 106.994 276.228C106.239 273.83 105.455 271.479 104.644 269.176C103.851 266.854 103.076 264.72 102.321 262.775C101.585 260.812 100.924 259.179 100.339 257.876H100.169C100.018 260.104 99.8857 262.813 99.7725 266.004C99.6592 269.195 99.5648 272.659 99.4893 276.397C99.4326 280.136 99.3949 283.95 99.376 287.839C99.376 288.179 99.2627 288.462 99.0361 288.688C98.8096 288.896 98.5358 289 98.2148 289H92.4092C92.0882 289 91.8145 288.887 91.5879 288.66C91.3613 288.434 91.248 288.141 91.248 287.782C91.2669 277.719 91.4652 269.686 91.8428 263.682C92.2393 257.678 92.6641 253.656 93.1172 251.617C93.4193 250.277 93.9479 249.408 94.7031 249.012C95.4772 248.596 96.3551 248.389 97.3369 248.389H101.925C102.963 248.389 103.718 248.577 104.19 248.955C104.681 249.314 105.276 250.022 105.975 251.079C106.39 251.702 106.881 252.637 107.447 253.883C108.033 255.129 108.637 256.517 109.26 258.046C109.883 259.556 110.468 261.057 111.016 262.549C111.582 264.021 112.045 265.305 112.403 266.4C112.781 267.514 113.13 268.6 113.451 269.657C113.772 270.696 114.055 271.725 114.301 272.744H114.527ZM153.298 289C151.353 289 149.871 288.755 148.852 288.264C147.851 287.773 147.171 286.97 146.812 285.856C146.473 284.743 146.303 283.26 146.303 281.41V252.92C146.303 252.372 146.397 251.957 146.586 251.674C147.436 250.428 148.625 249.116 150.154 247.737C150.438 247.511 150.683 247.397 150.891 247.397C151.117 247.397 151.353 247.511 151.599 247.737C152.429 248.455 153.128 249.144 153.694 249.805C154.261 250.447 154.752 251.07 155.167 251.674C155.356 251.976 155.45 252.391 155.45 252.92V278.04C155.45 279.305 155.677 280.211 156.13 280.759C156.583 281.306 157.433 281.58 158.679 281.58L167.373 281.552C167.826 281.552 168.166 281.627 168.393 281.778C168.883 282.118 169.393 282.524 169.922 282.996C170.451 283.468 171.007 284.035 171.593 284.695C171.782 284.941 171.876 285.139 171.876 285.29C171.876 285.46 171.782 285.649 171.593 285.856C171.007 286.517 170.451 287.084 169.922 287.556C169.393 288.028 168.883 288.434 168.393 288.773C168.128 288.924 167.788 289 167.373 289H153.298ZM171.848 294.211C171.149 293.928 170.941 293.427 171.225 292.71L189.774 248.19C190.058 247.473 190.567 247.265 191.304 247.567L196.005 249.55C196.307 249.682 196.515 249.89 196.628 250.173C196.741 250.456 196.732 250.749 196.6 251.051L178.021 295.485C177.889 295.787 177.682 295.995 177.398 296.108C177.134 296.241 176.851 296.241 176.549 296.108L171.848 294.211ZM223.447 250.626C224.486 252.08 225.543 253.958 226.619 256.262C227.714 258.546 228.771 261.057 229.791 263.795C230.811 266.533 231.726 269.336 232.538 272.206C233.369 275.057 234.049 277.804 234.577 280.447C235.106 283.09 235.408 285.441 235.483 287.499C235.502 288.5 235.049 289 234.124 289H227.271C226.383 289 225.921 288.556 225.883 287.669C225.807 285.554 225.467 282.987 224.863 279.966H209.4C208.872 282.911 208.57 285.479 208.494 287.669C208.456 288.556 207.975 289 207.05 289H200.338C199.998 289 199.715 288.906 199.488 288.717C199.262 288.509 199.158 288.16 199.177 287.669C199.271 285.573 199.573 283.194 200.083 280.532C200.612 277.851 201.291 275.076 202.122 272.206C202.953 269.336 203.878 266.533 204.897 263.795C205.917 261.038 206.974 258.518 208.069 256.233C209.164 253.949 210.231 252.08 211.27 250.626C211.817 249.852 212.393 249.285 212.997 248.927C213.62 248.568 214.385 248.389 215.291 248.389H219.369C220.294 248.389 221.068 248.568 221.691 248.927C222.314 249.285 222.9 249.852 223.447 250.626ZM217.047 257.338C215.801 259.32 214.659 261.69 213.62 264.446C212.582 267.203 211.685 270.035 210.93 272.942H223.221C222.428 270.035 221.512 267.203 220.474 264.446C219.435 261.69 218.35 259.32 217.217 257.338H217.047ZM251.286 287.499C251.286 288.065 251.163 288.462 250.918 288.688C250.691 288.896 250.295 289 249.729 289H243.696C243.13 289 242.724 288.896 242.479 288.688C242.252 288.462 242.139 288.065 242.139 287.499V252.92C242.139 252.372 242.233 251.957 242.422 251.674C243.271 250.428 244.461 249.116 245.99 247.737C246.273 247.511 246.519 247.397 246.727 247.397C246.953 247.397 247.189 247.511 247.435 247.737C248.265 248.455 248.964 249.144 249.53 249.805C250.097 250.447 250.588 251.07 251.003 251.674C251.192 251.976 251.286 252.391 251.286 252.92V287.499ZM283.401 289C281.457 289 279.975 288.755 278.955 288.264C277.954 287.773 277.275 286.97 276.916 285.856C276.576 284.743 276.406 283.26 276.406 281.41V255.979C276.406 254.09 276.576 252.599 276.916 251.504C277.275 250.39 277.954 249.597 278.955 249.125C279.975 248.634 281.457 248.389 283.401 248.389H296.712C297.165 248.389 297.505 248.464 297.731 248.615C298.222 248.955 298.732 249.361 299.261 249.833C299.789 250.305 300.346 250.871 300.932 251.532C301.12 251.778 301.215 251.976 301.215 252.127C301.215 252.297 301.12 252.486 300.932 252.693C300.346 253.354 299.789 253.921 299.261 254.393C298.732 254.865 298.222 255.271 297.731 255.61C297.467 255.761 297.127 255.837 296.712 255.837H288.782C287.536 255.837 286.687 256.101 286.233 256.63C285.78 257.159 285.554 258.065 285.554 259.349V264.843H295.721C296.174 264.843 296.514 264.918 296.74 265.069C297.231 265.409 297.741 265.815 298.27 266.287C298.798 266.759 299.355 267.326 299.94 267.986C300.129 268.232 300.224 268.43 300.224 268.581C300.224 268.751 300.129 268.94 299.94 269.147C299.355 269.808 298.798 270.375 298.27 270.847C297.741 271.319 297.231 271.725 296.74 272.064C296.476 272.215 296.136 272.291 295.721 272.291H285.554V278.012C285.554 279.277 285.78 280.183 286.233 280.73C286.687 281.278 287.536 281.552 288.782 281.552H297.646C298.1 281.552 298.439 281.627 298.666 281.778C299.157 282.118 299.667 282.524 300.195 282.996C300.724 283.468 301.281 284.035 301.866 284.695C302.055 284.941 302.149 285.139 302.149 285.29C302.149 285.46 302.055 285.649 301.866 285.856C301.281 286.517 300.724 287.084 300.195 287.556C299.667 288.028 299.157 288.434 298.666 288.773C298.402 288.924 298.062 289 297.646 289H283.401ZM335.454 270.96V287.499C335.454 288.065 335.331 288.462 335.086 288.688C334.859 288.896 334.463 289 333.896 289H328.062C327.496 289 327.09 288.896 326.845 288.688C326.618 288.462 326.505 288.065 326.505 287.499V272.433C326.505 270.375 326.071 268.874 325.202 267.93C324.334 266.986 323.154 266.514 321.662 266.514C320.171 266.514 319.019 266.835 318.207 267.477C317.414 268.118 316.8 268.93 316.366 269.912V287.499C316.366 288.065 316.243 288.462 315.998 288.688C315.771 288.896 315.375 289 314.809 289H308.975C308.408 289 308.002 288.896 307.757 288.688C307.53 288.462 307.417 288.065 307.417 287.499V263.767C307.417 263.313 307.511 262.964 307.7 262.719C308.097 262.19 308.569 261.652 309.116 261.104C309.683 260.557 310.372 259.972 311.184 259.349C311.429 259.16 311.665 259.065 311.892 259.065C312.099 259.065 312.335 259.16 312.6 259.349C313.393 259.972 314.072 260.566 314.639 261.133C315.205 261.699 315.705 262.285 316.14 262.889H316.281C316.602 262.473 317.084 261.992 317.726 261.444C318.368 260.878 319.264 260.378 320.416 259.943C321.587 259.509 323.078 259.292 324.891 259.292C326.665 259.292 328.355 259.651 329.96 260.368C331.565 261.086 332.877 262.294 333.896 263.993C334.935 265.692 335.454 268.015 335.454 270.96ZM371.138 262.719V285.687C371.138 291.2 369.561 295.4 366.408 298.289C363.274 301.178 358.969 302.622 353.494 302.622C351.229 302.622 349.435 302.452 348.113 302.112C346.792 301.791 345.791 301.48 345.111 301.178C344.677 300.97 344.394 300.753 344.262 300.526C344.073 300.224 343.856 299.781 343.61 299.195C343.384 298.61 343.167 297.968 342.959 297.27C342.902 297.005 342.893 296.807 342.931 296.675C343.006 296.486 343.148 296.288 343.355 296.08C343.695 295.74 344.177 295.344 344.8 294.891C345.442 294.438 345.933 294.145 346.272 294.013C346.631 293.881 346.962 293.899 347.264 294.069C347.755 294.334 348.453 294.626 349.359 294.947C350.285 295.287 351.578 295.457 353.239 295.457C355.882 295.457 358.035 294.777 359.696 293.418C361.358 292.059 362.188 289.963 362.188 287.131V286.111H362.075C361.66 286.64 361.122 287.178 360.461 287.726C359.8 288.273 358.941 288.736 357.884 289.113C356.845 289.491 355.505 289.68 353.862 289.68C351.011 289.68 348.67 289.066 346.839 287.839C345.026 286.593 343.686 284.884 342.817 282.713C341.968 280.542 341.543 278.068 341.543 275.293C341.543 272.253 342.043 269.525 343.044 267.108C344.045 264.692 345.725 262.785 348.085 261.388C350.445 259.972 353.674 259.264 357.771 259.264C360.225 259.264 362.283 259.443 363.944 259.802C365.625 260.16 367.031 260.604 368.164 261.133C369.297 261.661 370.288 262.19 371.138 262.719ZM357.459 266.117C355.269 266.117 353.598 266.854 352.446 268.326C351.295 269.799 350.719 272.083 350.719 275.18C350.719 280.032 352.72 282.458 356.723 282.458C358.29 282.458 359.489 282.137 360.319 281.495C361.15 280.853 361.773 280.041 362.188 279.06V267.363C361.773 267.061 361.188 266.778 360.433 266.514C359.677 266.249 358.686 266.117 357.459 266.117ZM377.481 250.484C377.481 250.239 377.557 250.022 377.708 249.833C377.859 249.644 378.057 249.399 378.303 249.097C378.831 248.493 379.445 247.86 380.144 247.199C380.842 246.52 381.55 245.868 382.268 245.245C382.721 244.886 383.061 244.707 383.287 244.707C383.514 244.707 383.863 244.886 384.335 245.245C385.864 246.567 387.167 247.851 388.243 249.097C388.489 249.38 388.687 249.625 388.838 249.833C389.008 250.022 389.093 250.239 389.093 250.484C389.093 250.73 389.008 250.947 388.838 251.136C388.687 251.325 388.479 251.579 388.215 251.9C387.705 252.486 387.11 253.118 386.431 253.798C385.751 254.459 385.052 255.091 384.335 255.695C384.071 255.922 383.863 256.073 383.712 256.148C383.561 256.205 383.419 256.233 383.287 256.233C383.155 256.233 383.013 256.205 382.862 256.148C382.73 256.073 382.513 255.922 382.211 255.695C381.456 255.091 380.748 254.459 380.087 253.798C379.426 253.118 378.831 252.467 378.303 251.844C378.057 251.542 377.859 251.306 377.708 251.136C377.557 250.947 377.481 250.73 377.481 250.484ZM387.733 287.499C387.733 288.065 387.611 288.462 387.365 288.688C387.139 288.896 386.742 289 386.176 289H380.342C379.775 289 379.369 288.896 379.124 288.688C378.897 288.462 378.784 288.065 378.784 287.499V261.501C378.784 260.935 378.897 260.548 379.124 260.34C379.369 260.113 379.775 260 380.342 260H386.176C386.742 260 387.139 260.113 387.365 260.34C387.611 260.548 387.733 260.935 387.733 261.501V287.499ZM423.474 270.96V287.499C423.474 288.065 423.351 288.462 423.105 288.688C422.879 288.896 422.482 289 421.916 289H416.082C415.516 289 415.11 288.896 414.864 288.688C414.638 288.462 414.524 288.065 414.524 287.499V272.433C414.524 270.375 414.09 268.874 413.222 267.93C412.353 266.986 411.173 266.514 409.682 266.514C408.19 266.514 407.038 266.835 406.227 267.477C405.434 268.118 404.82 268.93 404.386 269.912V287.499C404.386 288.065 404.263 288.462 404.018 288.688C403.791 288.896 403.395 289 402.828 289H396.994C396.428 289 396.022 288.896 395.776 288.688C395.55 288.462 395.437 288.065 395.437 287.499V263.767C395.437 263.313 395.531 262.964 395.72 262.719C396.116 262.19 396.588 261.652 397.136 261.104C397.702 260.557 398.391 259.972 399.203 259.349C399.449 259.16 399.685 259.065 399.911 259.065C400.119 259.065 400.355 259.16 400.619 259.349C401.412 259.972 402.092 260.566 402.658 261.133C403.225 261.699 403.725 262.285 404.159 262.889H404.301C404.622 262.473 405.103 261.992 405.745 261.444C406.387 260.878 407.284 260.378 408.436 259.943C409.606 259.509 411.098 259.292 412.91 259.292C414.685 259.292 416.375 259.651 417.979 260.368C419.584 261.086 420.896 262.294 421.916 263.993C422.954 265.692 423.474 268.015 423.474 270.96ZM445.337 289.708C442.146 289.708 439.371 289.198 437.011 288.179C434.651 287.14 432.819 285.535 431.517 283.364C430.214 281.193 429.562 278.389 429.562 274.953C429.562 269.799 430.884 265.9 433.527 263.257C436.171 260.614 439.682 259.292 444.062 259.292C446.913 259.292 449.321 259.802 451.284 260.821C453.267 261.841 454.768 263.247 455.787 265.041C456.826 266.835 457.345 268.883 457.345 271.187C457.345 273.433 456.769 275 455.617 275.888C454.465 276.775 452.785 277.219 450.576 277.219H438.427C438.578 279.163 439.286 280.646 440.551 281.665C441.835 282.685 443.572 283.194 445.762 283.194C447.499 283.194 448.886 282.939 449.925 282.43C450.982 281.901 451.718 281.486 452.134 281.184C452.493 280.919 452.898 280.797 453.352 280.815C453.71 280.815 454.22 280.891 454.881 281.042C455.561 281.174 456.231 281.429 456.892 281.807C457.364 282.052 457.6 282.392 457.6 282.826C457.6 283.072 457.552 283.421 457.458 283.874C457.401 284.138 457.307 284.525 457.175 285.035C457.043 285.526 456.873 285.989 456.665 286.423C456.552 286.631 456.372 286.829 456.127 287.018C455.749 287.282 455.136 287.631 454.286 288.065C453.455 288.5 452.313 288.877 450.859 289.198C449.406 289.538 447.565 289.708 445.337 289.708ZM438.37 271.413H447.603C448.565 271.413 449.047 270.969 449.047 270.082C449.047 268.742 448.622 267.618 447.772 266.712C446.942 265.787 445.686 265.324 444.006 265.324C442.174 265.324 440.825 265.91 439.956 267.08C439.106 268.251 438.578 269.695 438.37 271.413ZM477.792 289.708C474.601 289.708 471.826 289.198 469.466 288.179C467.106 287.14 465.274 285.535 463.972 283.364C462.669 281.193 462.018 278.389 462.018 274.953C462.018 269.799 463.339 265.9 465.982 263.257C468.626 260.614 472.137 259.292 476.518 259.292C479.368 259.292 481.776 259.802 483.739 260.821C485.722 261.841 487.223 263.247 488.242 265.041C489.281 266.835 489.8 268.883 489.8 271.187C489.8 273.433 489.224 275 488.072 275.888C486.921 276.775 485.24 277.219 483.031 277.219H470.882C471.033 279.163 471.741 280.646 473.006 281.665C474.29 282.685 476.027 283.194 478.217 283.194C479.954 283.194 481.341 282.939 482.38 282.43C483.437 281.901 484.174 281.486 484.589 281.184C484.948 280.919 485.354 280.797 485.807 280.815C486.165 280.815 486.675 280.891 487.336 281.042C488.016 281.174 488.686 281.429 489.347 281.807C489.819 282.052 490.055 282.392 490.055 282.826C490.055 283.072 490.007 283.421 489.913 283.874C489.856 284.138 489.762 284.525 489.63 285.035C489.498 285.526 489.328 285.989 489.12 286.423C489.007 286.631 488.827 286.829 488.582 287.018C488.204 287.282 487.591 287.631 486.741 288.065C485.91 288.5 484.768 288.877 483.314 289.198C481.861 289.538 480.02 289.708 477.792 289.708ZM470.825 271.413H480.058C481.021 271.413 481.502 270.969 481.502 270.082C481.502 268.742 481.077 267.618 480.228 266.712C479.397 265.787 478.141 265.324 476.461 265.324C474.63 265.324 473.28 265.91 472.411 267.08C471.562 268.251 471.033 269.695 470.825 271.413ZM504.979 265.381H505.093C506.509 261.454 509.058 259.49 512.739 259.49C513.211 259.49 513.598 259.519 513.9 259.575C514.202 259.613 514.41 259.651 514.523 259.688C514.807 259.783 514.948 260 514.948 260.34V267.165C514.948 267.75 514.608 267.911 513.929 267.646C513.702 267.552 513.372 267.458 512.938 267.363C512.522 267.25 511.937 267.193 511.182 267.193C509.237 267.193 507.717 267.911 506.622 269.346C505.527 270.762 504.979 272.697 504.979 275.151V287.499C504.979 288.065 504.857 288.462 504.611 288.688C504.385 288.896 503.988 289 503.422 289H497.588C497.021 289 496.616 288.896 496.37 288.688C496.144 288.462 496.03 288.065 496.03 287.499V263.767C496.03 263.313 496.125 262.964 496.313 262.719C496.71 262.19 497.182 261.652 497.729 261.104C498.296 260.557 498.985 259.972 499.797 259.349C499.948 259.235 500.099 259.16 500.25 259.122C500.401 259.084 500.533 259.065 500.646 259.065C500.911 259.065 501.175 259.16 501.439 259.349C503.007 260.576 504.102 261.624 504.725 262.492C504.895 262.719 504.979 262.983 504.979 263.285V265.381Z" fill="white"/>
</g>
<defs>
<clipPath id="clip0_0_1">
<rect width="614" height="390" fill="white"/>
</clipPath>
</defs>
</svg>
